<?xml version="1.0" encoding="utf-8"?>
<!-- Generator: Adobe Illustrator 15.0.2, SVG Export Plug-In . SVG Version: 6.00 Build 0)  -->
<!DOCTYPE svg PUBLIC "-//W3C//DTD SVG 1.0//EN" "http://www.w3.org/TR/2001/REC-SVG-20010904/DTD/svg10.dtd">
<svg version="1.0" id="Layer_1" xmlns="http://www.w3.org/2000/svg" xmlns:xlink="http://www.w3.org/1999/xlink" x="0px" y="0px"
	 width="1984px" height="264px" viewBox="0 0 1984 264" enable-background="new 0 0 1984 264" xml:space="preserve">
<g>
	<path fill="#0063A2" d="M1755.932,73.149c0,6.598,5.555,12.16,12.161,12.16c6.621,0,12.183-5.562,12.183-12.16
		c0-6.602-5.562-12.162-12.183-12.162C1761.486,60.987,1755.932,66.552,1755.932,73.149 M1923.133,57.519
		c0-4.527-1.73-5.925-4.161-5.925c-2.074,0-4.505,1.398-7.637,2.794l-14.95,6.599c-3.132,1.397-3.833,2.434-3.833,4.164
		c0,1.759,1.395,3.132,4.526,3.132c4.869,0,6.6,1.4,6.6,7.658v103.245c0,4.862-1.401,5.899-5.563,6.264
		c-3.125,0.332-4.505,1.73-4.505,4.166c0,7.295,25.031,12.859,43.443,12.859c30.588,0,46.946-19.464,46.946-50.069
		c0-21.191-7.994-44.483-35.814-44.483c-10.789,0-20.856,4.865-20.856,9.396c0,1.73,1.373,3.469,3.468,3.469
		c3.468,0,5.563-3.132,12.856-3.132c11.468,0,18.77,12.158,18.77,34.075c0,27.814-8.338,39.618-23.269,39.618
		c-10.788,0-16.014-3.831-16.014-17.391V57.519H1923.133z M1523.722,165.631c0,13.556-8.688,24.32-25.384,24.32
		c-12.519,0-22.95-6.24-29.542-14.259c-5.929-6.936-5.563-10.067-11.133-10.067c-3.468,0-5.205,2.794-5.205,5.562
		c0,2.436,1.044,7.635,5.205,23.647c1.73,6.574,2.773,8.67,6.263,8.67c5.563,0,4.87-5.562,10.068-5.562
		c5.562,0,9.752,4.527,27.141,4.527c30.923,0,45.517-18.427,45.517-40.314c0-19.479-10.769-32.345-37.552-50.766
		c-25.719-17.723-28.486-21.217-28.486-31.287c0-10.089,7.994-16.687,20.521-16.687c9.367,0,18.762,4.165,25.023,10.789
		c5.2,5.539,6.601,11.465,11.456,11.465c3.139,0,4.868-1.399,4.868-4.528c0-3.127-2.073-9.728-4.868-23.986
		c-1.036-5.2-2.087-7.3-5.557-7.3c-4.167,0-5.562,4.168-10.432,4.168c-4.167,0-10.761-3.131-22.257-3.131
		c-26.412,0-41.706,12.184-41.706,32.678c0,18.423,8.694,26.78,30.588,42.072C1508.771,139.906,1523.722,148.575,1523.722,165.631
		 M1616.878,227.161c0,5.562-2.101,6.595-5.205,6.96l-3.131,0.335c-2.438,0.337-3.497,1.729-3.497,3.825
		c0,2.073,1.402,3.831,4.87,3.831h33.375c3.468,0,4.87-1.758,4.87-3.831c0-2.086-1.045-3.488-3.468-3.825l-3.14-0.335
		c-3.132-0.365-5.198-1.398-5.198-6.96V119.752c0-7.663,1.73-9.755,1.73-12.524c0-2.431-1.395-4.193-4.161-4.193
		c-4.533,0-7.321,4.528-10.797,10.789c-5.562-3.126-13.22-5.901-24.681-5.901c-30.581,0-44.144,20.857-44.144,49.708
		c0,29.185,16.688,44.839,37.88,44.839c9.059,0,20.185-3.828,20.185-10.09c0-2.433-2.095-3.81-4.169-3.81
		c-3.153,0-4.19,2.773-11.825,2.773c-13.915,0-20.514-10.068-20.514-33.716c0-22.256,6.956-38.582,23.287-38.582
		c12.52,0,17.725,5.902,17.725,20.157v87.958H1616.878z M1759.063,184.748c0,5.564-2.075,6.602-5.228,6.936l-3.11,0.362
		c-2.438,0.341-3.468,1.733-3.468,3.828c0,2.074,1.366,3.832,4.834,3.832h33.384c3.495,0,4.86-1.758,4.86-3.832
		c0-2.095-1.037-3.487-3.468-3.828l-3.131-0.362c-3.132-0.334-5.227-1.371-5.227-6.936v-70.924c0-4.526-1.73-5.901-4.168-5.901
		c-2.073,0-4.498,1.372-7.63,2.77l-14.958,6.622c-3.131,1.373-3.831,2.433-3.831,4.169c0,1.735,1.399,3.106,4.532,3.106
		c4.862,0,6.6,1.399,6.6,7.658v52.5H1759.063z M1737.506,199.706c3.489,0,4.862-1.764,4.862-3.832c0-2.095-1.037-3.487-3.468-3.831
		l-3.133-0.359c-3.124-0.334-5.205-1.371-5.205-6.938v-70.921c0-4.526-1.758-5.901-4.183-5.901c-2.074,0-4.505,1.372-7.636,2.77
		l-14.951,6.622c-3.131,1.373-3.832,2.433-3.832,4.169c0,1.735,1.4,3.106,4.533,3.106c4.861,0,6.592,1.399,6.592,7.658v34.077
		c0,17.028-7.293,23.292-18.418,23.292c-10.096,0-15.658-3.494-15.658-20.854v-54.939c0-4.526-1.73-5.901-4.161-5.901
		c-2.074,0-4.505,1.372-7.63,2.77l-14.957,6.622c-3.132,1.373-3.833,2.433-3.833,4.169c0,1.735,1.401,3.106,4.534,3.106
		c4.861,0,6.598,1.399,6.598,7.658v41.377c0,20.154,10.09,27.793,28.15,27.793c12.163,0,22.608-4.507,26.42-10.068l0.7,0.334v5.228
		c0,1.733,1.058,2.795,3.825,2.795H1737.506L1737.506,199.706z M1826.158,57.519c0-4.527-1.738-5.925-4.176-5.925
		c-2.089,0-4.525,1.398-7.658,2.794l-14.93,6.599c-3.131,1.397-3.831,2.434-3.831,4.164c0,1.759,1.372,3.132,4.526,3.132
		c4.847,0,6.605,1.4,6.605,7.658v103.245c0,4.862-1.401,5.899-5.563,6.264c-3.139,0.332-4.525,1.73-4.525,4.166
		c0,7.295,25.017,12.859,43.436,12.859c30.617,0,46.947-19.464,46.947-50.069c0-21.191-8.002-44.483-35.822-44.483
		c-10.761,0-20.849,4.865-20.849,9.396c0,1.73,1.394,3.469,3.495,3.469c3.468,0,5.556-3.132,12.856-3.132
		c11.462,0,18.756,12.158,18.756,34.075c0,27.814-8.332,39.618-23.282,39.618c-10.768,0-15.994-3.831-15.994-17.391V57.519H1826.158
		z M925.103,161.8c3.803,0,4.861-1.037,4.861-4.166v-5.902c0-3.156-1.058-4.19-4.861-4.19h-42.77c-3.833,0-4.87,1.034-4.87,4.19
		v5.902c0,3.132,1.037,4.166,4.87,4.166H925.103z M1122.193,132.611c-1.73-3.829-3.468-7.657-3.468-10.091
		c0-2.768,2.07-4.168,4.862-4.532c3.468-0.334,4.525-1.73,4.525-3.466c0-2.092-2.095-3.132-5.563-3.132h-31.28
		c-3.473,0-5.228,0.696-5.228,3.468c0,1.396,0.698,2.796,3.129,3.13c4.865,0.7,7.997,3.496,11.829,11.823l30.245,67.101
		c-7.297,13.197-17.389,29.213-23.288,37.882c-1.401,2.096-3.132,3.831-3.132,5.562c0,1.758,1.373,1.758,3.132,1.758h11.462
		c2.771,0,4.865-0.362,6.263-3.831c1.733-4.859,6.243-15.985,15.63-38.938l28.515-70.901c2.794-6.626,3.831-8.359,8.357-9.755
		c3.468-1.034,5.198-2.095,5.198-4.166c0-2.433-1.395-3.132-3.828-3.132h-26.058c-3.49,0-4.887,0.696-4.887,3.468
		c0,1.731,1.396,3.13,4.524,3.491c3.833,0.339,6.597,1.732,6.597,4.867c0,2.433-0.336,4.502-2.067,8.691l-17.031,42.75
		L1122.193,132.611z M949.763,180.558c0,6.623-1.373,9.394-7.632,9.755c-4.501,0.341-6.264,1.73-6.264,4.865
		c0,2.765,1.762,4.528,6.264,4.528h29.886c4.526,0,6.264-1.764,6.264-4.528c0-3.135-1.735-4.524-6.264-4.865
		c-6.238-0.361-7.635-3.132-7.635-9.755V87.407h1.034l35.118,69.19c3.829,7.632,6.263,9.372,8.691,9.372
		c2.095,0,4.865-2.071,8.333-9.372l35.113-72.655h0.697v96.619c0,6.626-1.372,9.394-7.637,9.752
		c-4.188,0.344-6.263,1.733-6.263,4.868c0,2.768,2.074,4.525,6.263,4.525h38.922c4.529,0,6.263-1.758,6.263-4.525
		c0-3.135-1.733-4.524-6.263-4.868c-6.239-0.358-7.634-3.126-7.634-9.752V73.149c0-6.602,1.395-9.393,7.634-9.728
		c4.529-0.339,6.263-1.733,6.263-4.865c0-2.795-1.733-4.531-6.263-4.531h-21.891c-7.664,0-8.337,1.061-10.428,5.23l-38.245,77.523
		L972.71,59.93c-2.77-5.201-3.469-5.905-10.069-5.905h-20.518c-4.503,0-6.263,1.732-6.263,4.531c0,3.132,1.759,4.526,6.263,4.865
		c6.258,0.334,7.633,3.13,7.633,9.728v107.409H949.763z M1246.653,147.204c9.388-5.927,12.52-9.031,12.52-13.92
		c0-8.33-10.789-25.358-35.471-25.358c-28.829,0-45.182,21.194-45.182,49.367c0,28.157,19.46,45.186,45.182,45.186
		c23.284,0,37.904-15.653,37.904-20.854c0-2.436-1.758-3.831-3.828-3.831c-2.435,0-5.226,2.43-9.034,5.927
		c-5.924,5.196-12.859,7.963-20.877,7.963c-18.397,0-27.797-13.898-27.797-35.783c0-22.95,7.994-37.544,22.229-37.544
		c9.053,0,15.315,7.299,15.315,14.933c0,5.229-0.693,6.96-7.3,10.789l-17.746,11.129c-3.804,2.433-5.202,4.503-5.202,7.298
		c0,2.096,2.095,4.862,4.866,4.862c2.765,0,4.497-1.037,8.351-3.467L1246.653,147.204z M1375.975,179.88
		c0,6.938-4.526,12.163-13.22,12.163c-9.031,0-16.33-3.825-20.499-10.424c-4.161-6.604-5.228-7.997-8.358-7.997
		c-2.764,0-4.165,2.43-4.165,5.199c0,2.096,1.396,7.301,2.791,17.047c0.677,4.865,2.074,6.602,4.87,6.602
		c3.468,0,3.804-3.47,7.632-3.47s7.997,3.47,19.481,3.47c13.899,0,30.923-8.332,30.923-26.777c0-28.851-43.801-33.02-43.801-48.653
		c0-5.226,4.166-9.39,11.486-9.39c6.596,0,12.856,2.769,17.722,9.033c2.767,3.468,4.169,6.959,7.656,6.959
		c2.432,0,3.812-1.401,3.812-4.165c0-1.759-0.7-5.564-2.771-15.296c-1.396-4.889-2.094-6.625-4.865-6.625
		c-1.396,0-2.434,0.699-3.468,1.733c-0.721,0.7-1.397,1.756-3.151,1.756c-2.074,0-3.469-0.698-5.563-1.395
		c-3.107-1.037-7.3-1.733-11.801-1.733c-19.817,0-28.514,11.126-28.514,23.289C1332.166,156.597,1375.975,161.8,1375.975,179.88
		 M1276.204,184.748c0,5.564-2.074,6.602-5.233,6.936l-3.125,0.362c-2.409,0.341-3.468,1.733-3.468,3.828
		c0,2.074,1.395,3.832,4.859,3.832h33.379c3.489,0,4.862-1.758,4.862-3.832c0-2.095-1.034-3.487-3.469-3.828l-3.132-0.362
		c-3.13-0.334-5.226-1.371-5.226-6.936v-37.906c0-16.326,5.226-22.587,12.862-22.587c2.456,0,4.189,0.7,5.921,1.733
		c2.094,1.396,3.468,2.457,5.201,2.457c2.098,0,3.828-2.095,5.927-4.528c3.132-3.832,4.165-5.925,4.165-7.319
		c0-3.107-5.923-7.974-13.56-7.974c-10.063,0-15.991,5.563-19.817,13.899h-0.699v-8.695c0-4.526-1.734-5.902-4.169-5.902
		c-2.07,0-4.505,1.371-7.632,2.771l-14.955,6.622c-3.135,1.374-3.833,2.433-3.833,4.167c0,1.735,1.395,3.107,4.526,3.107
		c4.865,0,6.601,1.397,6.601,7.659v52.496H1276.204z M568.073,73.149c0,6.598,5.565,12.16,12.163,12.16
		c6.623,0,12.182-5.562,12.182-12.16c0-6.602-5.559-12.162-12.182-12.162C573.638,60.987,568.073,66.552,568.073,73.149
		 M837.823,184.748c0,5.564-2.074,6.602-5.201,6.936l-3.135,0.362c-2.431,0.341-3.468,1.733-3.468,3.828
		c0,2.074,1.399,3.832,4.867,3.832h33.379c3.468,0,4.867-1.758,4.867-3.832c0-2.095-1.037-3.487-3.494-3.828l-3.109-0.362
		c-3.127-0.334-5.226-1.371-5.226-6.936V57.519c0-4.527-1.733-5.925-4.166-5.925c-2.095,0-4.528,1.398-7.663,2.794l-14.931,6.599
		c-3.127,1.397-3.829,2.434-3.829,4.164c0,1.759,1.376,3.132,4.503,3.132c4.888,0,6.6,1.4,6.6,7.658v108.806H837.823z
		 M571.206,184.748c0,5.564-2.095,6.602-5.2,6.936l-3.16,0.362c-2.405,0.341-3.466,1.733-3.466,3.828
		c0,2.074,1.399,3.832,4.867,3.832h33.377c3.468,0,4.869-1.758,4.869-3.832c0-2.095-1.037-3.487-3.47-3.828l-3.135-0.362
		c-3.127-0.334-5.226-1.371-5.226-6.936v-70.924c0-4.526-1.735-5.901-4.164-5.901c-2.074,0-4.528,1.372-7.637,2.77l-14.953,6.622
		c-3.129,1.373-3.83,2.433-3.83,4.169c0,1.735,1.396,3.106,4.528,3.106c4.864,0,6.6,1.399,6.6,7.658V184.748L571.206,184.748z
		 M708.165,126.347c0-4.861,1.057-6.264,5.558-6.264h8.358c3.469,0,4.868-1.731,4.868-4.525c0-3.469-1.733-4.86-5.227-4.86h-13.557
		V75.247c0-2.433-1.037-3.832-3.111-3.832c-1.394,0-2.79,1.058-4.526,1.733l-9.032,4.527c-2.095,1.037-2.795,2.071-2.795,4.862
		v28.154h-8.695c-3.468,0-5.2,1.396-5.2,4.862c0,2.793,1.373,4.525,4.864,4.525h3.468c4.528,0,5.563,1.399,5.563,6.264v54.934
		c0,13.194,3.47,21.191,18.762,21.191c12.185,0,22.25-6.261,22.25-10.792c0-2.408-1.375-4.497-3.827-4.497
		c-3.469,0-6.238,3.467-11.463,3.467c-3.833,0-6.264-2.43-6.264-9.73v-54.57H708.165z M748.163,155.535
		c0-22.59,9.706-37.184,25.717-37.184c16.689,0,26.061,14.594,26.061,37.184c0,22.25-9.369,36.508-26.061,36.508
		C757.869,192.043,748.163,177.785,748.163,155.535 M500.641,184.748c0,5.564-2.09,6.602-5.226,6.936l-3.127,0.362
		c-2.436,0.341-3.469,1.733-3.469,3.828c0,2.074,1.396,3.832,4.86,3.832h33.382c3.468,0,4.861-1.758,4.861-3.832
		c0-2.095-1.06-3.487-3.47-3.828l-3.129-0.362c-3.135-0.334-5.23-1.371-5.23-6.936v-37.906c0-16.326,5.23-22.587,12.859-22.587
		c2.433,0,4.166,0.7,5.927,1.733c2.069,1.396,3.47,2.457,5.201,2.457c2.091,0,3.827-2.095,5.9-4.528
		c3.129-3.832,4.186-5.925,4.186-7.319c0-3.107-5.922-7.974-13.554-7.974c-10.089,0-15.992,5.563-19.818,13.899h-0.701v-8.695
		c0-4.526-1.731-5.902-4.166-5.902c-2.092,0-4.528,1.371-7.657,2.771l-14.958,6.622c-3.106,1.374-3.806,2.433-3.806,4.167
		c0,1.735,1.4,3.107,4.528,3.107c4.838,0,6.597,1.397,6.597,7.659v52.496H500.641z M408.865,80.448
		c0-14.235,5.563-19.101,19.459-19.101c17.723,0,25.383,11.801,25.383,27.096c0,17.748-11.823,24.682-25.383,25.743l-4.868,0.337
		c-3.827,0.337-6.263,1.733-6.263,5.562c0,3.471,2.437,5.565,6.602,5.565h4.888c20.855,0,30.25,14.598,30.25,33.02
		c0,15.991-9.395,32.679-30.25,32.679c-17.39,0-19.818-6.264-19.818-20.157V80.448L408.865,80.448z M385.915,171.526
		c0,8.694-0.7,9.756-5.202,10.427c-3.494,0.697-4.864,2.096-4.864,4.531c0,8.693,25.719,15.991,51.78,15.991
		c38.603,0,56.331-20.16,56.331-46.241c0-20.16-11.487-34.751-36.147-37.544v-0.703c18.422-3.466,29.549-15.99,29.549-31.28
		c0-24.328-19.124-36.488-49.03-36.488c-27.455,0-52.14,9.707-52.14,16.328c0,2.095,1.034,3.132,4.529,3.828
		c4.168,0.7,5.201,1.732,5.201,7.301v93.85H385.915z M726.587,155.535c0,28.854,19.122,46.94,47.298,46.94
		c28.151,0,47.611-18.086,47.611-46.94c0-29.188-19.459-47.612-47.611-47.612C745.705,107.923,726.587,126.347,726.587,155.535
		 M652.893,179.88c0,6.938-4.506,12.163-13.223,12.163c-9.03,0-16.331-3.825-20.496-10.424c-4.165-6.604-5.226-7.997-8.332-7.997
		c-2.792,0-4.188,2.43-4.188,5.199c0,2.096,1.397,7.301,2.793,17.047c0.696,4.865,2.074,6.602,4.864,6.602
		c3.468,0,3.827-3.47,7.66-3.47c3.804,0,7.996,3.47,19.459,3.47c13.896,0,30.944-8.332,30.944-26.777
		c0-28.851-43.804-33.02-43.804-48.653c0-5.226,4.168-9.39,11.463-9.39c6.597,0,12.859,2.769,17.749,9.033
		c2.764,3.468,4.163,6.959,7.632,6.959c2.431,0,3.832-1.401,3.832-4.165c0-1.759-0.699-5.564-2.794-15.296
		c-1.399-4.889-2.095-6.625-4.869-6.625c-1.396,0-2.433,0.699-3.469,1.733c-0.695,0.7-1.393,1.756-3.127,1.756
		c-2.094,0-3.492-0.698-5.563-1.395c-3.132-1.037-7.299-1.733-11.826-1.733c-19.817,0-28.489,11.126-28.489,23.289
		C609.109,156.597,652.893,161.8,652.893,179.88 M103.638,258.444c-5.559,0-9.728,0.362-13.894,1.034v-0.672
		c2.769-1.424,7.299-2.798,11.101-5.228l44.17-25.722l44.142,25.722c3.831,2.43,8.357,3.804,11.127,5.228v0.672
		c-4.169-0.672-8.333-1.034-13.896-1.034H103.638z M75.822,264h138.359l-69.165-119.932L75.822,264z M154.406,130.852h138.354
		L223.57,10.92L154.406,130.852z M182.199,125.31c-5.565,0-9.73,0.337-13.899,1.037v-0.696c2.769-1.396,7.295-2.795,11.127-5.226
		l44.141-25.717l44.146,25.717c3.827,2.431,8.357,3.827,11.127,5.226v0.696c-4.165-0.696-8.334-1.037-13.896-1.037H182.199z
		 M-2.733,130.852H135.62L66.432,10.92L-2.733,130.852z M25.083,125.31c-5.563,0-9.728,0.337-13.921,1.037v-0.696
		c2.794-1.396,7.3-2.795,11.13-5.226l44.143-25.717l44.167,25.717c3.827,2.431,8.332,3.827,11.127,5.226v0.696
		c-4.191-0.696-8.358-1.037-13.922-1.037H25.083z M264.946,146.167c5.563,0,9.729-0.362,13.896-1.056v0.693
		c-2.769,1.399-7.3,2.771-11.127,5.233l-44.146,25.719l-44.141-25.719c-3.832-2.46-8.357-3.828-11.127-5.233v-0.693
		c4.167,0.693,8.332,1.056,13.9,1.056H264.946z M107.803,146.167c5.564,0,9.731-0.362,13.921-1.056v0.693
		c-2.794,1.399-7.299,2.771-11.125,5.233l-44.167,25.719L22.29,151.038c-3.831-2.46-8.337-3.828-11.131-5.233v-0.693
		c4.193,0.693,8.358,1.056,13.92,1.056H107.803z M186.388,13.015c5.563,0,9.728-0.361,13.896-1.035v0.674
		c-2.766,1.397-7.296,2.794-11.127,5.227l-44.142,25.719l-44.17-25.719c-3.802-2.433-8.329-3.829-11.101-5.227V11.98
		c4.164,0.674,8.332,1.035,13.894,1.035H186.388z M270.51,155.897c4.865-2.795,7.996-4.868,11.461-6.961l0.362,0.7
		c-2.095,2.767-4.527,5.562-7.321,10.424l-43.447,74.732c-2.431,4.19-4.163,8.356-5.2,11.485l-0.697-0.359
		c0-4.169,0.697-9.03,0.697-13.537v-50.429L270.51,155.897z M220.777,181.953v50.429c0,4.507,0.699,9.368,0.699,13.537l-0.699,0.359
		c-1.037-3.129-2.769-7.295-5.202-11.485l-43.446-74.732c-2.793-4.862-5.227-7.654-7.321-10.424l0.363-0.7
		c3.468,2.093,6.596,4.166,11.462,6.961L220.777,181.953z M223.57,260.539l69.191-119.934H154.406L223.57,260.539z M63.661,181.953
		v50.429c0,4.507,0.701,9.368,0.701,13.537l-0.701,0.359c-1.032-3.129-2.793-7.295-5.2-11.485L14.99,160.061
		c-2.794-4.862-5.201-7.654-7.299-10.424l0.34-0.7c3.491,2.093,6.596,4.166,11.487,6.961L63.661,181.953z M113.368,155.897
		c4.868-2.795,7.996-4.868,11.464-6.961l0.363,0.7c-2.095,2.767-4.528,5.562-7.301,10.424l-43.467,74.732
		c-2.407,4.19-4.164,8.356-5.201,11.485l-0.695-0.359c0-4.169,0.695-9.03,0.695-13.537v-50.429L113.368,155.897z M66.432,260.539
		l69.188-119.934H-2.733L66.432,260.539z M98.076,248.714c-4.864,2.767-7.996,4.865-11.463,6.936l-0.359-0.672
		c2.091-2.788,4.526-5.562,7.294-10.427l43.472-74.754c2.433-4.166,4.165-8.329,5.202-11.467l0.695,0.344
		c0,4.162-0.695,9.027-0.695,13.556v50.406L98.076,248.714z M147.784,222.633v-50.403c0-4.531-0.674-9.394-0.674-13.559l0.674-0.341
		c1.058,3.132,2.792,7.301,5.226,11.464l43.447,74.751c2.793,4.868,5.224,7.636,7.295,10.427l-0.337,0.678
		c-3.49-2.073-6.625-4.169-11.464-6.938L147.784,222.633z M19.521,115.558c-4.89,2.793-7.995,4.867-11.486,6.962l-0.34-0.701
		c2.094-2.766,4.505-5.562,7.299-10.427l43.468-74.728c2.407-4.186,4.168-8.355,5.2-11.486l0.701,0.362
		c0,4.165-0.701,9.029-0.701,13.561v50.404L19.521,115.558z M226.365,89.505V39.096c0-4.529-0.697-9.393-0.697-13.558l0.697-0.363
		c1.037,3.131,2.77,7.3,5.2,11.486l43.447,74.729c2.793,4.863,5.226,7.657,7.321,10.427l-0.362,0.699
		c-3.47-2.094-6.596-4.167-11.461-6.96L226.365,89.505z M69.226,89.505V39.096c0-4.529-0.695-9.393-0.695-13.558l0.695-0.363
		c1.037,3.131,2.794,7.3,5.201,11.486l43.467,74.729c2.77,4.863,5.203,7.657,7.301,10.427l-0.363,0.699
		c-3.468-2.094-6.596-4.167-11.464-6.96L69.226,89.505z M176.634,115.558c-4.863,2.793-7.995,4.867-11.462,6.962l-0.363-0.701
		c2.094-2.766,4.528-5.562,7.321-10.427l43.446-74.728c2.433-4.186,4.168-8.355,5.202-11.486l0.699,0.362
		c0,4.165-0.699,9.029-0.699,13.561v50.404L176.634,115.558z M142.222,48.825v50.408c0,4.5,0.695,9.392,0.695,13.556l-0.695,0.337
		c-1.037-3.132-2.77-7.301-5.202-11.463L93.548,26.911c-2.765-4.864-5.2-7.633-7.294-10.426l0.359-0.675
		c3.468,2.071,6.6,4.165,11.463,6.938L142.222,48.825z M191.951,22.748c4.839-2.77,7.975-4.868,11.464-6.938l0.337,0.675
		c-2.071,2.793-4.502,5.559-7.295,10.426l-43.447,74.754c-2.434,4.163-4.168,8.332-5.226,11.464l-0.674-0.337
		c0-4.167,0.674-9.054,0.674-13.556V48.825L191.951,22.748z M145.016,127.384L214.181,7.452H75.822L145.016,127.384z"/>
</g>
</svg>
