<svg version="1" xmlns="http://www.w3.org/2000/svg" width="1984" height="264"><path fill="#0063A2" d="M1755.932 73.149c0 6.598 5.555 12.16 12.161 12.16 6.621 0 12.183-5.562 12.183-12.16 0-6.602-5.562-12.162-12.183-12.162-6.607 0-12.161 5.565-12.161 12.162m167.201-15.63c0-4.527-1.73-5.925-4.161-5.925-2.074 0-4.505 1.398-7.637 2.794l-14.95 6.599c-3.132 1.397-3.833 2.434-3.833 4.164 0 1.759 1.395 3.132 4.526 3.132 4.869 0 6.6 1.4 6.6 7.658v103.245c0 4.862-1.401 5.899-5.563 6.264-3.125.332-4.505 1.73-4.505 4.166 0 7.295 25.031 12.859 43.443 12.859 30.588 0 46.946-19.464 46.946-50.069 0-21.191-7.994-44.483-35.814-44.483-10.789 0-20.856 4.865-20.856 9.396 0 1.73 1.373 3.469 3.468 3.469 3.468 0 5.563-3.132 12.856-3.132 11.468 0 18.77 12.158 18.77 34.075 0 27.814-8.338 39.618-23.269 39.618-10.788 0-16.014-3.831-16.014-17.391v-116.439h-.007zm-399.411 108.112c0 13.556-8.688 24.32-25.384 24.32-12.519 0-22.95-6.24-29.542-14.259-5.929-6.936-5.563-10.067-11.133-10.067-3.468 0-5.205 2.794-5.205 5.562 0 2.436 1.044 7.635 5.205 23.647 1.73 6.574 2.773 8.67 6.263 8.67 5.563 0 4.87-5.562 10.068-5.562 5.562 0 9.752 4.527 27.141 4.527 30.923 0 45.517-18.427 45.517-40.314 0-19.479-10.769-32.345-37.552-50.766-25.719-17.723-28.486-21.217-28.486-31.287 0-10.089 7.994-16.687 20.521-16.687 9.367 0 18.762 4.165 25.023 10.789 5.2 5.539 6.601 11.465 11.456 11.465 3.139 0 4.868-1.399 4.868-4.528 0-3.127-2.073-9.728-4.868-23.986-1.036-5.2-2.087-7.3-5.557-7.3-4.167 0-5.562 4.168-10.432 4.168-4.167 0-10.761-3.131-22.257-3.131-26.412 0-41.706 12.184-41.706 32.678 0 18.423 8.694 26.78 30.588 42.072 20.521 14.264 35.472 22.933 35.472 39.989m93.156 61.53c0 5.562-2.101 6.595-5.205 6.96l-3.131.335c-2.438.337-3.497 1.729-3.497 3.825 0 2.073 1.402 3.831 4.87 3.831h33.375c3.468 0 4.87-1.758 4.87-3.831 0-2.086-1.045-3.488-3.468-3.825l-3.14-.335c-3.132-.365-5.198-1.398-5.198-6.96v-107.409c0-7.663 1.73-9.755 1.73-12.524 0-2.431-1.395-4.193-4.161-4.193-4.533 0-7.321 4.528-10.797 10.789-5.562-3.126-13.22-5.901-24.681-5.901-30.581 0-44.144 20.857-44.144 49.708 0 29.185 16.688 44.839 37.88 44.839 9.059 0 20.185-3.828 20.185-10.09 0-2.433-2.095-3.81-4.169-3.81-3.153 0-4.19 2.773-11.825 2.773-13.915 0-20.514-10.068-20.514-33.716 0-22.256 6.956-38.582 23.287-38.582 12.52 0 17.725 5.902 17.725 20.157v87.958h.008zm142.185-42.413c0 5.564-2.075 6.602-5.228 6.936l-3.11.362c-2.438.341-3.468 1.733-3.468 3.828 0 2.074 1.366 3.832 4.834 3.832h33.384c3.495 0 4.86-1.758 4.86-3.832 0-2.095-1.037-3.487-3.468-3.828l-3.131-.362c-3.132-.334-5.227-1.371-5.227-6.936v-70.924c0-4.526-1.73-5.901-4.168-5.901-2.073 0-4.498 1.372-7.63 2.77l-14.958 6.622c-3.131 1.373-3.831 2.433-3.831 4.169 0 1.735 1.399 3.106 4.532 3.106 4.862 0 6.6 1.399 6.6 7.658v52.5h.009zm-21.557 14.958c3.489 0 4.862-1.764 4.862-3.832 0-2.095-1.037-3.487-3.468-3.831l-3.133-.359c-3.124-.334-5.205-1.371-5.205-6.938v-70.921c0-4.526-1.758-5.901-4.183-5.901-2.074 0-4.505 1.372-7.636 2.77l-14.951 6.622c-3.131 1.373-3.832 2.433-3.832 4.169 0 1.735 1.4 3.106 4.533 3.106 4.861 0 6.592 1.399 6.592 7.658v34.077c0 17.028-7.293 23.292-18.418 23.292-10.096 0-15.658-3.494-15.658-20.854v-54.939c0-4.526-1.73-5.901-4.161-5.901-2.074 0-4.505 1.372-7.63 2.77l-14.957 6.622c-3.132 1.373-3.833 2.433-3.833 4.169 0 1.735 1.401 3.106 4.534 3.106 4.861 0 6.598 1.399 6.598 7.658v41.377c0 20.154 10.09 27.793 28.15 27.793 12.163 0 22.608-4.507 26.42-10.068l.7.334v5.228c0 1.733 1.058 2.795 3.825 2.795h20.851v-.002zm88.652-142.187c0-4.527-1.738-5.925-4.176-5.925-2.089 0-4.525 1.398-7.658 2.794l-14.93 6.599c-3.131 1.397-3.831 2.434-3.831 4.164 0 1.759 1.372 3.132 4.526 3.132 4.847 0 6.605 1.4 6.605 7.658v103.245c0 4.862-1.401 5.899-5.563 6.264-3.139.332-4.525 1.73-4.525 4.166 0 7.295 25.017 12.859 43.436 12.859 30.617 0 46.947-19.464 46.947-50.069 0-21.191-8.002-44.483-35.822-44.483-10.761 0-20.849 4.865-20.849 9.396 0 1.73 1.394 3.469 3.495 3.469 3.468 0 5.556-3.132 12.856-3.132 11.462 0 18.756 12.158 18.756 34.075 0 27.814-8.332 39.618-23.282 39.618-10.768 0-15.994-3.831-15.994-17.391v-116.439h.009zm-901.055 104.281c3.803 0 4.861-1.037 4.861-4.166v-5.902c0-3.156-1.058-4.19-4.861-4.19h-42.77c-3.833 0-4.87 1.034-4.87 4.19v5.902c0 3.132 1.037 4.166 4.87 4.166h42.77zm197.09-29.189c-1.73-3.829-3.468-7.657-3.468-10.091 0-2.768 2.07-4.168 4.862-4.532 3.468-.334 4.525-1.73 4.525-3.466 0-2.092-2.095-3.132-5.563-3.132h-31.28c-3.473 0-5.228.696-5.228 3.468 0 1.396.698 2.796 3.129 3.13 4.865.7 7.997 3.496 11.829 11.823l30.245 67.101c-7.297 13.197-17.389 29.213-23.288 37.882-1.401 2.096-3.132 3.831-3.132 5.562 0 1.758 1.373 1.758 3.132 1.758h11.462c2.771 0 4.865-.362 6.263-3.831 1.733-4.859 6.243-15.985 15.63-38.938l28.515-70.901c2.794-6.626 3.831-8.359 8.357-9.755 3.468-1.034 5.198-2.095 5.198-4.166 0-2.433-1.395-3.132-3.828-3.132h-26.058c-3.49 0-4.887.696-4.887 3.468 0 1.731 1.396 3.13 4.524 3.491 3.833.339 6.597 1.732 6.597 4.867 0 2.433-.336 4.502-2.067 8.691l-17.031 42.75-18.438-42.047zm-172.43 47.947c0 6.623-1.373 9.394-7.632 9.755-4.501.341-6.264 1.73-6.264 4.865 0 2.765 1.762 4.528 6.264 4.528h29.886c4.526 0 6.264-1.764 6.264-4.528 0-3.135-1.735-4.524-6.264-4.865-6.238-.361-7.635-3.132-7.635-9.755v-93.151h1.034l35.118 69.19c3.829 7.632 6.263 9.372 8.691 9.372 2.095 0 4.865-2.071 8.333-9.372l35.113-72.655h.697v96.619c0 6.626-1.372 9.394-7.637 9.752-4.188.344-6.263 1.733-6.263 4.868 0 2.768 2.074 4.525 6.263 4.525h38.922c4.529 0 6.263-1.758 6.263-4.525 0-3.135-1.733-4.524-6.263-4.868-6.239-.358-7.634-3.126-7.634-9.752v-107.412c0-6.602 1.395-9.393 7.634-9.728 4.529-.339 6.263-1.733 6.263-4.865 0-2.795-1.733-4.531-6.263-4.531h-21.891c-7.664 0-8.337 1.061-10.428 5.23l-38.245 77.523-41.379-76.848c-2.77-5.201-3.469-5.905-10.069-5.905h-20.518c-4.503 0-6.263 1.732-6.263 4.531 0 3.132 1.759 4.526 6.263 4.865 6.258.334 7.633 3.13 7.633 9.728v107.409h.007zm296.89-33.354c9.388-5.927 12.52-9.031 12.52-13.92 0-8.33-10.789-25.358-35.471-25.358-28.829 0-45.182 21.194-45.182 49.367 0 28.157 19.46 45.186 45.182 45.186 23.284 0 37.904-15.653 37.904-20.854 0-2.436-1.758-3.831-3.828-3.831-2.435 0-5.226 2.43-9.034 5.927-5.924 5.196-12.859 7.963-20.877 7.963-18.397 0-27.797-13.898-27.797-35.783 0-22.95 7.994-37.544 22.229-37.544 9.053 0 15.315 7.299 15.315 14.933 0 5.229-.693 6.96-7.3 10.789l-17.746 11.129c-3.804 2.433-5.202 4.503-5.202 7.298 0 2.096 2.095 4.862 4.866 4.862 2.765 0 4.497-1.037 8.351-3.467l26.07-16.697zm129.322 32.676c0 6.938-4.526 12.163-13.22 12.163-9.031 0-16.33-3.825-20.499-10.424-4.161-6.604-5.228-7.997-8.358-7.997-2.764 0-4.165 2.43-4.165 5.199 0 2.096 1.396 7.301 2.791 17.047.677 4.865 2.074 6.602 4.87 6.602 3.468 0 3.804-3.47 7.632-3.47s7.997 3.47 19.481 3.47c13.899 0 30.923-8.332 30.923-26.777 0-28.851-43.801-33.02-43.801-48.653 0-5.226 4.166-9.39 11.486-9.39 6.596 0 12.856 2.769 17.722 9.033 2.767 3.468 4.169 6.959 7.656 6.959 2.432 0 3.812-1.401 3.812-4.165 0-1.759-.7-5.564-2.771-15.296-1.396-4.889-2.094-6.625-4.865-6.625-1.396 0-2.434.699-3.468 1.733-.721.7-1.397 1.756-3.151 1.756-2.074 0-3.469-.698-5.563-1.395-3.107-1.037-7.3-1.733-11.801-1.733-19.817 0-28.514 11.126-28.514 23.289-.006 25.391 43.803 30.594 43.803 48.674m-99.771 4.868c0 5.564-2.074 6.602-5.233 6.936l-3.125.362c-2.409.341-3.468 1.733-3.468 3.828 0 2.074 1.395 3.832 4.859 3.832h33.379c3.489 0 4.862-1.758 4.862-3.832 0-2.095-1.034-3.487-3.469-3.828l-3.132-.362c-3.13-.334-5.226-1.371-5.226-6.936v-37.906c0-16.326 5.226-22.587 12.862-22.587 2.456 0 4.189.7 5.921 1.733 2.094 1.396 3.468 2.457 5.201 2.457 2.098 0 3.828-2.095 5.927-4.528 3.132-3.832 4.165-5.925 4.165-7.319 0-3.107-5.923-7.974-13.56-7.974-10.063 0-15.991 5.563-19.817 13.899h-.699v-8.695c0-4.526-1.734-5.902-4.169-5.902-2.07 0-4.505 1.371-7.632 2.771l-14.955 6.622c-3.135 1.374-3.833 2.433-3.833 4.167 0 1.735 1.395 3.107 4.526 3.107 4.865 0 6.601 1.397 6.601 7.659v52.496h.015zm-708.131-111.599c0 6.598 5.565 12.16 12.163 12.16 6.623 0 12.182-5.562 12.182-12.16 0-6.602-5.559-12.162-12.182-12.162-6.598 0-12.163 5.565-12.163 12.162m269.75 111.599c0 5.564-2.074 6.602-5.201 6.936l-3.135.362c-2.431.341-3.468 1.733-3.468 3.828 0 2.074 1.399 3.832 4.867 3.832h33.379c3.468 0 4.867-1.758 4.867-3.832 0-2.095-1.037-3.487-3.494-3.828l-3.109-.362c-3.127-.334-5.226-1.371-5.226-6.936v-127.229c0-4.527-1.733-5.925-4.166-5.925-2.095 0-4.528 1.398-7.663 2.794l-14.931 6.599c-3.127 1.397-3.829 2.434-3.829 4.164 0 1.759 1.376 3.132 4.503 3.132 4.888 0 6.6 1.4 6.6 7.658v108.806h.006zm-266.617 0c0 5.564-2.095 6.602-5.2 6.936l-3.16.362c-2.405.341-3.466 1.733-3.466 3.828 0 2.074 1.399 3.832 4.867 3.832h33.377c3.468 0 4.869-1.758 4.869-3.832 0-2.095-1.037-3.487-3.47-3.828l-3.135-.362c-3.127-.334-5.226-1.371-5.226-6.936v-70.924c0-4.526-1.735-5.901-4.164-5.901-2.074 0-4.528 1.372-7.637 2.77l-14.953 6.622c-3.129 1.373-3.83 2.433-3.83 4.169 0 1.735 1.396 3.106 4.528 3.106 4.864 0 6.6 1.399 6.6 7.658v52.5zm136.959-58.401c0-4.861 1.057-6.264 5.558-6.264h8.358c3.469 0 4.868-1.731 4.868-4.525 0-3.469-1.733-4.86-5.227-4.86h-13.557v-35.451c0-2.433-1.037-3.832-3.111-3.832-1.394 0-2.79 1.058-4.526 1.733l-9.032 4.527c-2.095 1.037-2.795 2.071-2.795 4.862v28.154h-8.695c-3.468 0-5.2 1.396-5.2 4.862 0 2.793 1.373 4.525 4.864 4.525h3.468c4.528 0 5.563 1.399 5.563 6.264v54.934c0 13.194 3.47 21.191 18.762 21.191 12.185 0 22.25-6.261 22.25-10.792 0-2.408-1.375-4.497-3.827-4.497-3.469 0-6.238 3.467-11.463 3.467-3.833 0-6.264-2.43-6.264-9.73v-54.57h.006zm39.998 29.188c0-22.59 9.706-37.184 25.717-37.184 16.689 0 26.061 14.594 26.061 37.184 0 22.25-9.369 36.508-26.061 36.508-16.011 0-25.717-14.258-25.717-36.508m-247.522 29.213c0 5.564-2.09 6.602-5.226 6.936l-3.127.362c-2.436.341-3.469 1.733-3.469 3.828 0 2.074 1.396 3.832 4.86 3.832h33.382c3.468 0 4.861-1.758 4.861-3.832 0-2.095-1.06-3.487-3.47-3.828l-3.129-.362c-3.135-.334-5.23-1.371-5.23-6.936v-37.906c0-16.326 5.23-22.587 12.859-22.587 2.433 0 4.166.7 5.927 1.733 2.069 1.396 3.47 2.457 5.201 2.457 2.091 0 3.827-2.095 5.9-4.528 3.129-3.832 4.186-5.925 4.186-7.319 0-3.107-5.922-7.974-13.554-7.974-10.089 0-15.992 5.563-19.818 13.899h-.701v-8.695c0-4.526-1.731-5.902-4.166-5.902-2.092 0-4.528 1.371-7.657 2.771l-14.958 6.622c-3.106 1.374-3.806 2.433-3.806 4.167 0 1.735 1.4 3.107 4.528 3.107 4.838 0 6.597 1.397 6.597 7.659v52.496h.01zm-91.776-104.3c0-14.235 5.563-19.101 19.459-19.101 17.723 0 25.383 11.801 25.383 27.096 0 17.748-11.823 24.682-25.383 25.743l-4.868.337c-3.827.337-6.263 1.733-6.263 5.562 0 3.471 2.437 5.565 6.602 5.565h4.888c20.855 0 30.25 14.598 30.25 33.02 0 15.991-9.395 32.679-30.25 32.679-17.39 0-19.818-6.264-19.818-20.157v-90.744zm-22.95 91.078c0 8.694-.7 9.756-5.202 10.427-3.494.697-4.864 2.096-4.864 4.531 0 8.693 25.719 15.991 51.78 15.991 38.603 0 56.331-20.16 56.331-46.241 0-20.16-11.487-34.751-36.147-37.544v-.703c18.422-3.466 29.549-15.99 29.549-31.28 0-24.328-19.124-36.488-49.03-36.488-27.455 0-52.14 9.707-52.14 16.328 0 2.095 1.034 3.132 4.529 3.828 4.168.7 5.201 1.732 5.201 7.301v93.85h-.007zm340.672-15.991c0 28.854 19.122 46.94 47.298 46.94 28.151 0 47.611-18.086 47.611-46.94 0-29.188-19.459-47.612-47.611-47.612-28.18 0-47.298 18.424-47.298 47.612m-73.694 24.345c0 6.938-4.506 12.163-13.223 12.163-9.03 0-16.331-3.825-20.496-10.424-4.165-6.604-5.226-7.997-8.332-7.997-2.792 0-4.188 2.43-4.188 5.199 0 2.096 1.397 7.301 2.793 17.047.696 4.865 2.074 6.602 4.864 6.602 3.468 0 3.827-3.47 7.66-3.47 3.804 0 7.996 3.47 19.459 3.47 13.896 0 30.944-8.332 30.944-26.777 0-28.851-43.804-33.02-43.804-48.653 0-5.226 4.168-9.39 11.463-9.39 6.597 0 12.859 2.769 17.749 9.033 2.764 3.468 4.163 6.959 7.632 6.959 2.431 0 3.832-1.401 3.832-4.165 0-1.759-.699-5.564-2.794-15.296-1.399-4.889-2.095-6.625-4.869-6.625-1.396 0-2.433.699-3.469 1.733-.695.7-1.393 1.756-3.127 1.756-2.094 0-3.492-.698-5.563-1.395-3.132-1.037-7.299-1.733-11.826-1.733-19.817 0-28.489 11.126-28.489 23.289 0 25.391 43.784 30.594 43.784 48.674m-549.255 78.564c-5.559 0-9.728.362-13.894 1.034v-.672c2.769-1.424 7.299-2.798 11.101-5.228l44.17-25.722 44.142 25.722c3.831 2.43 8.357 3.804 11.127 5.228v.672c-4.169-.672-8.333-1.034-13.896-1.034h-82.75zm-27.816 5.556h138.359l-69.165-119.932-69.194 119.932zm78.584-133.148h138.354l-69.19-119.932-69.164 119.932zm27.793-5.542c-5.565 0-9.73.337-13.899 1.037v-.696c2.769-1.396 7.295-2.795 11.127-5.226l44.141-25.717 44.146 25.717c3.827 2.431 8.357 3.827 11.127 5.226v.696c-4.165-.696-8.334-1.037-13.896-1.037h-82.746zm-184.932 5.542h138.353l-69.188-119.932-69.165 119.932zm27.816-5.542c-5.563 0-9.728.337-13.921 1.037v-.696c2.794-1.396 7.3-2.795 11.13-5.226l44.143-25.717 44.167 25.717c3.827 2.431 8.332 3.827 11.127 5.226v.696c-4.191-.696-8.358-1.037-13.922-1.037h-82.724zm239.863 20.857c5.563 0 9.729-.362 13.896-1.056v.693c-2.769 1.399-7.3 2.771-11.127 5.233l-44.146 25.719-44.141-25.719c-3.832-2.46-8.357-3.828-11.127-5.233v-.693c4.167.693 8.332 1.056 13.9 1.056h82.745zm-157.143 0c5.564 0 9.731-.362 13.921-1.056v.693c-2.794 1.399-7.299 2.771-11.125 5.233l-44.167 25.719-44.142-25.718c-3.831-2.46-8.337-3.828-11.131-5.233v-.693c4.193.693 8.358 1.056 13.92 1.056h82.724zm78.585-133.152c5.563 0 9.728-.361 13.896-1.035v.674c-2.766 1.397-7.296 2.794-11.127 5.227l-44.142 25.719-44.17-25.719c-3.802-2.433-8.329-3.829-11.101-5.227v-.674c4.164.674 8.332 1.035 13.894 1.035h82.75zm84.122 142.882c4.865-2.795 7.996-4.868 11.461-6.961l.362.7c-2.095 2.767-4.527 5.562-7.321 10.424l-43.447 74.732c-2.431 4.19-4.163 8.356-5.2 11.485l-.697-.359c0-4.169.697-9.03.697-13.537v-50.429l44.145-26.055zm-49.733 26.056v50.429c0 4.507.699 9.368.699 13.537l-.699.359c-1.037-3.129-2.769-7.295-5.202-11.485l-43.446-74.732c-2.793-4.862-5.227-7.654-7.321-10.424l.363-.7c3.468 2.093 6.596 4.166 11.462 6.961l44.144 26.055zm2.793 78.586l69.191-119.934h-138.355l69.164 119.934zm-159.909-78.586v50.429c0 4.507.701 9.368.701 13.537l-.701.359c-1.032-3.129-2.793-7.295-5.2-11.485l-43.471-74.732c-2.794-4.862-5.201-7.654-7.299-10.424l.34-.7c3.491 2.093 6.596 4.166 11.487 6.961l44.143 26.055zm49.707-26.056c4.868-2.795 7.996-4.868 11.464-6.961l.363.7c-2.095 2.767-4.528 5.562-7.301 10.424l-43.467 74.732c-2.407 4.19-4.164 8.356-5.201 11.485l-.695-.359c0-4.169.695-9.03.695-13.537v-50.429l44.142-26.055zm-46.936 104.642l69.188-119.934h-138.353l69.165 119.934zm31.644-11.825c-4.864 2.767-7.996 4.865-11.463 6.936l-.359-.672c2.091-2.788 4.526-5.562 7.294-10.427l43.472-74.754c2.433-4.166 4.165-8.329 5.202-11.467l.695.344c0 4.162-.695 9.027-.695 13.556v50.406l-44.146 26.078zm49.708-26.081v-50.403c0-4.531-.674-9.394-.674-13.559l.674-.341c1.058 3.132 2.792 7.301 5.226 11.464l43.447 74.751c2.793 4.868 5.224 7.636 7.295 10.427l-.337.678c-3.49-2.073-6.625-4.169-11.464-6.938l-44.167-26.079zm-128.263-107.075c-4.89 2.793-7.995 4.867-11.486 6.962l-.34-.701c2.094-2.766 4.505-5.562 7.299-10.427l43.468-74.728c2.407-4.186 4.168-8.355 5.2-11.486l.701.362c0 4.165-.701 9.029-.701 13.561v50.404l-44.141 26.053zm206.844-26.053v-50.409c0-4.529-.697-9.393-.697-13.558l.697-.363c1.037 3.131 2.77 7.3 5.2 11.486l43.447 74.729c2.793 4.863 5.226 7.657 7.321 10.427l-.362.699c-3.47-2.094-6.596-4.167-11.461-6.96l-44.145-26.051zm-157.139 0v-50.409c0-4.529-.695-9.393-.695-13.558l.695-.363c1.037 3.131 2.794 7.3 5.201 11.486l43.467 74.729c2.77 4.863 5.203 7.657 7.301 10.427l-.363.699c-3.468-2.094-6.596-4.167-11.464-6.96l-44.142-26.051zm107.408 26.053c-4.863 2.793-7.995 4.867-11.462 6.962l-.363-.701c2.094-2.766 4.528-5.562 7.321-10.427l43.446-74.728c2.433-4.186 4.168-8.355 5.202-11.486l.699.362c0 4.165-.699 9.029-.699 13.561v50.404l-44.144 26.053zm-34.412-66.733v50.408c0 4.5.695 9.392.695 13.556l-.695.337c-1.037-3.132-2.77-7.301-5.202-11.463l-43.472-74.752c-2.765-4.864-5.2-7.633-7.294-10.426l.359-.675c3.468 2.071 6.6 4.165 11.463 6.938l44.146 26.077zm49.729-26.077c4.839-2.77 7.975-4.868 11.464-6.938l.337.675c-2.071 2.793-4.502 5.559-7.295 10.426l-43.447 74.754c-2.434 4.163-4.168 8.332-5.226 11.464l-.674-.337c0-4.167.674-9.054.674-13.556v-50.411l44.167-26.077zm-46.935 104.636l69.165-119.932h-138.359l69.194 119.932z"/></svg>