<?xml version="1.0" encoding="utf-8"?>
<!-- Generator: Adobe Illustrator 15.0.2, SVG Export Plug-In . SVG Version: 6.00 Build 0)  -->
<!DOCTYPE svg PUBLIC "-//W3C//DTD SVG 1.0//EN" "http://www.w3.org/TR/2001/REC-SVG-20010904/DTD/svg10.dtd">
<svg version="1.0" id="Layer_1" xmlns="http://www.w3.org/2000/svg" xmlns:xlink="http://www.w3.org/1999/xlink" x="0px" y="0px"
	 width="192px" height="47px" viewBox="0 0 192 47" enable-background="new 0 0 192 47" xml:space="preserve">
<path id="path6" fill="#110E0E" d="M21.931,1.037c0.65-0.062,1.303-0.068,1.957-0.058c0.547-0.035,1.092,0.028,1.637,0.064
	c3.951,0.312,7.81,1.701,11.053,3.978c3.262,2.272,5.907,5.422,7.57,9.032c1.915,4.111,2.521,8.813,1.745,13.281
	c-0.513,3.025-1.667,5.938-3.351,8.503c-1.583,2.412-3.63,4.519-6,6.164c-2.9,2.023-6.286,3.346-9.791,3.816
	c-4.491,0.627-9.167-0.143-13.212-2.195c-3.862-1.938-7.141-5.018-9.32-8.75c-2.199-3.726-3.265-8.102-3.059-12.423
	c0.104-2.163,0.508-4.313,1.226-6.356c1.42-4.111,4.076-7.78,7.523-10.432C13.348,2.99,17.584,1.357,21.931,1.037 M20.851,1.341
	c-0.209,0.097-0.45,0.073-0.667,0.146c-0.32,0.109-0.656,0.161-0.978,0.262c-0.296,0.057-0.547,0.25-0.853,0.275
	c0.021,0.01,0.065,0.03,0.087,0.04c-0.341,0-0.582,0.267-0.906,0.315c0.024,0.008,0.072,0.026,0.096,0.034
	c-0.111,0.025-0.221,0.054-0.332,0.08c0.028,0.014,0.056,0.026,0.084,0.039c-0.299,0.069-0.537,0.271-0.806,0.409
	c-0.413,0.265-0.809,0.555-1.19,0.863c-0.003,0.032-0.01,0.099-0.013,0.131c-0.034,0.002-0.104,0.005-0.138,0.007
	c-0.244,0.282-0.542,0.51-0.781,0.796c-0.004,0.028-0.014,0.085-0.019,0.113c-0.233,0.118-0.351,0.372-0.488,0.583
	c-0.299,0.332-0.491,0.742-0.699,1.134c-0.17,0.311-0.266,0.653-0.402,0.979c-0.144,0.356-0.248,0.73-0.289,1.113
	c-0.014-0.077-0.029-0.153-0.043-0.228c0.008,0.172,0.006,0.347-0.048,0.513C12.377,9.222,12.396,9.516,12.35,9.8
	c0.314,0.093,0.646,0.006,0.964,0.068c-0.317-0.022-0.634-0.003-0.952-0.026l0.001-0.011c-1.236-0.02-2.48,0-3.702,0.207
	c-1.353,0.232-2.75,0.644-3.782,1.592c-0.743,0.665-1.17,1.645-1.191,2.637c-0.045,1.441,0.504,2.818,1.166,4.072
	c0.719,1.317,1.602,2.537,2.556,3.693c1.48,1.777,3.11,3.433,4.879,4.925c0.009,3.06-0.001,6.117,0.004,9.176
	c0,0.121,0.016,0.243,0.036,0.363c0.012,0.62,0.028,1.251,0.209,1.85c0.096,0.435,0.223,0.859,0.34,1.287
	c0.012-0.031,0.024-0.063,0.036-0.094c0.049,0.303,0.158,0.6,0.336,0.854c0.032,0.084,0.068,0.166,0.117,0.244
	c0.104,0.3,0.298,0.55,0.461,0.818c0.633,0.91,1.441,1.687,2.329,2.345c0.248,0.13,0.483,0.285,0.706,0.456
	c0.437,0.212,0.873,0.426,1.326,0.602c0.184,0.105,0.384,0.181,0.596,0.202c-0.028,0.014-0.057,0.027-0.084,0.043
	c0.437,0.055,0.833,0.263,1.263,0.349c0.634,0.166,1.287,0.23,1.931,0.347c1.109,0.084,2.225,0.093,3.334,0.012
	c0.312-0.05,0.625-0.09,0.939-0.112c0.859-0.144,1.698-0.388,2.534-0.632c0.439-0.203,0.902-0.356,1.318-0.606
	c0.358-0.141,0.675-0.36,1.012-0.542c0.148-0.126,0.302-0.244,0.462-0.354c0.254-0.178,0.47-0.402,0.712-0.595
	c0.568-0.441,0.976-1.042,1.408-1.605c0.65-0.958,1.078-2.057,1.312-3.187c0.053-0.33,0.14-0.654,0.139-0.988
	c0.03-0.271,0.021-0.546,0.068-0.814c0.793,0.053,1.591,0.002,2.384-0.042c1.065-0.091,2.134-0.235,3.157-0.559
	c0.813-0.253,1.606-0.62,2.24-1.197c0.519-0.459,0.885-1.087,1.007-1.771c0.172-0.994-0.068-2.009-0.442-2.932
	c-0.589-1.438-1.487-2.722-2.436-3.942c-0.201-0.034-0.407-0.009-0.61-0.015c-3.37,0.007-6.741,0.007-10.112,0.015
	c0.537,0.76,1.121,1.558,1.223,2.512l-0.002,0.049c-0.268-0.06-0.542-0.021-0.812-0.003c-0.858-0.008-1.717-0.006-2.575,0.003
	c-0.254-0.017-0.507-0.034-0.76-0.005c-0.65,0.008-1.299,0-1.947,0.005c-1.243-0.669-2.38-1.512-3.469-2.405
	c0.015-1.816,0.002-3.633,0.007-5.449c-0.01-0.917,0.019-1.833-0.016-2.75l0.019,0.021c0.992,0.593,1.91,1.311,2.716,2.14
	c0.085,0.108,0.234,0.075,0.354,0.083c3.492-0.021,6.985,0.006,10.478-0.03c-1.34-1.324-2.78-2.55-4.315-3.642
	c0.235-0.089,0.49-0.045,0.736-0.052c1.062-0.004,2.123,0.009,3.183-0.006c0.009-1.979,0.012-3.96-0.001-5.94
	c-0.09-0.585-0.056-1.196-0.264-1.759c-0.029-0.462-0.27-0.874-0.324-1.331c-0.009,0.024-0.028,0.072-0.038,0.097
	c-0.088-0.413-0.3-0.784-0.492-1.155c-0.112-0.278-0.324-0.499-0.43-0.779c-0.204-0.22-0.385-0.459-0.572-0.693
	c-0.634-0.753-1.416-1.365-2.225-1.919c-0.332-0.159-0.662-0.322-0.981-0.505c-0.551-0.27-1.128-0.489-1.717-0.661
	c-0.355-0.107-0.72-0.174-1.068-0.302c-0.584-0.061-1.15-0.259-1.74-0.262c-1.07-0.082-2.148-0.077-3.22,0
	C21.667,1.258,21.258,1.296,20.851,1.341z"/>
<path id="path8" fill="#110E0E" d="M23.031,8.432c0.383-0.146,0.816-0.173,1.211-0.06c0.778,0.314,1.138,1.185,1.195,1.972
	c0.021,0.895-0.006,1.79,0.014,2.685c-0.326-0.092-0.621-0.26-0.932-0.388c-0.833-0.355-1.672-0.701-2.536-0.978
	c0.021-0.536-0.025-1.074,0.032-1.608c0.11-0.34,0.15-0.711,0.355-1.014c0.112-0.188,0.247-0.371,0.455-0.46
	C22.892,8.529,22.951,8.463,23.031,8.432z"/>
<path id="path10" fill="#110E0E" d="M21.985,33.505c-0.003-0.114,0.01-0.228,0.066-0.328c1.104,0.524,2.246,0.969,3.4,1.373
	c-0.013,0.432-0.006,0.864-0.007,1.296c-0.006,0.522,0.039,1.06-0.151,1.557c-0.13,0.468-0.421,0.91-0.877,1.111
	c-0.458,0.279-1.022,0.195-1.506,0.035c0.03-0.014,0.061-0.024,0.091-0.036c-0.094-0.03-0.187-0.058-0.279-0.086
	c-0.166-0.197-0.343-0.392-0.449-0.628c-0.2-0.429-0.245-0.906-0.282-1.372C21.985,35.453,21.995,34.479,21.985,33.505z"/>
<path id="path12" fill="#110E0E" d="M43.038,36.205c0.474-0.004,0.948-0.003,1.422-0.001c-0.002,0.066-0.004,0.135-0.006,0.202
	c-0.196-0.001-0.393,0-0.589,0c0.003,0.512-0.002,1.022,0.002,1.534c-0.08,0.001-0.158,0.002-0.236,0.004
	c0-0.515,0.004-1.026-0.003-1.54c-0.196,0.002-0.393,0.002-0.587,0C43.04,36.338,43.038,36.272,43.038,36.205z"/>
<path id="path14" fill="#110E0E" d="M44.671,36.202c0.113,0,0.228,0.002,0.343,0.004c0.161,0.49,0.322,0.982,0.498,1.468
	c0.172-0.487,0.334-0.978,0.496-1.469c0.112-0.001,0.226-0.003,0.339-0.003c0.003,0.579,0,1.158,0.002,1.736
	c-0.077,0.003-0.154,0.003-0.23,0.006c-0.003-0.463,0.015-0.926-0.007-1.387c-0.201,0.445-0.32,0.924-0.484,1.384
	c-0.082-0.001-0.162-0.003-0.241-0.004c-0.159-0.473-0.298-0.953-0.486-1.415c-0.004,0.474,0.001,0.947,0.001,1.422
	c-0.078-0.003-0.155-0.004-0.231-0.006C44.675,37.36,44.673,36.781,44.671,36.202z"/>
<g id="_x23_007cc2ff">
	<path id="path37" fill="#007CC2" d="M20.851,1.341c0.407-0.045,0.816-0.083,1.221-0.147c1.071-0.076,2.149-0.082,3.22,0
		c0.59,0.003,1.156,0.202,1.74,0.262c0.348,0.128,0.713,0.195,1.068,0.302c0.589,0.172,1.166,0.391,1.717,0.661
		c0.319,0.183,0.649,0.346,0.981,0.505c0.809,0.554,1.591,1.166,2.225,1.919c0.187,0.234,0.368,0.473,0.572,0.693
		c0.106,0.28,0.318,0.501,0.43,0.779c0.192,0.371,0.404,0.742,0.492,1.155c0.01-0.024,0.028-0.072,0.038-0.097
		c0.054,0.457,0.295,0.868,0.324,1.331c0.208,0.563,0.174,1.174,0.264,1.759c0.013,1.98,0.01,3.96,0.001,5.94
		c-1.061,0.016-2.122,0.002-3.183,0.006c-0.246,0.007-0.501-0.037-0.736,0.052c-0.042-0.027-0.083-0.054-0.123-0.08
		c-1.003-0.72-2.045-1.381-3.115-1.997c-0.83-0.458-1.66-0.926-2.534-1.296c0-0.014-0.001-0.045-0.001-0.06
		c-0.02-0.895,0.006-1.79-0.014-2.685c-0.058-0.787-0.417-1.658-1.195-1.972c-0.395-0.113-0.828-0.086-1.211,0.06
		c-0.08,0.031-0.139,0.097-0.205,0.149c-0.208,0.089-0.342,0.272-0.455,0.46c-0.206,0.302-0.245,0.674-0.355,1.014
		c-0.103,0.524,0.003,1.064-0.055,1.594c-0.514-0.143-1.012-0.338-1.526-0.477c-2.002-0.587-4.057-1.005-6.135-1.202
		c-0.33-0.028-0.66-0.043-0.985-0.101c-0.319-0.063-0.65,0.024-0.964-0.068c0.046-0.284,0.027-0.579,0.117-0.855
		c0.054-0.166,0.056-0.341,0.048-0.513c0.014,0.075,0.029,0.151,0.043,0.228c0.041-0.383,0.145-0.757,0.289-1.113
		c0.136-0.326,0.231-0.668,0.402-0.979c0.208-0.392,0.4-0.802,0.699-1.134c0.137-0.21,0.255-0.464,0.488-0.583
		c0.004-0.028,0.014-0.085,0.019-0.113c0.239-0.286,0.537-0.515,0.781-0.796c0.035-0.001,0.104-0.005,0.138-0.007
		c0.003-0.033,0.01-0.099,0.013-0.131c0.381-0.308,0.777-0.598,1.19-0.863c0.269-0.137,0.507-0.34,0.806-0.409
		c-0.028-0.013-0.056-0.025-0.084-0.039c0.111-0.026,0.221-0.055,0.332-0.08c-0.024-0.008-0.072-0.026-0.096-0.034
		c0.324-0.049,0.565-0.315,0.906-0.315c-0.022-0.01-0.066-0.029-0.087-0.04c0.306-0.025,0.556-0.218,0.853-0.275
		c0.322-0.101,0.658-0.153,0.978-0.262C20.4,1.414,20.641,1.438,20.851,1.341z"/>
	<path id="path39" fill="#007CC2" d="M16.617,16.647c0.619-0.159,1.267-0.125,1.896-0.058c1.237,0.159,2.385,0.691,3.46,1.3
		c0.035,0.916,0.006,1.833,0.016,2.75c-0.005,1.815,0.008,3.632-0.007,5.449c-1.701-1.444-3.215-3.101-4.593-4.853
		c-0.602-0.809-1.205-1.64-1.558-2.594c-0.135-0.425-0.262-0.907-0.072-1.335C15.909,16.953,16.261,16.739,16.617,16.647z"/>
	<path id="path41" fill="#007CC2" d="M12.344,27.071c0.276,0.099,0.471,0.322,0.696,0.498c2.726,2.221,5.732,4.097,8.926,5.564
		c0.027,0.015,0.056,0.03,0.085,0.043c-0.056,0.101-0.069,0.214-0.066,0.328c0.01,0.974,0,1.948,0.005,2.922
		c0.037,0.466,0.082,0.943,0.282,1.372c0.106,0.236,0.283,0.431,0.449,0.628c0.092,0.028,0.186,0.056,0.279,0.086
		c-0.03,0.012-0.061,0.022-0.091,0.036c0.484,0.16,1.047,0.244,1.506-0.035c0.456-0.201,0.748-0.644,0.877-1.111
		c0.19-0.497,0.145-1.034,0.151-1.557c0.001-0.432-0.006-0.864,0.007-1.296c0.517,0.141,1.021,0.33,1.536,0.479
		c2.625,0.786,5.346,1.274,8.088,1.348c0.008,0.271,0.005,0.542-0.008,0.813c0.001,0.334-0.086,0.658-0.139,0.988
		c-0.234,1.13-0.662,2.229-1.312,3.187c-0.432,0.563-0.84,1.164-1.408,1.605c-0.242,0.192-0.458,0.417-0.712,0.595
		c-0.16,0.109-0.313,0.228-0.462,0.354c-0.336,0.182-0.654,0.401-1.012,0.542c-0.417,0.25-0.879,0.403-1.318,0.606
		c-0.836,0.244-1.675,0.488-2.534,0.632c-0.314,0.022-0.627,0.063-0.939,0.112c-1.11,0.081-2.226,0.072-3.334-0.012
		c-0.644-0.116-1.296-0.181-1.931-0.347c-0.43-0.086-0.827-0.294-1.263-0.349c0.027-0.016,0.056-0.029,0.084-0.043
		c-0.212-0.021-0.412-0.097-0.596-0.202c-0.454-0.176-0.89-0.39-1.326-0.602c-0.222-0.171-0.458-0.326-0.706-0.456
		c-0.888-0.658-1.696-1.435-2.329-2.345c-0.163-0.269-0.357-0.519-0.461-0.818c-0.048-0.078-0.084-0.16-0.117-0.244
		c-0.178-0.254-0.287-0.551-0.336-0.854c-0.012,0.03-0.024,0.063-0.036,0.094c-0.117-0.428-0.244-0.853-0.34-1.287
		c-0.181-0.599-0.198-1.229-0.209-1.85C12.346,33.354,12.318,30.213,12.344,27.071z"/>
	<path id="path43" fill="#007CC2" d="M25.451,28.492c0.648-0.005,1.297,0.003,1.947-0.005c0.253-0.029,0.506-0.012,0.76,0.005
		c0.858-0.009,1.716-0.011,2.575-0.003c0.27-0.018,0.543-0.057,0.812,0.003c0.01,0.302-0.106,0.609-0.346,0.8
		c-0.38,0.292-0.876,0.365-1.342,0.392c-1.54,0.062-3.041-0.463-4.383-1.179L25.451,28.492z"/>
</g>
<g id="_x23_59b431ff">
	<path id="path46" fill="#59B431" d="M8.662,10.038c1.222-0.208,2.466-0.227,3.702-0.207l-0.001,0.011
		c0,0.326-0.091,0.646-0.079,0.973c0.002,5.381-0.006,10.761,0.005,16.142c-1.769-1.492-3.399-3.147-4.879-4.925
		c-0.954-1.156-1.837-2.376-2.556-3.693c-0.661-1.253-1.21-2.63-1.166-4.072c0.021-0.993,0.448-1.973,1.191-2.637
		C5.911,10.682,7.309,10.27,8.662,10.038z"/>
	<path id="path48" fill="#59B431" d="M21.973,17.889c0.012-2.075-0.008-4.151,0.01-6.227c0.863,0.277,1.702,0.623,2.536,0.978
		c0.311,0.128,0.606,0.296,0.932,0.388c0,0.015,0,0.046,0.001,0.06c0.012,1.102-0.012,2.204,0.012,3.305
		c1.696,0.007,3.392-0.001,5.088,0.004c0.183,0,0.367-0.005,0.549-0.016c0.041,0.026,0.082,0.053,0.123,0.08
		c1.535,1.092,2.975,2.318,4.315,3.642c-3.492,0.036-6.985,0.009-10.478,0.03c-0.12-0.008-0.269,0.025-0.354-0.083
		c-0.806-0.83-1.724-1.547-2.716-2.14L21.973,17.889z"/>
	<path id="path50" fill="#59B431" d="M30.324,25.932c3.371-0.008,6.742-0.008,10.112-0.015c0.203,0.006,0.409-0.02,0.61,0.015
		c0.948,1.221,1.846,2.505,2.436,3.942c0.375,0.923,0.615,1.938,0.442,2.932c-0.122,0.684-0.488,1.312-1.007,1.771
		c-0.634,0.577-1.428,0.944-2.24,1.197c-1.023,0.323-2.092,0.468-3.157,0.559c-0.793,0.044-1.591,0.095-2.384,0.042
		c0.033-1.094,0.007-2.188,0.016-3.282c-0.004-1.551,0.006-3.1-0.006-4.648c-1.199,0.005-2.399,0.008-3.598,0
		C31.445,27.489,30.861,26.691,30.324,25.932z"/>
	<path id="path52" fill="#59B431" d="M21.982,26.087c1.089,0.894,2.226,1.736,3.469,2.405l0.022,0.013
		c-0.046,2.013,0.002,4.029-0.022,6.045c-1.154-0.404-2.296-0.849-3.4-1.373c-0.029-0.013-0.058-0.028-0.085-0.043
		C21.995,30.786,21.962,28.437,21.982,26.087z"/>
</g>
<g id="_x23_65afe0ff">
	<path id="path55" fill="#65AFE0" d="M12.363,9.842c0.317,0.023,0.635,0.004,0.952,0.026C13.64,9.926,13.97,9.942,14.3,9.97
		c2.078,0.197,4.133,0.615,6.135,1.202c0.514,0.139,1.012,0.334,1.526,0.477c0.058-0.53-0.048-1.07,0.055-1.594
		c-0.058,0.534-0.012,1.072-0.032,1.608c-0.018,2.075,0.002,4.151-0.01,6.227c-1.075-0.609-2.223-1.141-3.46-1.3
		c-0.629-0.066-1.277-0.101-1.896,0.058c-0.356,0.092-0.708,0.306-0.858,0.658c-0.19,0.428-0.063,0.911,0.072,1.335
		c0.353,0.954,0.956,1.785,1.558,2.594c1.378,1.752,2.892,3.409,4.593,4.853c-0.02,2.35,0.013,4.699-0.016,7.047
		c-3.194-1.468-6.201-3.344-8.926-5.564c-0.225-0.176-0.42-0.399-0.696-0.498c-0.026,3.142,0.002,6.283-0.014,9.425
		c-0.02-0.12-0.036-0.242-0.036-0.363c-0.005-3.059,0.004-6.116-0.004-9.176c-0.012-5.381-0.003-10.761-0.005-16.142
		C12.271,10.488,12.362,10.168,12.363,9.842z"/>
	<path id="path57" fill="#65AFE0" d="M25.452,13.088c0.874,0.371,1.704,0.838,2.534,1.296c1.07,0.616,2.112,1.276,3.115,1.997
		c-0.183,0.011-0.367,0.016-0.549,0.016c-1.696-0.006-3.392,0.002-5.088-0.004C25.44,15.292,25.464,14.19,25.452,13.088z"/>
	<path id="path59" fill="#65AFE0" d="M31.547,28.443c1.199,0.008,2.399,0.005,3.598,0c0.012,1.549,0.002,3.098,0.006,4.648
		c-0.009,1.094,0.017,2.188-0.016,3.282c-0.047,0.269-0.038,0.544-0.068,0.814c0.013-0.271,0.016-0.542,0.008-0.813
		c-2.742-0.073-5.462-0.562-8.088-1.348c-0.516-0.148-1.02-0.338-1.536-0.479c0.024-2.016-0.024-4.032,0.022-6.045
		c1.342,0.716,2.843,1.24,4.383,1.179c0.466-0.026,0.962-0.1,1.342-0.392c0.24-0.19,0.356-0.498,0.346-0.8L31.547,28.443z"/>
</g>
<path id="path16" fill="#110E0E" d="M58.18,8.383c1.754-1.072,3.888-1.236,5.894-1.167c1.817,0.08,3.784,0.607,4.954,2.099
	c1.28,1.609,1.395,3.78,1.308,5.75c-1.167,0.033-2.337,0.002-3.505,0.016c-0.025-1.14,0.011-2.344-0.489-3.399
	c-0.419-0.898-1.417-1.3-2.328-1.494c-1.509-0.3-3.208,0.03-4.345,1.111c-0.543,0.495-0.824,1.205-1.012,1.899
	c-0.257,1.083-0.315,2.202-0.353,3.312c-0.043,2.714-0.011,5.433-0.019,8.149c0.021,1.76,0.083,3.586,0.798,5.223
	c0.412,0.971,1.258,1.758,2.3,1.992c1.089,0.221,2.278,0.282,3.319-0.179c0.83-0.359,1.483-1.059,1.867-1.87
	c0.501-1.036,0.627-2.202,0.66-3.338c1.168-0.004,2.338-0.004,3.507,0.001c0.013,1.798-0.195,3.67-1.088,5.265
	c-0.716,1.312-1.977,2.294-3.4,2.732c-1.226,0.401-2.531,0.425-3.808,0.385c-1.491-0.021-3.047-0.271-4.302-1.129
	c-1.351-0.872-2.17-2.356-2.631-3.861c-0.546-1.843-0.732-3.782-0.649-5.699c0.001-2.404,0.018-4.809-0.004-7.212
	c-0.083-1.494,0.092-2.999,0.467-4.445C55.749,10.87,56.689,9.282,58.18,8.383z"/>
<path id="path18" fill="#110E0E" d="M125.831,10.988c0.003-1.083-0.01-2.166,0.007-3.247c1.131,0.018,2.261-0.01,3.393,0.016
	c-0.009,1.079-0.003,2.155-0.005,3.233C128.095,10.994,126.962,10.997,125.831,10.988z"/>
<path id="path20" fill="#110E0E" d="M181.339,12.166c1.009-0.449,2.011-0.914,3.023-1.36c0.003,1.643,0.001,3.285,0.001,4.928
	c1.349,0.003,2.697,0.003,4.047-0.001c0.01,0.765,0.004,1.529,0.007,2.293c-1.352,0-2.702,0.002-4.054,0
	c0.002,3.88-0.004,7.761,0.002,11.641c-0.002,0.72,0.14,1.563,0.809,1.972c0.98,0.604,2.187,0.435,3.271,0.297
	c-0.017,0.778,0.036,1.556-0.012,2.332c-1.433,0.145-2.883,0.445-4.317,0.173c-0.916-0.15-1.853-0.579-2.341-1.401
	c-0.45-0.732-0.452-1.62-0.438-2.448c-0.002-4.188,0.002-8.376-0.002-12.565c-1.02,0.002-2.037-0.001-3.055,0
	c0.004-0.765-0.02-1.53,0.016-2.293c1.012,0.006,2.024,0.001,3.039,0.002C181.34,14.545,181.332,13.355,181.339,12.166z"/>
<path id="path22" fill="#110E0E" d="M115.775,15.438c1.438-0.145,3.021-0.106,4.259,0.733c1.047,0.71,1.531,1.972,1.715,3.179
	c0.191,1.331,0.134,2.681,0.146,4.021c0.002,3.647-0.003,7.298,0.002,10.946c-1.009,0.032-2.02,0.007-3.03,0.014
	c-0.002-3.423,0-6.844,0-10.267c-0.016-1.084,0.034-2.17-0.033-3.252c-0.065-0.928-0.401-1.914-1.206-2.452
	c-0.891-0.567-2.018-0.605-3.027-0.412c-0.94,0.182-1.745,0.847-2.154,1.708c-0.641,1.329-0.638,2.845-0.643,4.289
	c0.002,3.462-0.002,6.924,0.002,10.387c-1.01-0.001-2.02,0.001-3.027-0.001c-0.005-3.42-0.001-6.84-0.002-10.259
	c-0.012-2.779,0.063-5.562-0.183-8.332c1.066-0.016,2.131,0.002,3.198-0.009c0.032,0.816-0.014,1.634,0.026,2.451
	c0.362-0.287,0.508-0.751,0.822-1.082C113.39,16.128,114.562,15.549,115.775,15.438z"/>
<path id="path24" fill="#110E0E" d="M168.479,16.229c1.082-0.774,2.475-0.892,3.768-0.847c1.173,0.039,2.419,0.37,3.245,1.252
	c0.845,0.9,1.139,2.161,1.254,3.354c0.102,1.399,0.055,2.801,0.065,4.202c-0.002,3.382,0.004,6.762-0.002,10.142
	c-1.009,0-2.018,0.002-3.025-0.002c-0.002-4.274,0-8.549-0.001-12.824c-0.015-0.903-0.11-1.873-0.678-2.614
	c-0.474-0.634-1.264-0.95-2.031-1.018c-1.009-0.105-2.11,0.052-2.906,0.728c-0.775,0.667-1.133,1.683-1.298,2.664
	c-0.215,1.389-0.133,2.799-0.149,4.2c-0.005,2.956,0.011,5.912-0.007,8.868c-1.005-0.005-2.014,0-3.018-0.001
	c-0.006-3.188-0.001-6.376-0.003-9.563c-0.012-3.014,0.068-6.031-0.175-9.04c1.068,0.014,2.137-0.008,3.205,0.013
	c0.02,0.796-0.049,1.599,0.025,2.39l0.097-0.008C167.302,17.427,167.773,16.703,168.479,16.229z"/>
<path id="path26" fill="#110E0E" d="M78.798,15.533c1.668-0.261,3.426-0.237,5.037,0.317c1.314,0.442,2.388,1.465,2.958,2.721
	c0.741,1.607,0.901,3.406,0.959,5.153c0.057,2.263,0.054,4.576-0.601,6.763c-0.404,1.357-1.188,2.676-2.45,3.389
	c-1.414,0.799-3.094,0.857-4.678,0.809c-1.454-0.05-2.998-0.371-4.102-1.385c-1.242-1.137-1.765-2.824-2.03-4.436
	c-0.319-1.97-0.277-3.975-0.195-5.963c0.129-1.857,0.398-3.832,1.55-5.36C76.081,16.403,77.428,15.748,78.798,15.533 M79.497,17.978
	c-0.828,0.19-1.531,0.774-1.906,1.532c-0.652,1.296-0.742,2.784-0.778,4.209c0.012,1.615,0.008,3.241,0.267,4.841
	c0.188,1.061,0.474,2.206,1.31,2.949c0.863,0.735,2.086,0.793,3.159,0.65c0.907-0.113,1.734-0.684,2.143-1.503
	c0.687-1.346,0.773-2.893,0.867-4.372c0.043-1.909,0.171-3.859-0.326-5.724c-0.252-0.951-0.773-1.914-1.693-2.356
	C81.597,17.766,80.497,17.763,79.497,17.978z"/>
<path id="path28" fill="#110E0E" d="M93.985,16.242c1.243-0.878,2.883-1.059,4.338-0.691c0.913,0.231,1.753,0.768,2.321,1.524
	c0.245,0.309,0.415,0.667,0.646,0.984c0.009-0.772,0.003-1.546,0.003-2.317c1.008-0.014,2.016-0.007,3.024-0.004
	c0.011,6.776,0.003,13.551,0.003,20.328c0.007,1.143-0.164,2.349-0.852,3.297c-0.618,0.867-1.607,1.381-2.618,1.646
	c-1.058,0.267-2.154,0.369-3.243,0.329c-1.504,0.063-3.083-0.29-4.284-1.233c-0.945-0.734-1.483-1.917-1.504-3.106
	c0.018-0.193-0.067-0.444,0.064-0.6c1.108-0.028,2.219,0.003,3.329-0.015c0.054,0.689,0.235,1.413,0.747,1.911
	c0.692,0.706,1.761,0.861,2.704,0.737c0.906-0.1,1.791-0.601,2.225-1.421c0.487-0.859,0.398-1.881,0.407-2.83
	c-0.017-0.947,0.032-1.895-0.028-2.839c-0.528,0.846-1.257,1.588-2.194,1.969c-1.358,0.598-2.945,0.516-4.318,0.013
	c-1.257-0.479-2.208-1.555-2.715-2.782c-0.709-1.677-0.892-3.521-0.949-5.325c-0.077-2.063-0.016-4.168,0.597-6.156
	C92.101,18.334,92.825,17.049,93.985,16.242 M96.96,17.97c-0.968,0.193-1.715,0.969-2.081,1.859
	c-0.576,1.371-0.621,2.892-0.645,4.358c0.004,1.765,0.039,3.566,0.563,5.265c0.292,0.939,0.888,1.895,1.876,2.197
	c1.19,0.361,2.673,0.184,3.511-0.813c0.822-0.967,1.013-2.277,1.123-3.496c0.091-1.438,0.067-2.878,0.042-4.314
	c-0.078-1.398-0.182-2.92-1.078-4.066C99.504,17.981,98.127,17.723,96.96,17.97z"/>
<path id="path30" fill="#110E0E" d="M147.806,17.091c0.753-0.898,1.892-1.363,3.021-1.56c1.236-0.204,2.501-0.214,3.736-0.037
	c1.234,0.184,2.494,0.688,3.281,1.696c0.807,1.018,1.047,2.354,1.062,3.623c0.011,3.068-0.004,6.136,0.007,9.204
	c0.007,1.445,0.156,2.887,0.363,4.315c-1.107-0.003-2.212,0.001-3.317-0.003c-0.016-0.911,0.022-1.824-0.023-2.733
	c-0.403,0.775-0.83,1.57-1.523,2.127c-0.956,0.798-2.261,1.002-3.468,0.969c-1.211-0.024-2.487-0.358-3.358-1.244
	c-0.929-0.935-1.279-2.273-1.403-3.548c-0.099-1.179-0.106-2.403,0.307-3.526c0.327-0.902,0.954-1.685,1.753-2.217
	c1.067-0.719,2.351-1.037,3.613-1.208c1.334-0.188,2.688-0.137,4.034-0.173c0.005-1.233,0.09-2.531-0.426-3.686
	c-0.349-0.769-1.128-1.264-1.95-1.372c-1.016-0.145-2.192-0.024-2.938,0.754c-0.638,0.657-0.779,1.622-0.743,2.502
	c-1.089-0.01-2.177,0-3.267-0.004C146.621,19.604,146.889,18.154,147.806,17.091 M151.407,25.504
	c-0.888,0.277-1.698,0.911-2.009,1.81c-0.357,1.04-0.324,2.215,0.085,3.235c0.314,0.807,1.043,1.454,1.903,1.609
	c0.911,0.155,1.914,0.021,2.669-0.541c0.726-0.523,1.161-1.347,1.424-2.182c0.43-1.403,0.458-2.886,0.401-4.341
	C154.386,25.142,152.849,25.04,151.407,25.504z"/>
<path id="path32" fill="#110E0E" d="M126.022,15.732c1.003,0.004,2.009,0.002,3.012,0.001c0.027,6.2,0.009,12.398,0.007,18.598
	c-1.009,0.001-2.019,0.001-3.025,0C126.018,28.13,126.004,21.931,126.022,15.732z"/>
<path id="path34" fill="#110E0E" d="M132.207,15.733c3.697,0.007,7.394-0.009,11.089,0.008c-0.01,0.875,0.005,1.749-0.005,2.624
	c0.013,0.167-0.108,0.297-0.18,0.437c-2.678,4.351-5.352,8.703-8.024,13.055c2.82,0.005,5.642,0,8.462,0.004
	c0.004,0.824,0.002,1.646,0,2.472c-3.919-0.001-7.835,0-11.753,0c-0.002-0.821,0.003-1.644-0.002-2.463
	c0.005-0.178-0.021-0.368,0.091-0.518c2.673-4.383,5.376-8.745,8.04-13.135c-2.574-0.018-5.146-0.004-7.718-0.007
	C132.196,17.384,132.194,16.559,132.207,15.733z"/>
</svg>
