<svg version="1" xmlns="http://www.w3.org/2000/svg" width="192" height="47"><path fill="#110E0E" d="M21.931 1.037c.65-.062 1.303-.068 1.957-.058.547-.035 1.092.028 1.637.064 3.951.312 7.81 1.701 11.053 3.978 3.262 2.272 5.907 5.422 7.57 9.032 1.915 4.111 2.521 8.813 1.745 13.281-.513 3.025-1.667 5.938-3.351 8.503-1.583 2.412-3.63 4.519-6 6.164-2.9 2.023-6.286 3.346-9.791 3.816-4.491.627-9.167-.143-13.212-2.195-3.862-1.938-7.141-5.018-9.32-8.75-2.199-3.726-3.265-8.102-3.059-12.423.104-2.163.508-4.313 1.226-6.356 1.42-4.111 4.076-7.78 7.523-10.432 3.439-2.671 7.675-4.304 12.022-4.624m-1.08.304c-.209.097-.45.073-.667.146-.32.109-.656.161-.978.262-.296.057-.547.25-.853.275l.087.04c-.341 0-.582.267-.906.315l.096.034-.332.08.084.039c-.299.069-.537.271-.806.409-.413.265-.809.555-1.19.863l-.013.131-.138.007-.781.796-.019.113c-.233.118-.351.372-.488.583-.299.332-.491.742-.699 1.134-.17.311-.266.653-.402.979-.144.356-.248.73-.289 1.113l-.043-.228c.008.172.006.347-.048.513-.089.277-.07.571-.116.855.314.093.646.006.964.068l-.952-.026.001-.011c-1.236-.02-2.48 0-3.702.207-1.353.232-2.75.644-3.782 1.592-.743.665-1.17 1.645-1.191 2.637-.045 1.441.504 2.818 1.166 4.072.719 1.317 1.602 2.537 2.556 3.693 1.48 1.777 3.11 3.433 4.879 4.925.009 3.06-.001 6.117.004 9.176l.036.363c.012.62.028 1.251.209 1.85.096.435.223.859.34 1.287l.036-.094c.049.303.158.6.336.854l.117.244c.104.3.298.55.461.818.633.91 1.441 1.687 2.329 2.345.248.13.483.285.706.456.437.212.873.426 1.326.602.184.105.384.181.596.202l-.084.043c.437.055.833.263 1.263.349.634.166 1.287.23 1.931.347 1.109.084 2.225.093 3.334.012.312-.05.625-.09.939-.112.859-.144 1.698-.388 2.534-.632.439-.203.902-.356 1.318-.606.358-.141.675-.36 1.012-.542.148-.126.302-.244.462-.354.254-.178.47-.402.712-.595.568-.441.976-1.042 1.408-1.605.65-.958 1.078-2.057 1.312-3.187.053-.33.14-.654.139-.988.03-.271.021-.546.068-.814.793.053 1.591.002 2.384-.042 1.065-.091 2.134-.235 3.157-.559.813-.253 1.606-.62 2.24-1.197.519-.459.885-1.087 1.007-1.771.172-.994-.068-2.009-.442-2.932-.589-1.438-1.487-2.722-2.436-3.942-.201-.034-.407-.009-.61-.015-3.37.007-6.741.007-10.112.015.537.76 1.121 1.558 1.223 2.512l-.002.049c-.268-.06-.542-.021-.812-.003-.858-.008-1.717-.006-2.575.003-.254-.017-.507-.034-.76-.005l-1.947.005c-1.243-.669-2.38-1.512-3.469-2.405.015-1.816.002-3.633.007-5.449-.01-.917.019-1.833-.016-2.75l.019.021c.992.593 1.91 1.311 2.716 2.14.085.108.234.075.354.083 3.492-.021 6.985.006 10.478-.03-1.34-1.324-2.78-2.55-4.315-3.642.235-.089.49-.045.736-.052 1.062-.004 2.123.009 3.183-.006.009-1.979.012-3.96-.001-5.94-.09-.585-.056-1.196-.264-1.759-.029-.462-.27-.874-.324-1.331l-.038.097c-.088-.413-.3-.784-.492-1.155l-.43-.779c-.204-.22-.385-.459-.572-.693-.634-.753-1.416-1.365-2.225-1.919-.332-.159-.662-.322-.981-.505-.551-.27-1.128-.489-1.717-.661-.355-.107-.72-.174-1.068-.302-.584-.061-1.15-.259-1.74-.262-1.07-.082-2.148-.077-3.22 0-.402.063-.811.101-1.218.146z"/><path fill="#110E0E" d="M23.031 8.432c.383-.146.816-.173 1.211-.06.778.314 1.138 1.185 1.195 1.972l.014 2.685c-.326-.092-.621-.26-.932-.388-.833-.355-1.672-.701-2.536-.978.021-.536-.025-1.074.032-1.608.11-.34.15-.711.355-1.014.112-.188.247-.371.455-.46l.206-.149z"/><path fill="#110E0E" d="M21.985 33.505c-.003-.114.01-.228.066-.328 1.104.524 2.246.969 3.4 1.373-.013.432-.006.864-.007 1.296-.006.522.039 1.06-.151 1.557-.13.468-.421.91-.877 1.111-.458.279-1.022.195-1.506.035l.091-.036-.279-.086c-.166-.197-.343-.392-.449-.628-.2-.429-.245-.906-.282-1.372-.006-.974.004-1.948-.006-2.922z"/><path fill="#110E0E" d="M43.038 36.205c.474-.004.948-.003 1.422-.001l-.006.202h-.589l.002 1.534-.236.004c0-.515.004-1.026-.003-1.54h-.587l-.003-.199z"/><path fill="#110E0E" d="M44.671 36.202l.343.004c.161.49.322.982.498 1.468.172-.487.334-.978.496-1.469l.339-.003.002 1.736-.23.006c-.003-.463.015-.926-.007-1.387-.201.445-.32.924-.484 1.384l-.241-.004c-.159-.473-.298-.953-.486-1.415l.001 1.422-.231-.006c.004-.578.002-1.157 0-1.736z"/><g fill="#007CC2"><path d="M20.851 1.341c.407-.045.816-.083 1.221-.147 1.071-.076 2.149-.082 3.22 0 .59.003 1.156.202 1.74.262.348.128.713.195 1.068.302.589.172 1.166.391 1.717.661.319.183.649.346.981.505.809.554 1.591 1.166 2.225 1.919.187.234.368.473.572.693l.43.779c.192.371.404.742.492 1.155l.038-.097c.054.457.295.868.324 1.331.208.563.174 1.174.264 1.759.013 1.98.01 3.96.001 5.94-1.061.016-2.122.002-3.183.006-.246.007-.501-.037-.736.052l-.123-.08c-1.003-.72-2.045-1.381-3.115-1.997-.83-.458-1.66-.926-2.534-1.296l-.001-.06-.014-2.685c-.058-.787-.417-1.658-1.195-1.972-.395-.113-.828-.086-1.211.06l-.205.149c-.208.089-.342.272-.455.46-.206.302-.245.674-.355 1.014-.103.524.003 1.064-.055 1.594l-1.526-.477c-2.002-.587-4.057-1.005-6.135-1.202-.33-.028-.66-.043-.985-.101-.319-.063-.65.024-.964-.068.046-.284.027-.579.117-.855.054-.166.056-.341.048-.513l.043.228c.041-.383.145-.757.289-1.113.136-.326.231-.668.402-.979.208-.392.4-.802.699-1.134.137-.21.255-.464.488-.583l.019-.113c.239-.286.537-.515.781-.796l.138-.007.013-.131c.381-.308.777-.598 1.19-.863.269-.137.507-.34.806-.409l-.084-.039.332-.08-.096-.034c.324-.049.565-.315.906-.315l-.087-.04c.306-.025.556-.218.853-.275.322-.101.658-.153.978-.262.213-.073.454-.049.664-.146z"/><path d="M16.617 16.647c.619-.159 1.267-.125 1.896-.058 1.237.159 2.385.691 3.46 1.3.035.916.006 1.833.016 2.75-.005 1.815.008 3.632-.007 5.449-1.701-1.444-3.215-3.101-4.593-4.853-.602-.809-1.205-1.64-1.558-2.594-.135-.425-.262-.907-.072-1.335.15-.353.502-.567.858-.659z"/><path d="M12.344 27.071c.276.099.471.322.696.498 2.726 2.221 5.732 4.097 8.926 5.564l.085.043c-.056.101-.069.214-.066.328.01.974 0 1.948.005 2.922.037.466.082.943.282 1.372.106.236.283.431.449.628l.279.086-.091.036c.484.16 1.047.244 1.506-.035.456-.201.748-.644.877-1.111.19-.497.145-1.034.151-1.557.001-.432-.006-.864.007-1.296.517.141 1.021.33 1.536.479 2.625.786 5.346 1.274 8.088 1.348.008.271.005.542-.008.813.001.334-.086.658-.139.988-.234 1.13-.662 2.229-1.312 3.187-.432.563-.84 1.164-1.408 1.605-.242.192-.458.417-.712.595-.16.109-.313.228-.462.354-.336.182-.654.401-1.012.542-.417.25-.879.403-1.318.606-.836.244-1.675.488-2.534.632-.314.022-.627.063-.939.112-1.11.081-2.226.072-3.334-.012-.644-.116-1.296-.181-1.931-.347-.43-.086-.827-.294-1.263-.349l.084-.043c-.212-.021-.412-.097-.596-.202-.454-.176-.89-.39-1.326-.602-.222-.171-.458-.326-.706-.456-.888-.658-1.696-1.435-2.329-2.345-.163-.269-.357-.519-.461-.818l-.117-.244c-.178-.254-.287-.551-.336-.854l-.036.094c-.117-.428-.244-.853-.34-1.287-.181-.599-.198-1.229-.209-1.85.016-3.141-.012-6.282.014-9.424z"/><path d="M25.451 28.492l1.947-.005c.253-.029.506-.012.76.005.858-.009 1.716-.011 2.575-.003.27-.018.543-.057.812.003.01.302-.106.609-.346.8-.38.292-.876.365-1.342.392-1.54.062-3.041-.463-4.383-1.179l-.023-.013z"/></g><g fill="#59B431"><path d="M8.662 10.038c1.222-.208 2.466-.227 3.702-.207l-.001.011c0 .326-.091.646-.079.973.002 5.381-.006 10.761.005 16.142-1.769-1.492-3.399-3.147-4.879-4.925-.954-1.156-1.837-2.376-2.556-3.693-.661-1.253-1.21-2.63-1.166-4.072.021-.993.448-1.973 1.191-2.637 1.032-.948 2.43-1.36 3.783-1.592z"/><path d="M21.973 17.889c.012-2.075-.008-4.151.01-6.227.863.277 1.702.623 2.536.978.311.128.606.296.932.388l.001.06c.012 1.102-.012 2.204.012 3.305 1.696.007 3.392-.001 5.088.004l.549-.016.123.08c1.535 1.092 2.975 2.318 4.315 3.642-3.492.036-6.985.009-10.478.03-.12-.008-.269.025-.354-.083-.806-.83-1.724-1.547-2.716-2.14l-.018-.021z"/><path d="M30.324 25.932c3.371-.008 6.742-.008 10.112-.015.203.006.409-.02.61.015.948 1.221 1.846 2.505 2.436 3.942.375.923.615 1.938.442 2.932-.122.684-.488 1.312-1.007 1.771-.634.577-1.428.944-2.24 1.197-1.023.323-2.092.468-3.157.559-.793.044-1.591.095-2.384.042.033-1.094.007-2.188.016-3.282-.004-1.551.006-3.1-.006-4.648-1.199.005-2.399.008-3.598 0-.103-.956-.687-1.754-1.224-2.513z"/><path d="M21.982 26.087c1.089.894 2.226 1.736 3.469 2.405l.022.013c-.046 2.013.002 4.029-.022 6.045-1.154-.404-2.296-.849-3.4-1.373l-.085-.043c.029-2.348-.004-4.697.016-7.047z"/></g><g fill="#65AFE0"><path d="M12.363 9.842l.952.026c.325.058.655.074.985.102 2.078.197 4.133.615 6.135 1.202l1.526.477c.058-.53-.048-1.07.055-1.594-.058.534-.012 1.072-.032 1.608-.018 2.075.002 4.151-.01 6.227-1.075-.609-2.223-1.141-3.46-1.3-.629-.066-1.277-.101-1.896.058-.356.092-.708.306-.858.658-.19.428-.063.911.072 1.335.353.954.956 1.785 1.558 2.594 1.378 1.752 2.892 3.409 4.593 4.853-.02 2.35.013 4.699-.016 7.047-3.194-1.468-6.201-3.344-8.926-5.564-.225-.176-.42-.399-.696-.498-.026 3.142.002 6.283-.014 9.425l-.036-.363c-.005-3.059.004-6.116-.004-9.176-.012-5.381-.003-10.761-.005-16.142-.015-.329.076-.649.077-.975z"/><path d="M25.452 13.088c.874.371 1.704.838 2.534 1.296 1.07.616 2.112 1.276 3.115 1.997l-.549.016-5.088-.004c-.024-1.101 0-2.203-.012-3.305z"/><path d="M31.547 28.443c1.199.008 2.399.005 3.598 0 .012 1.549.002 3.098.006 4.648-.009 1.094.017 2.188-.016 3.282-.047.269-.038.544-.068.814.013-.271.016-.542.008-.813-2.742-.073-5.462-.562-8.088-1.348-.516-.148-1.02-.338-1.536-.479.024-2.016-.024-4.032.022-6.045 1.342.716 2.843 1.24 4.383 1.179.466-.026.962-.1 1.342-.392.24-.19.356-.498.346-.8l.003-.046z"/></g><path fill="#110E0E" d="M58.18 8.383c1.754-1.072 3.888-1.236 5.894-1.167 1.817.08 3.784.607 4.954 2.099 1.28 1.609 1.395 3.78 1.308 5.75-1.167.033-2.337.002-3.505.016-.025-1.14.011-2.344-.489-3.399-.419-.898-1.417-1.3-2.328-1.494-1.509-.3-3.208.03-4.345 1.111-.543.495-.824 1.205-1.012 1.899-.257 1.083-.315 2.202-.353 3.312-.043 2.714-.011 5.433-.019 8.149.021 1.76.083 3.586.798 5.223.412.971 1.258 1.758 2.3 1.992 1.089.221 2.278.282 3.319-.179.83-.359 1.483-1.059 1.867-1.87.501-1.036.627-2.202.66-3.338 1.168-.004 2.338-.004 3.507.001.013 1.798-.195 3.67-1.088 5.265-.716 1.312-1.977 2.294-3.4 2.732-1.226.401-2.531.425-3.808.385-1.491-.021-3.047-.271-4.302-1.129-1.351-.872-2.17-2.356-2.631-3.861-.546-1.843-.732-3.782-.649-5.699.001-2.404.018-4.809-.004-7.212-.083-1.494.092-2.999.467-4.445.428-1.654 1.368-3.242 2.859-4.141z"/><path fill="#110E0E" d="M125.831 10.988c.003-1.083-.01-2.166.007-3.247 1.131.018 2.261-.01 3.393.016-.009 1.079-.003 2.155-.005 3.233-1.131.004-2.264.007-3.395-.002z"/><path fill="#110E0E" d="M181.339 12.166c1.009-.449 2.011-.914 3.023-1.36.003 1.643.001 3.285.001 4.928 1.349.003 2.697.003 4.047-.001.01.765.004 1.529.007 2.293-1.352 0-2.702.002-4.054 0 .002 3.88-.004 7.761.002 11.641-.002.72.14 1.563.809 1.972.98.604 2.187.435 3.271.297-.017.778.036 1.556-.012 2.332-1.433.145-2.883.445-4.317.173-.916-.15-1.853-.579-2.341-1.401-.45-.732-.452-1.62-.438-2.448-.002-4.188.002-8.376-.002-12.565h-3.055c.004-.765-.02-1.53.016-2.293 1.012.006 2.024.001 3.039.002l.004-3.57z"/><path fill="#110E0E" d="M115.775 15.438c1.438-.145 3.021-.106 4.259.733 1.047.71 1.531 1.972 1.715 3.179.191 1.331.134 2.681.146 4.021.002 3.647-.003 7.298.002 10.946-1.009.032-2.02.007-3.03.014-.002-3.423 0-6.844 0-10.267-.016-1.084.034-2.17-.033-3.252-.065-.928-.401-1.914-1.206-2.452-.891-.567-2.018-.605-3.027-.412-.94.182-1.745.847-2.154 1.708-.641 1.329-.638 2.845-.643 4.289.002 3.462-.002 6.924.002 10.387l-3.027-.001c-.005-3.42-.001-6.84-.002-10.259-.012-2.779.063-5.562-.183-8.332 1.066-.016 2.131.002 3.198-.009.032.816-.014 1.634.026 2.451.362-.287.508-.751.822-1.082.75-.972 1.922-1.551 3.135-1.662z"/><path fill="#110E0E" d="M168.479 16.229c1.082-.774 2.475-.892 3.768-.847 1.173.039 2.419.37 3.245 1.252.845.9 1.139 2.161 1.254 3.354.102 1.399.055 2.801.065 4.202-.002 3.382.004 6.762-.002 10.142-1.009 0-2.018.002-3.025-.002-.002-4.274 0-8.549-.001-12.824-.015-.903-.11-1.873-.678-2.614-.474-.634-1.264-.95-2.031-1.018-1.009-.105-2.11.052-2.906.728-.775.667-1.133 1.683-1.298 2.664-.215 1.389-.133 2.799-.149 4.2-.005 2.956.011 5.912-.007 8.868-1.005-.005-2.014 0-3.018-.001-.006-3.188-.001-6.376-.003-9.563-.012-3.014.068-6.031-.175-9.04 1.068.014 2.137-.008 3.205.013.02.796-.049 1.599.025 2.39l.097-.008c.457-.698.928-1.422 1.634-1.896z"/><path fill="#110E0E" d="M78.798 15.533c1.668-.261 3.426-.237 5.037.317 1.314.442 2.388 1.465 2.958 2.721.741 1.607.901 3.406.959 5.153.057 2.263.054 4.576-.601 6.763-.404 1.357-1.188 2.676-2.45 3.389-1.414.799-3.094.857-4.678.809-1.454-.05-2.998-.371-4.102-1.385-1.242-1.137-1.765-2.824-2.03-4.436-.319-1.97-.277-3.975-.195-5.963.129-1.857.398-3.832 1.55-5.36.835-1.138 2.182-1.793 3.552-2.008m.699 2.445c-.828.19-1.531.774-1.906 1.532-.652 1.296-.742 2.784-.778 4.209.012 1.615.008 3.241.267 4.841.188 1.061.474 2.206 1.31 2.949.863.735 2.086.793 3.159.65.907-.113 1.734-.684 2.143-1.503.687-1.346.773-2.893.867-4.372.043-1.909.171-3.859-.326-5.724-.252-.951-.773-1.914-1.693-2.356-.943-.438-2.043-.441-3.043-.226z"/><path fill="#110E0E" d="M93.985 16.242c1.243-.878 2.883-1.059 4.338-.691.913.231 1.753.768 2.321 1.524.245.309.415.667.646.984.009-.772.003-1.546.003-2.317 1.008-.014 2.016-.007 3.024-.004.011 6.776.003 13.551.003 20.328.007 1.143-.164 2.349-.852 3.297-.618.867-1.607 1.381-2.618 1.646-1.058.267-2.154.369-3.243.329-1.504.063-3.083-.29-4.284-1.233-.945-.734-1.483-1.917-1.504-3.106.018-.193-.067-.444.064-.6 1.108-.028 2.219.003 3.329-.015.054.689.235 1.413.747 1.911.692.706 1.761.861 2.704.737.906-.1 1.791-.601 2.225-1.421.487-.859.398-1.881.407-2.83-.017-.947.032-1.895-.028-2.839-.528.846-1.257 1.588-2.194 1.969-1.358.598-2.945.516-4.318.013-1.257-.479-2.208-1.555-2.715-2.782-.709-1.677-.892-3.521-.949-5.325-.077-2.063-.016-4.168.597-6.156.413-1.327 1.137-2.612 2.297-3.419m2.975 1.728c-.968.193-1.715.969-2.081 1.859-.576 1.371-.621 2.892-.645 4.358.004 1.765.039 3.566.563 5.265.292.939.888 1.895 1.876 2.197 1.19.361 2.673.184 3.511-.813.822-.967 1.013-2.277 1.123-3.496.091-1.438.067-2.878.042-4.314-.078-1.398-.182-2.92-1.078-4.066-.767-.979-2.144-1.237-3.311-.99z"/><path fill="#110E0E" d="M147.806 17.091c.753-.898 1.892-1.363 3.021-1.56 1.236-.204 2.501-.214 3.736-.037 1.234.184 2.494.688 3.281 1.696.807 1.018 1.047 2.354 1.062 3.623l.007 9.204c.007 1.445.156 2.887.363 4.315l-3.317-.003c-.016-.911.022-1.824-.023-2.733-.403.775-.83 1.57-1.523 2.127-.956.798-2.261 1.002-3.468.969-1.211-.024-2.487-.358-3.358-1.244-.929-.935-1.279-2.273-1.403-3.548-.099-1.179-.106-2.403.307-3.526.327-.902.954-1.685 1.753-2.217 1.067-.719 2.351-1.037 3.613-1.208 1.334-.188 2.688-.137 4.034-.173.005-1.233.09-2.531-.426-3.686-.349-.769-1.128-1.264-1.95-1.372-1.016-.145-2.192-.024-2.938.754-.638.657-.779 1.622-.743 2.502-1.089-.01-2.177 0-3.267-.004.054-1.366.322-2.816 1.239-3.879m3.601 8.413c-.888.277-1.698.911-2.009 1.81-.357 1.04-.324 2.215.085 3.235.314.807 1.043 1.454 1.903 1.609.911.155 1.914.021 2.669-.541.726-.523 1.161-1.347 1.424-2.182.43-1.403.458-2.886.401-4.341-1.494.048-3.031-.054-4.473.41z"/><path fill="#110E0E" d="M126.022 15.732c1.003.004 2.009.002 3.012.001.027 6.2.009 12.398.007 18.598h-3.025c.002-6.201-.012-12.4.006-18.599z"/><path fill="#110E0E" d="M132.207 15.733c3.697.007 7.394-.009 11.089.008l-.005 2.624c.013.167-.108.297-.18.437-2.678 4.351-5.352 8.703-8.024 13.055 2.82.005 5.642 0 8.462.004.004.824.002 1.646 0 2.472-3.919-.001-7.835 0-11.753 0l-.002-2.463c.005-.178-.021-.368.091-.518 2.673-4.383 5.376-8.745 8.04-13.135-2.574-.018-5.146-.004-7.718-.007-.011-.826-.013-1.651 0-2.477z"/></svg>