<svg version="1" xmlns="http://www.w3.org/2000/svg" width="152" height="260"><g fill="#231F20"><path d="M23.185 163.611c-1.382-1.485-3.277-3.89-3.277-3.89s.358 2.865.358 5.014v19.195h-5.018v-35.162h.717l19.195 20.626c1.331 1.434 3.226 3.892 3.226 3.892s-.358-3.073-.358-5.018v-19.144h5.018v35.166h-.667l-19.194-20.679z"/><path d="M50.566 149.125h9.572c11.16 0 18.582 6.962 18.582 17.404 0 10.441-7.37 17.401-18.582 17.401h-9.572v-34.805zm9.214 30.046c9.061 0 13.31-5.22 13.31-12.642 0-7.423-4.249-12.645-13.31-12.645h-3.786v25.286h3.786z"/><path d="M85.424 149.125h22.114v4.76h-16.686v13.515h14.792v4.659h-14.792v7.112h17.403v4.76h-22.831v-34.806z"/><path d="M115.025 149.125h8.754c9.623 0 14.945 5.172 14.945 13.259 0 8.035-5.374 13.257-14.945 13.257h-3.327v8.29h-5.427v-34.806zm8.548 21.753c6.859 0 9.623-3.224 9.623-8.494 0-5.273-2.815-8.499-9.623-8.499h-3.121v16.993h3.121z"/></g><rect fill="#005984" width="152.182" height="141.759"/><path fill="#fff" d="M17.498 56.658l22.574 69.475h73.064l16.274-50.784-52.851-37.506-36.175 26.217 13.685 42.744 44.897.007 7.757-23.789-30.181-21.477-13.374 9.906 5.127 16.123h9.653v-6.083h-5.206c-.719-2.261-1.754-5.519-2.461-7.739l6.333-4.69 22.941 16.324c-.971 2.97-4.046 12.403-5.004 15.342l-36.042-.007c-1.138-3.559-9.857-30.787-10.987-34.32 3.006-2.178 26.098-18.914 29.074-21.073 3.181 2.256 42.422 30.105 45.663 32.406-1.178 3.679-12.385 38.649-13.562 42.317h-64.205c-1.235-3.806-18.605-57.262-19.841-61.067 3.238-2.353 48.719-35.396 51.952-37.745 3.349 2.426 56.948 41.493 56.948 41.493l2.027-6.251-58.979-42.76-59.101 42.937z"/><rect y="191.297" fill="#005984" width="152.182" height="4.962"/><g fill="#231F20"><rect y="232.595" width="152.309" height="1.521"/><path d="M23.674 202.596v10.247h-1.788l-4.045-8.885h-.029v8.885h-1.163v-10.247h1.845l3.988 8.771h.028v-8.771h1.164z"/><path d="M28.698 202.596h1.66l3.336 10.247h-1.461l-.739-2.441h-3.96l-.767 2.441h-1.32l3.251-10.247zm.795 1.206h-.028l-1.604 5.463h3.279l-1.647-5.463z"/><path d="M40.378 202.596v1.135h-2.697v9.112h-1.305v-9.112h-2.696v-1.135h6.698z"/><path d="M43.502 212.843h-1.306v-10.247h1.306v10.247z"/><path d="M45.867 209.095v-3.362c0-2.044 1.051-3.351 3.222-3.351 2.172 0 3.223 1.307 3.223 3.351v3.362c0 2.839-1.05 3.96-3.223 3.96-2.171 0-3.222-1.121-3.222-3.96zm5.11.058v-3.465c0-2.143-1.476-2.214-1.888-2.214-.411 0-1.887.071-1.887 2.214v3.465c0 2.242.652 2.809 1.887 2.809 1.236 0 1.888-.566 1.888-2.809z"/><path d="M61.653 202.596v10.247h-1.786l-4.046-8.885h-.029v8.885h-1.163v-10.247h1.846l3.987 8.771h.03v-8.771h1.161z"/><path d="M66.676 202.596h1.662l3.334 10.247h-1.461l-.739-2.441h-3.96l-.767 2.441h-1.318l3.249-10.247zm.795 1.206h-.028l-1.604 5.463h3.279l-1.647-5.463z"/><path d="M73.407 212.843v-10.247h1.307v9.112h3.76v1.135h-5.067z"/><path d="M82.036 202.596h3.15c1.305 0 2.243.467 2.754 1.561.412.867.454 2.91.454 3.235 0 2.186-.198 3.449-.624 4.13-.555.882-1.59 1.321-3.378 1.321h-2.356v-10.247zm1.307 9.112h1.234c1.815 0 2.484-.681 2.484-3.065v-2.073c0-2.073-.64-2.839-2.004-2.839h-1.715v7.977z"/><path d="M90.131 212.843v-10.247h5.279v1.135h-3.973v3.293h3.689v1.137h-3.689v3.548h4.06v1.135h-5.366z"/><path d="M97.376 212.843v-10.247h5.081v1.135h-3.776v3.293h3.576v1.137h-3.576v4.683h-1.305z"/><path d="M104.166 212.843v-10.247h5.281v1.135h-3.975v3.293h3.691v1.137h-3.691v3.548h4.06v1.135h-5.366z"/><path d="M118.529 202.596v10.247h-1.788l-4.045-8.885h-.027v8.885h-1.165v-10.247h1.846l3.988 8.771h.027v-8.771h1.164z"/><path d="M121.939 209.791v.297c0 1.393.881 1.832 1.719 1.832 1.035 0 1.83-.439 1.83-1.661 0-2.27-4.599-2.016-4.599-5.095 0-1.816 1.291-2.782 3.01-2.782 1.874 0 2.923.909 2.84 2.994h-1.364c.014-1.121-.341-1.857-1.574-1.857-.782 0-1.576.396-1.576 1.505 0 2.255 4.598 1.929 4.598 5.18 0 2.158-1.489 2.852-3.18 2.852-3.021.029-3.021-2.285-2.994-3.264h1.29z"/><path d="M128.913 212.843v-10.247h5.279v1.135h-3.976v3.293h3.69v1.137h-3.69v3.548h4.059v1.135h-5.362z"/><path d="M12.723 227.036v-10.247h5.28v1.135h-3.974v3.293h3.69v1.137h-3.69v3.548h4.059v1.135h-5.365z"/><path d="M19.668 216.789h3.15c1.306 0 2.244.467 2.754 1.561.411.867.454 2.91.454 3.235 0 2.186-.198 3.449-.624 4.131-.553.881-1.59 1.32-3.378 1.32h-2.356v-10.247zm1.307 9.112h1.234c1.817 0 2.484-.681 2.484-3.065v-2.073c0-2.073-.638-2.839-2.002-2.839h-1.716v7.977z"/><path d="M27.867 216.789h1.306v6.559c0 2.241.681 2.808 1.916 2.808 1.235 0 1.917-.566 1.917-2.808v-6.559h1.306v6.499c0 2.839-1.05 3.96-3.223 3.96-2.171 0-3.222-1.121-3.222-3.96v-6.499z"/><path d="M40.749 219.612c.014-.582-.029-1.164-.298-1.488-.269-.329-.88-.44-1.149-.44-1.079 0-1.505.652-1.547.793-.042.114-.298.37-.298 2.13v2.741c0 2.511.824 2.808 1.831 2.808.398 0 1.604-.141 1.619-2.143h1.349c.056 3.235-2.229 3.235-2.896 3.235-1.277 0-3.236-.083-3.236-4.06v-2.895c0-2.896 1.277-3.719 3.292-3.719 2.031 0 2.811 1.05 2.683 3.037h-1.35z"/><path d="M46.372 216.789h1.66l3.335 10.247h-1.461l-.738-2.441h-3.96l-.766 2.441h-1.32l3.25-10.247zm.795 1.206h-.029l-1.604 5.463h3.279l-1.646-5.463z"/><path d="M57.683 216.789v1.135h-2.697v9.112h-1.305v-9.112h-2.697v-1.135h6.699z"/><path d="M60.437 227.036h-1.305v-10.247h1.305v10.247z"/><path d="M62.435 223.288v-3.362c0-2.044 1.051-3.351 3.222-3.351 2.172 0 3.224 1.307 3.224 3.351v3.362c0 2.839-1.051 3.96-3.224 3.96-2.171 0-3.222-1.121-3.222-3.96zm5.111.06v-3.466c0-2.143-1.478-2.214-1.889-2.214-.412 0-1.887.071-1.887 2.214v3.466c0 2.241.651 2.808 1.887 2.808 1.235-.001 1.889-.567 1.889-2.808z"/><path d="M77.851 216.789v10.247h-1.787l-4.047-8.885h-.027v8.885h-1.165v-10.247h1.846l3.988 8.771h.03v-8.771h1.162z"/><path d="M81.953 227.036v-10.247h3.037c1.379 0 2.854.511 2.854 2.923 0 2.328-1.815 2.812-2.867 2.812h-1.717v4.513h-1.307zm1.307-5.649h1.434c.539 0 1.816-.143 1.816-1.746 0-1.561-1.163-1.717-1.448-1.717h-1.802v3.463z"/><path d="M90.753 222.323v4.713h-1.305v-10.247h3.534c1.815 0 2.455 1.277 2.455 2.555 0 1.205-.669 2.128-1.873 2.34v.03c1.176.184 1.604.582 1.675 2.64.013.439.155 2.043.353 2.683h-1.362c-.368-.711-.283-2.044-.396-3.408-.1-1.247-1.109-1.305-1.549-1.305h-1.532zm0-1.135h1.96c.935 0 1.391-.81 1.391-1.702 0-.739-.369-1.563-1.379-1.563h-1.972v3.265z"/><path d="M97.079 223.288v-3.362c0-2.044 1.052-3.351 3.222-3.351 2.172 0 3.224 1.307 3.224 3.351v3.362c0 2.839-1.052 3.96-3.224 3.96-2.17 0-3.222-1.121-3.222-3.96zm5.11.06v-3.466c0-2.143-1.477-2.214-1.889-2.214s-1.887.071-1.887 2.214v3.466c0 2.241.651 2.808 1.887 2.808s1.889-.567 1.889-2.808z"/><path d="M110.348 219.527c0-1.206-.495-1.859-1.815-1.859-.41 0-1.887.071-1.887 2.214v3.466c0 2.241.653 2.808 1.887 2.808.937 0 1.563-.254 1.831-.454v-3.064h-1.889v-1.135h3.196v4.981c-.84.454-1.818.765-3.139.765-2.172 0-3.222-1.121-3.222-3.96v-3.362c0-2.044 1.05-3.351 3.222-3.351 2.216 0 3.265.81 3.18 2.952h-1.364z"/><path d="M114.968 222.323v4.713h-1.305v-10.247h3.532c1.817 0 2.455 1.277 2.455 2.555 0 1.205-.665 2.128-1.873 2.34v.03c1.18.184 1.604.582 1.675 2.64.017.439.157 2.043.356 2.683h-1.362c-.37-.711-.285-2.044-.399-3.408-.1-1.247-1.105-1.305-1.545-1.305h-1.534zm0-1.135h1.958c.938 0 1.392-.81 1.392-1.702 0-.739-.37-1.563-1.376-1.563h-1.974v3.265z"/><path d="M124.138 216.789h1.663l3.334 10.247h-1.461l-.74-2.441h-3.961l-.764 2.441h-1.321l3.25-10.247zm.796 1.206h-.028l-1.604 5.463h3.279l-1.647-5.463z"/><path d="M131.733 227.036h-1.22v-10.247h2.114l2.582 8.602h.028l2.613-8.602h2.154v10.247h-1.303v-9.112h-.031l-2.867 9.112h-1.232l-2.812-9.112h-.027v9.112z"/><path d="M7.259 247.008v-7.32h2.382c1.014 0 1.358.344 1.633.75.253.396.294.832.294.975 0 .912-.315 1.521-1.257 1.732v.052c1.044.122 1.5.75 1.5 1.754 0 1.875-1.368 2.058-2.2 2.058h-2.352zm.933-4.237h1.358c.729-.011 1.085-.458 1.085-1.167 0-.607-.346-1.104-1.126-1.104h-1.317v2.271zm0 3.426h1.317c.993 0 1.349-.71 1.349-1.247 0-1.166-.72-1.37-1.673-1.37h-.993v2.617z"/><path d="M13.35 239.688h.933v4.685c0 1.602.486 2.008 1.368 2.008s1.369-.406 1.369-2.008v-4.685h.933v4.645c0 2.028-.75 2.828-2.302 2.828s-2.301-.8-2.301-2.828v-4.645z"/><path d="M20.611 247.008h-.933v-7.32h.933v7.32z"/><path d="M22.357 247.008v-7.32h.933v6.51h2.687v.811h-3.62z"/><path d="M27.18 239.688h2.25c.933 0 1.602.336 1.967 1.116.294.618.324 2.077.324 2.311 0 1.563-.142 2.464-.446 2.951-.396.627-1.136.942-2.413.942h-1.682v-7.32zm.933 6.509h.882c1.298 0 1.774-.486 1.774-2.189v-1.481c0-1.48-.457-2.027-1.43-2.027h-1.227v5.697z"/><path d="M34.331 247.008h-.933v-7.32h.933v7.32z"/><path d="M41.118 239.688v7.32h-1.277l-2.889-6.347h-.021v6.347h-.831v-7.32h1.318l2.848 6.265h.021v-6.265h.831z"/><path d="M46.333 241.644c0-.859-.354-1.327-1.297-1.327-.294 0-1.348.052-1.348 1.58v2.476c0 1.602.466 2.008 1.348 2.008.669 0 1.115-.183 1.308-.325v-2.189h-1.349v-.812h2.281v3.56c-.598.323-1.298.547-2.241.547-1.551 0-2.302-.8-2.302-2.828v-2.403c0-1.462.75-2.393 2.302-2.393 1.581 0 2.332.579 2.271 2.107h-.973z"/><path d="M52.214 239.688h1.186l2.382 7.32h-1.044l-.527-1.745h-2.829l-.547 1.745h-.942l2.321-7.32zm.567.863h-.021l-1.146 3.902h2.342l-1.175-3.902z"/><path d="M57.902 247.008h-.871v-7.32h1.509l1.846 6.144h.021l1.865-6.144h1.541v7.32h-.933v-6.509h-.02l-2.047 6.509h-.883l-2.008-6.509h-.02v6.509z"/><path d="M65.494 247.008v-7.32h3.772v.812h-2.84v2.353h2.636v.812h-2.636v2.534h2.901v.811h-3.833z"/><path d="M71.637 243.642v3.366h-.935v-7.32h2.526c1.295 0 1.752.912 1.752 1.825 0 .861-.477 1.521-1.336 1.673v.021c.839.133 1.145.415 1.196 1.887.008.313.111 1.457.253 1.915h-.973c-.263-.507-.202-1.46-.285-2.434-.071-.892-.79-.933-1.105-.933h-1.093zm0-.811h1.398c.669 0 .994-.578.994-1.218 0-.526-.266-1.114-.984-1.114h-1.408v2.332z"/><path d="M77.494 247.008h-.931v-7.32h.931v7.32z"/><path d="M82.472 241.705c.012-.414-.02-.83-.212-1.063-.191-.233-.628-.315-.821-.315-.771 0-1.073.466-1.105.568-.031.08-.214.264-.214 1.521v1.956c0 1.794.591 2.008 1.31 2.008.283 0 1.146-.103 1.154-1.532h.964c.042 2.313-1.592 2.313-2.069 2.313-.91 0-2.311-.062-2.311-2.899v-2.068c0-2.069.913-2.656 2.353-2.656 1.449 0 2.008.749 1.917 2.169h-.966z"/><path d="M86.757 239.688h1.187l2.382 7.32h-1.046l-.526-1.745h-2.828l-.546 1.745h-.942l2.319-7.32zm.566.863h-.02l-1.145 3.902h2.34l-1.175-3.902z"/><path d="M96.614 239.688v7.32h-1.277l-2.89-6.347h-.02v6.347h-.831v-7.32h1.318l2.848 6.265h.02v-6.265h.832z"/><path d="M100.559 244.827v.214c0 .994.627 1.308 1.226 1.308.74 0 1.309-.313 1.309-1.187 0-1.622-3.287-1.439-3.287-3.64 0-1.297.923-1.986 2.15-1.986 1.339 0 2.089.648 2.027 2.139h-.974c.012-.8-.242-1.328-1.125-1.328-.559 0-1.125.283-1.125 1.075 0 1.611 3.285 1.378 3.285 3.698 0 1.543-1.063 2.04-2.271 2.04-2.159.02-2.159-1.632-2.139-2.333h.924z"/><path d="M109.235 239.688v.812h-1.925v6.509h-.935v-6.509h-1.925v-.812h4.785z"/><path d="M110.837 243.642v3.366h-.933v-7.32h2.524c1.297 0 1.753.912 1.753 1.825 0 .861-.476 1.521-1.337 1.673v.021c.842.133 1.146.415 1.196 1.887.01.313.11 1.457.253 1.915h-.972c-.266-.507-.204-1.46-.285-2.434-.071-.892-.792-.933-1.105-.933h-1.094zm0-.811h1.4c.669 0 .993-.578.993-1.218 0-.526-.265-1.114-.985-1.114h-1.408v2.332z"/><path d="M115.698 247.008v-7.32h3.771v.812h-2.838v2.353h2.636v.812h-2.636v2.534h2.898v.811h-3.831z"/><path d="M125.973 239.688v7.32h-1.276l-2.89-6.347h-.021v6.347h-.83v-7.32h1.317l2.849 6.265h.022v-6.265h.829z"/><path d="M131.188 241.644c0-.859-.354-1.327-1.297-1.327-.295 0-1.349.052-1.349 1.58v2.476c0 1.602.466 2.008 1.349 2.008.669 0 1.115-.183 1.307-.325v-2.189h-1.349v-.812h2.281v3.56c-.598.323-1.297.547-2.239.547-1.551 0-2.301-.8-2.301-2.828v-2.403c0-1.462.75-2.393 2.301-2.393 1.582 0 2.331.579 2.271 2.107h-.974z"/><path d="M137.493 239.688v.812h-1.925v6.509h-.935v-6.509h-1.925v-.812h4.785z"/><path d="M138.765 247.008v-7.32h.933v3.164h2.566v-3.164h.933v7.32h-.933v-3.345h-2.566v3.345h-.933z"/><path d="M13.436 257.146h-.933v-7.32h.933v7.32z"/><path d="M20.223 249.825v7.32h-1.277l-2.889-6.346h-.021v6.346h-.831v-7.32h1.318l2.849 6.266h.021v-6.266h.83z"/><path d="M24.167 254.966v.214c0 .994.628 1.307 1.227 1.307.741 0 1.308-.313 1.308-1.186 0-1.622-3.285-1.44-3.285-3.64 0-1.297.922-1.986 2.149-1.986 1.338 0 2.089.647 2.027 2.139h-.973c.011-.8-.243-1.329-1.125-1.329-.559 0-1.126.283-1.126 1.075 0 1.612 3.285 1.379 3.285 3.699 0 1.542-1.064 2.039-2.271 2.039-2.16.021-2.16-1.631-2.14-2.332h.924z"/><path d="M31.963 251.843c.01-.414-.021-.829-.213-1.063-.193-.233-.628-.314-.822-.314-.77 0-1.074.466-1.104.568-.031.079-.213.264-.213 1.521v1.956c0 1.795.588 2.008 1.308 2.008.284 0 1.146-.103 1.155-1.532h.963c.041 2.313-1.591 2.313-2.068 2.313-.912 0-2.311-.061-2.311-2.898v-2.069c0-2.069.912-2.655 2.352-2.655 1.45 0 2.008.748 1.917 2.168h-.964z"/><path d="M35.054 257.146h-.933v-7.32h.933v7.32z"/><path d="M36.794 257.146v-7.32h3.772v.812h-2.839v2.353h2.637v.813h-2.637v2.534h2.9v.81h-3.833z"/><path d="M47.061 249.825v7.32h-1.277l-2.889-6.346h-.021v6.346h-.831v-7.32h1.317l2.849 6.266h.021v-6.266h.831z"/><path d="M51.978 251.843c.01-.414-.021-.829-.213-1.063-.193-.233-.628-.314-.822-.314-.77 0-1.074.466-1.105.568-.031.079-.213.264-.213 1.521v1.956c0 1.795.588 2.008 1.308 2.008.284 0 1.146-.103 1.155-1.532h.963c.041 2.313-1.591 2.313-2.068 2.313-.912 0-2.311-.061-2.311-2.898v-2.069c0-2.069.912-2.655 2.351-2.655 1.451 0 2.008.748 1.917 2.168h-.962z"/><path d="M54.5 257.146v-7.32h3.771v.812h-2.838v2.353h2.636v.813h-2.636v2.534h2.899v.81h-3.832z"/><path d="M62.762 249.825h1.188l2.38 7.32h-1.043l-.527-1.744h-2.83l-.546 1.744h-.943l2.321-7.32zm.568.863h-.02l-1.146 3.903h2.343l-1.177-3.903z"/><path d="M72.619 249.825v7.32h-1.275l-2.891-6.346h-.02v6.346h-.832v-7.32h1.319l2.847 6.266h.022v-6.266h.83z"/><path d="M74.333 249.825h2.25c.935 0 1.604.337 1.968 1.117.294.617.325 2.077.325 2.311 0 1.563-.143 2.463-.447 2.95-.395.628-1.135.942-2.412.942h-1.683v-7.32zm.933 6.511h.881c1.299 0 1.774-.487 1.774-2.19v-1.48c0-1.481-.456-2.028-1.43-2.028h-1.226v5.698z"/><path d="M82.048 257.146v-7.32h3.772v.812h-2.84v2.353h2.636v.813h-2.636v2.534h2.901v.81h-3.833z"/><path d="M92.313 249.825v7.32h-1.275l-2.892-6.346h-.02v6.346h-.832v-7.32h1.319l2.848 6.266h.021v-6.266h.831z"/><path d="M97.528 251.781c0-.859-.354-1.326-1.297-1.326-.295 0-1.349.052-1.349 1.58v2.475c0 1.603.468 2.008 1.349 2.008.67 0 1.115-.182 1.309-.324v-2.19h-1.35v-.812h2.28v3.561c-.598.322-1.297.546-2.239.546-1.55 0-2.303-.8-2.303-2.827v-2.404c0-1.461.753-2.392 2.303-2.392 1.582 0 2.331.578 2.271 2.106h-.974z"/><path d="M101.174 257.146h-.933v-7.32h.933v7.32z"/><path d="M107.96 249.825v7.32h-1.275l-2.891-6.346h-.021v6.346h-.831v-7.32h1.318l2.848 6.266h.021v-6.266h.831z"/><path d="M109.665 257.146v-7.32h3.771v.812h-2.839v2.353h2.638v.813h-2.638v2.534h2.898v.81h-3.83z"/><path d="M114.885 257.146v-7.32h3.771v.812h-2.839v2.353h2.637v.813h-2.637v2.534h2.898v.81h-3.83z"/><path d="M121.017 253.779v3.366h-.935v-7.32h2.526c1.295 0 1.753.913 1.753 1.826 0 .861-.478 1.521-1.337 1.673v.02c.84.133 1.145.416 1.196 1.888.008.313.11 1.457.253 1.914h-.973c-.264-.507-.202-1.459-.285-2.434-.071-.891-.79-.933-1.105-.933h-1.093zm0-.809h1.398c.669 0 .994-.578.994-1.218 0-.526-.266-1.115-.984-1.115h-1.408v2.333z"/><path d="M126.876 257.146h-.933v-7.32h.933v7.32z"/><path d="M133.662 249.825v7.32h-1.277l-2.892-6.346h-.02v6.346h-.831v-7.32h1.318l2.85 6.266h.02v-6.266h.832z"/><path d="M138.875 251.781c0-.859-.354-1.326-1.297-1.326-.295 0-1.348.052-1.348 1.58v2.475c0 1.603.465 2.008 1.348 2.008.67 0 1.115-.182 1.308-.324v-2.19h-1.349v-.812h2.281v3.561c-.599.322-1.298.546-2.24.546-1.55 0-2.301-.8-2.301-2.827v-2.404c0-1.461.751-2.392 2.301-2.392 1.582 0 2.331.578 2.271 2.106h-.974z"/></g><line x1="116.567" y1="119.294" x2="116.314" y2="119.294" fill="none"/></svg>