<?xml version="1.0" encoding="utf-8"?>
<!-- Generator: Adobe Illustrator 15.0.2, SVG Export Plug-In . SVG Version: 6.00 Build 0)  -->
<!DOCTYPE svg PUBLIC "-//W3C//DTD SVG 1.0//EN" "http://www.w3.org/TR/2001/REC-SVG-20010904/DTD/svg10.dtd">
<svg version="1.0" id="Layer_1" xmlns="http://www.w3.org/2000/svg" xmlns:xlink="http://www.w3.org/1999/xlink" x="0px" y="0px"
	 width="152px" height="260px" viewBox="0 0 152 260" enable-background="new 0 0 152 260" xml:space="preserve">
<g>
	<g>
		<path fill="#231F20" d="M23.185,163.611c-1.382-1.485-3.277-3.89-3.277-3.89s0.358,2.865,0.358,5.014v19.195h-5.018v-35.162h0.717
			l19.195,20.626c1.331,1.434,3.226,3.892,3.226,3.892s-0.358-3.073-0.358-5.018v-19.144h5.018v35.166h-0.667L23.185,163.611z"/>
		<path fill="#231F20" d="M50.566,149.125h9.572c11.16,0,18.582,6.962,18.582,17.404c0,10.441-7.37,17.401-18.582,17.401h-9.572
			V149.125z M59.78,179.171c9.061,0,13.31-5.22,13.31-12.642c0-7.423-4.249-12.645-13.31-12.645h-3.786v25.286H59.78z"/>
		<path fill="#231F20" d="M85.424,149.125h22.114v4.76H90.852v13.515h14.792v4.659H90.852v7.112h17.403v4.76H85.424V149.125z"/>
		<path fill="#231F20" d="M115.025,149.125h8.754c9.623,0,14.945,5.172,14.945,13.259c0,8.035-5.374,13.257-14.945,13.257h-3.327
			v8.29h-5.427V149.125z M123.573,170.878c6.859,0,9.623-3.224,9.623-8.494c0-5.273-2.815-8.499-9.623-8.499h-3.121v16.993H123.573z
			"/>
	</g>
	<g>
		<rect fill="#005984" width="152.182" height="141.759"/>
		<g>
			<path fill="#FFFFFF" d="M17.498,56.658l22.574,69.475h73.064l16.274-50.784L76.559,37.843L40.384,64.06l13.685,42.744
				l44.897,0.007l7.757-23.789L76.542,61.545l-13.374,9.906l5.127,16.123h9.653v-6.083c0,0-3.665,0-5.206,0
				c-0.719-2.261-1.754-5.519-2.461-7.739c1.848-1.368,4.463-3.305,6.333-4.69C79.51,71.123,96.624,83.3,99.555,85.386
				c-0.971,2.97-4.046,12.403-5.004,15.342c-3.717-0.001-32.306-0.006-36.042-0.007c-1.138-3.559-9.857-30.787-10.987-34.32
				c3.006-2.178,26.098-18.914,29.074-21.073c3.181,2.256,42.422,30.105,45.663,32.406c-1.178,3.679-12.385,38.649-13.562,42.317
				c-4.018,0-60.203,0-64.205,0c-1.235-3.806-18.605-57.262-19.841-61.067c3.238-2.353,48.719-35.396,51.952-37.745
				c3.349,2.426,56.948,41.493,56.948,41.493l2.027-6.251L76.599,13.721L17.498,56.658z"/>
		</g>
	</g>
	<rect y="191.297" fill="#005984" width="152.182" height="4.962"/>
	<g>
		<rect y="232.595" fill="#231F20" width="152.309" height="1.521"/>
		<g>
			<g>
				<path fill="#231F20" d="M23.674,202.596v10.247h-1.788l-4.045-8.885h-0.029v8.885h-1.163v-10.247h1.845l3.988,8.771h0.028
					v-8.771H23.674z"/>
				<path fill="#231F20" d="M28.698,202.596h1.66l3.336,10.247h-1.461l-0.739-2.441h-3.96l-0.767,2.441h-1.32L28.698,202.596z
					 M29.493,203.802h-0.028l-1.604,5.463h3.279L29.493,203.802z"/>
				<path fill="#231F20" d="M40.378,202.596v1.135h-2.697v9.112h-1.305v-9.112H33.68v-1.135H40.378z"/>
				<path fill="#231F20" d="M43.502,212.843h-1.306v-10.247h1.306V212.843z"/>
				<path fill="#231F20" d="M45.867,209.095v-3.362c0-2.044,1.051-3.351,3.222-3.351c2.172,0,3.223,1.307,3.223,3.351v3.362
					c0,2.839-1.05,3.96-3.223,3.96C46.918,213.055,45.867,211.934,45.867,209.095z M50.977,209.153v-3.465
					c0-2.143-1.476-2.214-1.888-2.214c-0.411,0-1.887,0.071-1.887,2.214v3.465c0,2.242,0.652,2.809,1.887,2.809
					C50.325,211.962,50.977,211.396,50.977,209.153z"/>
				<path fill="#231F20" d="M61.653,202.596v10.247h-1.786l-4.046-8.885h-0.029v8.885h-1.163v-10.247h1.846l3.987,8.771h0.03v-8.771
					H61.653z"/>
				<path fill="#231F20" d="M66.676,202.596h1.662l3.334,10.247h-1.461l-0.739-2.441h-3.96l-0.767,2.441h-1.318L66.676,202.596z
					 M67.471,203.802h-0.028l-1.604,5.463h3.279L67.471,203.802z"/>
				<path fill="#231F20" d="M73.407,212.843v-10.247h1.307v9.112h3.76v1.135H73.407z"/>
				<path fill="#231F20" d="M82.036,202.596h3.15c1.305,0,2.243,0.467,2.754,1.561c0.412,0.867,0.454,2.91,0.454,3.235
					c0,2.186-0.198,3.449-0.624,4.13c-0.555,0.882-1.59,1.321-3.378,1.321h-2.356V202.596z M83.343,211.708h1.234
					c1.815,0,2.484-0.681,2.484-3.065v-2.073c0-2.073-0.64-2.839-2.004-2.839h-1.715V211.708z"/>
				<path fill="#231F20" d="M90.131,212.843v-10.247h5.279v1.135h-3.973v3.293h3.689v1.137h-3.689v3.548h4.06v1.135H90.131z"/>
				<path fill="#231F20" d="M97.376,212.843v-10.247h5.081v1.135h-3.776v3.293h3.576v1.137h-3.576v4.683H97.376z"/>
				<path fill="#231F20" d="M104.166,212.843v-10.247h5.281v1.135h-3.975v3.293h3.691v1.137h-3.691v3.548h4.06v1.135H104.166z"/>
				<path fill="#231F20" d="M118.529,202.596v10.247h-1.788l-4.045-8.885h-0.027v8.885h-1.165v-10.247h1.846l3.988,8.771h0.027
					v-8.771H118.529z"/>
				<path fill="#231F20" d="M121.939,209.791v0.297c0,1.393,0.881,1.832,1.719,1.832c1.035,0,1.83-0.439,1.83-1.661
					c0-2.27-4.599-2.016-4.599-5.095c0-1.816,1.291-2.782,3.01-2.782c1.874,0,2.923,0.909,2.84,2.994h-1.364
					c0.014-1.121-0.341-1.857-1.574-1.857c-0.782,0-1.576,0.396-1.576,1.505c0,2.255,4.598,1.929,4.598,5.18
					c0,2.158-1.489,2.852-3.18,2.852c-3.021,0.029-3.021-2.285-2.994-3.264H121.939z"/>
				<path fill="#231F20" d="M128.913,212.843v-10.247h5.279v1.135h-3.976v3.293h3.69v1.137h-3.69v3.548h4.059v1.135H128.913z"/>
				<path fill="#231F20" d="M12.723,227.036v-10.247h5.28v1.135h-3.974v3.293h3.69v1.137h-3.69v3.548h4.059v1.135H12.723z"/>
				<path fill="#231F20" d="M19.668,216.789h3.15c1.306,0,2.244,0.467,2.754,1.561c0.411,0.867,0.454,2.91,0.454,3.235
					c0,2.186-0.198,3.449-0.624,4.131c-0.553,0.881-1.59,1.32-3.378,1.32h-2.356V216.789z M20.975,225.901h1.234
					c1.817,0,2.484-0.681,2.484-3.065v-2.073c0-2.073-0.638-2.839-2.002-2.839h-1.716V225.901z"/>
				<path fill="#231F20" d="M27.867,216.789h1.306v6.559c0,2.241,0.681,2.808,1.916,2.808c1.235,0,1.917-0.566,1.917-2.808v-6.559
					h1.306v6.499c0,2.839-1.05,3.96-3.223,3.96c-2.171,0-3.222-1.121-3.222-3.96V216.789z"/>
				<path fill="#231F20" d="M40.749,219.612c0.014-0.582-0.029-1.164-0.298-1.488c-0.269-0.329-0.88-0.44-1.149-0.44
					c-1.079,0-1.505,0.652-1.547,0.793c-0.042,0.114-0.298,0.37-0.298,2.13v2.741c0,2.511,0.824,2.808,1.831,2.808
					c0.398,0,1.604-0.141,1.619-2.143h1.349c0.056,3.235-2.229,3.235-2.896,3.235c-1.277,0-3.236-0.083-3.236-4.06v-2.895
					c0-2.896,1.277-3.719,3.292-3.719c2.031,0,2.811,1.05,2.683,3.037H40.749z"/>
				<path fill="#231F20" d="M46.372,216.789h1.66l3.335,10.247h-1.461l-0.738-2.441h-3.96l-0.766,2.441h-1.32L46.372,216.789z
					 M47.167,217.995h-0.029l-1.604,5.463h3.279L47.167,217.995z"/>
				<path fill="#231F20" d="M57.683,216.789v1.135h-2.697v9.112h-1.305v-9.112h-2.697v-1.135H57.683z"/>
				<path fill="#231F20" d="M60.437,227.036h-1.305v-10.247h1.305V227.036z"/>
				<path fill="#231F20" d="M62.435,223.288v-3.362c0-2.044,1.051-3.351,3.222-3.351c2.172,0,3.224,1.307,3.224,3.351v3.362
					c0,2.839-1.051,3.96-3.224,3.96C63.486,227.248,62.435,226.127,62.435,223.288z M67.546,223.348v-3.466
					c0-2.143-1.478-2.214-1.889-2.214c-0.412,0-1.887,0.071-1.887,2.214v3.466c0,2.241,0.651,2.808,1.887,2.808
					C66.892,226.155,67.546,225.589,67.546,223.348z"/>
				<path fill="#231F20" d="M77.851,216.789v10.247h-1.787l-4.047-8.885h-0.027v8.885h-1.165v-10.247h1.846l3.988,8.771h0.03v-8.771
					H77.851z"/>
				<path fill="#231F20" d="M81.953,227.036v-10.247h3.037c1.379,0,2.854,0.511,2.854,2.923c0,2.328-1.815,2.812-2.867,2.812H83.26
					v4.513H81.953z M83.26,221.387h1.434c0.539,0,1.816-0.143,1.816-1.746c0-1.561-1.163-1.717-1.448-1.717H83.26V221.387z"/>
				<path fill="#231F20" d="M90.753,222.323v4.713h-1.305v-10.247h3.534c1.815,0,2.455,1.277,2.455,2.555
					c0,1.205-0.669,2.128-1.873,2.34v0.03c1.176,0.184,1.604,0.582,1.675,2.64c0.013,0.439,0.155,2.043,0.353,2.683h-1.362
					c-0.368-0.711-0.283-2.044-0.396-3.408c-0.1-1.247-1.109-1.305-1.549-1.305H90.753z M90.753,221.188h1.96
					c0.935,0,1.391-0.81,1.391-1.702c0-0.739-0.369-1.563-1.379-1.563h-1.972V221.188z"/>
				<path fill="#231F20" d="M97.079,223.288v-3.362c0-2.044,1.052-3.351,3.222-3.351c2.172,0,3.224,1.307,3.224,3.351v3.362
					c0,2.839-1.052,3.96-3.224,3.96C98.131,227.248,97.079,226.127,97.079,223.288z M102.189,223.348v-3.466
					c0-2.143-1.477-2.214-1.889-2.214s-1.887,0.071-1.887,2.214v3.466c0,2.241,0.651,2.808,1.887,2.808
					S102.189,225.589,102.189,223.348z"/>
				<path fill="#231F20" d="M110.348,219.527c0-1.206-0.495-1.859-1.815-1.859c-0.41,0-1.887,0.071-1.887,2.214v3.466
					c0,2.241,0.653,2.808,1.887,2.808c0.937,0,1.563-0.254,1.831-0.454v-3.064h-1.889v-1.135h3.196v4.981
					c-0.84,0.454-1.818,0.765-3.139,0.765c-2.172,0-3.222-1.121-3.222-3.96v-3.362c0-2.044,1.05-3.351,3.222-3.351
					c2.216,0,3.265,0.81,3.18,2.952H110.348z"/>
				<path fill="#231F20" d="M114.968,222.323v4.713h-1.305v-10.247h3.532c1.817,0,2.455,1.277,2.455,2.555
					c0,1.205-0.665,2.128-1.873,2.34v0.03c1.18,0.184,1.604,0.582,1.675,2.64c0.017,0.439,0.157,2.043,0.356,2.683h-1.362
					c-0.37-0.711-0.285-2.044-0.399-3.408c-0.1-1.247-1.105-1.305-1.545-1.305H114.968z M114.968,221.188h1.958
					c0.938,0,1.392-0.81,1.392-1.702c0-0.739-0.37-1.563-1.376-1.563h-1.974V221.188z"/>
				<path fill="#231F20" d="M124.138,216.789h1.663l3.334,10.247h-1.461l-0.74-2.441h-3.961l-0.764,2.441h-1.321L124.138,216.789z
					 M124.934,217.995h-0.028l-1.604,5.463h3.279L124.934,217.995z"/>
				<path fill="#231F20" d="M131.733,227.036h-1.22v-10.247h2.114l2.582,8.602h0.028l2.613-8.602h2.154v10.247h-1.303v-9.112h-0.031
					l-2.867,9.112h-1.232l-2.812-9.112h-0.027V227.036z"/>
			</g>
			<g>
				<path fill="#231F20" d="M7.259,247.008v-7.32h2.382c1.014,0,1.358,0.344,1.633,0.75c0.253,0.396,0.294,0.832,0.294,0.975
					c0,0.912-0.315,1.521-1.257,1.732v0.052c1.044,0.122,1.5,0.75,1.5,1.754c0,1.875-1.368,2.058-2.2,2.058H7.259z M8.192,242.771
					H9.55c0.729-0.011,1.085-0.458,1.085-1.167c0-0.607-0.346-1.104-1.126-1.104H8.192V242.771z M8.192,246.197h1.317
					c0.993,0,1.349-0.71,1.349-1.247c0-1.166-0.72-1.37-1.673-1.37H8.192V246.197z"/>
				<path fill="#231F20" d="M13.35,239.688h0.933v4.685c0,1.602,0.486,2.008,1.368,2.008s1.369-0.406,1.369-2.008v-4.685h0.933
					v4.645c0,2.028-0.75,2.828-2.302,2.828s-2.301-0.8-2.301-2.828V239.688z"/>
				<path fill="#231F20" d="M20.611,247.008h-0.933v-7.32h0.933V247.008z"/>
				<path fill="#231F20" d="M22.357,247.008v-7.32h0.933v6.51h2.687v0.811H22.357z"/>
				<path fill="#231F20" d="M27.18,239.688h2.25c0.933,0,1.602,0.336,1.967,1.116c0.294,0.618,0.324,2.077,0.324,2.311
					c0,1.563-0.142,2.464-0.446,2.951c-0.396,0.627-1.136,0.942-2.413,0.942H27.18V239.688z M28.113,246.197h0.882
					c1.298,0,1.774-0.486,1.774-2.189v-1.481c0-1.48-0.457-2.027-1.43-2.027h-1.227V246.197z"/>
				<path fill="#231F20" d="M34.331,247.008h-0.933v-7.32h0.933V247.008z"/>
				<path fill="#231F20" d="M41.118,239.688v7.32h-1.277l-2.889-6.347h-0.021v6.347h-0.831v-7.32h1.318l2.848,6.265h0.021v-6.265
					H41.118z"/>
				<path fill="#231F20" d="M46.333,241.644c0-0.859-0.354-1.327-1.297-1.327c-0.294,0-1.348,0.052-1.348,1.58v2.476
					c0,1.602,0.466,2.008,1.348,2.008c0.669,0,1.115-0.183,1.308-0.325v-2.189h-1.349v-0.812h2.281v3.56
					c-0.598,0.323-1.298,0.547-2.241,0.547c-1.551,0-2.302-0.8-2.302-2.828v-2.403c0-1.462,0.75-2.393,2.302-2.393
					c1.581,0,2.332,0.579,2.271,2.107H46.333z"/>
				<path fill="#231F20" d="M52.214,239.688H53.4l2.382,7.32h-1.044l-0.527-1.745h-2.829l-0.547,1.745h-0.942L52.214,239.688z
					 M52.781,240.551H52.76l-1.146,3.902h2.342L52.781,240.551z"/>
				<path fill="#231F20" d="M57.902,247.008h-0.871v-7.32h1.509l1.846,6.144h0.021l1.865-6.144h1.541v7.32H62.88v-6.509h-0.02
					l-2.047,6.509H59.93l-2.008-6.509h-0.02V247.008z"/>
				<path fill="#231F20" d="M65.494,247.008v-7.32h3.772v0.812h-2.84v2.353h2.636v0.812h-2.636v2.534h2.901v0.811H65.494z"/>
				<path fill="#231F20" d="M71.637,243.642v3.366h-0.935v-7.32h2.526c1.295,0,1.752,0.912,1.752,1.825
					c0,0.861-0.477,1.521-1.336,1.673v0.021c0.839,0.133,1.145,0.415,1.196,1.887c0.008,0.313,0.111,1.457,0.253,1.915H74.12
					c-0.263-0.507-0.202-1.46-0.285-2.434c-0.071-0.892-0.79-0.933-1.105-0.933H71.637z M71.637,242.831h1.398
					c0.669,0,0.994-0.578,0.994-1.218c0-0.526-0.266-1.114-0.984-1.114h-1.408V242.831z"/>
				<path fill="#231F20" d="M77.494,247.008h-0.931v-7.32h0.931V247.008z"/>
				<path fill="#231F20" d="M82.472,241.705c0.012-0.414-0.02-0.83-0.212-1.063c-0.191-0.233-0.628-0.315-0.821-0.315
					c-0.771,0-1.073,0.466-1.105,0.568c-0.031,0.08-0.214,0.264-0.214,1.521v1.956c0,1.794,0.591,2.008,1.31,2.008
					c0.283,0,1.146-0.103,1.154-1.532h0.964c0.042,2.313-1.592,2.313-2.069,2.313c-0.91,0-2.311-0.062-2.311-2.899v-2.068
					c0-2.069,0.913-2.656,2.353-2.656c1.449,0,2.008,0.749,1.917,2.169H82.472z"/>
				<path fill="#231F20" d="M86.757,239.688h1.187l2.382,7.32h-1.046l-0.526-1.745h-2.828l-0.546,1.745h-0.942L86.757,239.688z
					 M87.323,240.551h-0.02l-1.145,3.902h2.34L87.323,240.551z"/>
				<path fill="#231F20" d="M96.614,239.688v7.32h-1.277l-2.89-6.347h-0.02v6.347h-0.831v-7.32h1.318l2.848,6.265h0.02v-6.265
					H96.614z"/>
				<path fill="#231F20" d="M100.559,244.827v0.214c0,0.994,0.627,1.308,1.226,1.308c0.74,0,1.309-0.313,1.309-1.187
					c0-1.622-3.287-1.439-3.287-3.64c0-1.297,0.923-1.986,2.15-1.986c1.339,0,2.089,0.648,2.027,2.139h-0.974
					c0.012-0.8-0.242-1.328-1.125-1.328c-0.559,0-1.125,0.283-1.125,1.075c0,1.611,3.285,1.378,3.285,3.698
					c0,1.543-1.063,2.04-2.271,2.04c-2.159,0.02-2.159-1.632-2.139-2.333H100.559z"/>
				<path fill="#231F20" d="M109.235,239.688v0.812h-1.925v6.509h-0.935v-6.509h-1.925v-0.812H109.235z"/>
				<path fill="#231F20" d="M110.837,243.642v3.366h-0.933v-7.32h2.524c1.297,0,1.753,0.912,1.753,1.825
					c0,0.861-0.476,1.521-1.337,1.673v0.021c0.842,0.133,1.146,0.415,1.196,1.887c0.01,0.313,0.11,1.457,0.253,1.915h-0.972
					c-0.266-0.507-0.204-1.46-0.285-2.434c-0.071-0.892-0.792-0.933-1.105-0.933H110.837z M110.837,242.831h1.4
					c0.669,0,0.993-0.578,0.993-1.218c0-0.526-0.265-1.114-0.985-1.114h-1.408V242.831z"/>
				<path fill="#231F20" d="M115.698,247.008v-7.32h3.771v0.812h-2.838v2.353h2.636v0.812h-2.636v2.534h2.898v0.811H115.698z"/>
				<path fill="#231F20" d="M125.973,239.688v7.32h-1.276l-2.89-6.347h-0.021v6.347h-0.83v-7.32h1.317l2.849,6.265h0.022v-6.265
					H125.973z"/>
				<path fill="#231F20" d="M131.188,241.644c0-0.859-0.354-1.327-1.297-1.327c-0.295,0-1.349,0.052-1.349,1.58v2.476
					c0,1.602,0.466,2.008,1.349,2.008c0.669,0,1.115-0.183,1.307-0.325v-2.189h-1.349v-0.812h2.281v3.56
					c-0.598,0.323-1.297,0.547-2.239,0.547c-1.551,0-2.301-0.8-2.301-2.828v-2.403c0-1.462,0.75-2.393,2.301-2.393
					c1.582,0,2.331,0.579,2.271,2.107H131.188z"/>
				<path fill="#231F20" d="M137.493,239.688v0.812h-1.925v6.509h-0.935v-6.509h-1.925v-0.812H137.493z"/>
				<path fill="#231F20" d="M138.765,247.008v-7.32h0.933v3.164h2.566v-3.164h0.933v7.32h-0.933v-3.345h-2.566v3.345H138.765z"/>
				<path fill="#231F20" d="M13.436,257.146h-0.933v-7.32h0.933V257.146z"/>
				<path fill="#231F20" d="M20.223,249.825v7.32h-1.277l-2.889-6.346h-0.021v6.346h-0.831v-7.32h1.318l2.849,6.266h0.021v-6.266
					H20.223z"/>
				<path fill="#231F20" d="M24.167,254.966v0.214c0,0.994,0.628,1.307,1.227,1.307c0.741,0,1.308-0.313,1.308-1.186
					c0-1.622-3.285-1.44-3.285-3.64c0-1.297,0.922-1.986,2.149-1.986c1.338,0,2.089,0.647,2.027,2.139H26.62
					c0.011-0.8-0.243-1.329-1.125-1.329c-0.559,0-1.126,0.283-1.126,1.075c0,1.612,3.285,1.379,3.285,3.699
					c0,1.542-1.064,2.039-2.271,2.039c-2.16,0.021-2.16-1.631-2.14-2.332H24.167z"/>
				<path fill="#231F20" d="M31.963,251.843c0.01-0.414-0.021-0.829-0.213-1.063c-0.193-0.233-0.628-0.314-0.822-0.314
					c-0.77,0-1.074,0.466-1.104,0.568c-0.031,0.079-0.213,0.264-0.213,1.521v1.956c0,1.795,0.588,2.008,1.308,2.008
					c0.284,0,1.146-0.103,1.155-1.532h0.963c0.041,2.313-1.591,2.313-2.068,2.313c-0.912,0-2.311-0.061-2.311-2.898v-2.069
					c0-2.069,0.912-2.655,2.352-2.655c1.45,0,2.008,0.748,1.917,2.168H31.963z"/>
				<path fill="#231F20" d="M35.054,257.146h-0.933v-7.32h0.933V257.146z"/>
				<path fill="#231F20" d="M36.794,257.146v-7.32h3.772v0.812h-2.839v2.353h2.637v0.813h-2.637v2.534h2.9v0.81H36.794z"/>
				<path fill="#231F20" d="M47.061,249.825v7.32h-1.277l-2.889-6.346h-0.021v6.346h-0.831v-7.32h1.317l2.849,6.266h0.021v-6.266
					H47.061z"/>
				<path fill="#231F20" d="M51.978,251.843c0.01-0.414-0.021-0.829-0.213-1.063c-0.193-0.233-0.628-0.314-0.822-0.314
					c-0.77,0-1.074,0.466-1.105,0.568c-0.031,0.079-0.213,0.264-0.213,1.521v1.956c0,1.795,0.588,2.008,1.308,2.008
					c0.284,0,1.146-0.103,1.155-1.532h0.963c0.041,2.313-1.591,2.313-2.068,2.313c-0.912,0-2.311-0.061-2.311-2.898v-2.069
					c0-2.069,0.912-2.655,2.351-2.655c1.451,0,2.008,0.748,1.917,2.168H51.978z"/>
				<path fill="#231F20" d="M54.5,257.146v-7.32h3.771v0.812h-2.838v2.353h2.636v0.813h-2.636v2.534h2.899v0.81H54.5z"/>
				<path fill="#231F20" d="M62.762,249.825h1.188l2.38,7.32h-1.043l-0.527-1.744h-2.83l-0.546,1.744h-0.943L62.762,249.825z
					 M63.33,250.688h-0.02l-1.146,3.903h2.343L63.33,250.688z"/>
				<path fill="#231F20" d="M72.619,249.825v7.32h-1.275l-2.891-6.346h-0.02v6.346h-0.832v-7.32h1.319l2.847,6.266h0.022v-6.266
					H72.619z"/>
				<path fill="#231F20" d="M74.333,249.825h2.25c0.935,0,1.604,0.337,1.968,1.117c0.294,0.617,0.325,2.077,0.325,2.311
					c0,1.563-0.143,2.463-0.447,2.95c-0.395,0.628-1.135,0.942-2.412,0.942h-1.683V249.825z M75.266,256.336h0.881
					c1.299,0,1.774-0.487,1.774-2.19v-1.48c0-1.481-0.456-2.028-1.43-2.028h-1.226V256.336z"/>
				<path fill="#231F20" d="M82.048,257.146v-7.32h3.772v0.812h-2.84v2.353h2.636v0.813H82.98v2.534h2.901v0.81H82.048z"/>
				<path fill="#231F20" d="M92.313,249.825v7.32h-1.275l-2.892-6.346h-0.02v6.346h-0.832v-7.32h1.319l2.848,6.266h0.021v-6.266
					H92.313z"/>
				<path fill="#231F20" d="M97.528,251.781c0-0.859-0.354-1.326-1.297-1.326c-0.295,0-1.349,0.052-1.349,1.58v2.475
					c0,1.603,0.468,2.008,1.349,2.008c0.67,0,1.115-0.182,1.309-0.324v-2.19h-1.35v-0.812h2.28v3.561
					c-0.598,0.322-1.297,0.546-2.239,0.546c-1.55,0-2.303-0.8-2.303-2.827v-2.404c0-1.461,0.753-2.392,2.303-2.392
					c1.582,0,2.331,0.578,2.271,2.106H97.528z"/>
				<path fill="#231F20" d="M101.174,257.146h-0.933v-7.32h0.933V257.146z"/>
				<path fill="#231F20" d="M107.96,249.825v7.32h-1.275l-2.891-6.346h-0.021v6.346h-0.831v-7.32h1.318l2.848,6.266h0.021v-6.266
					H107.96z"/>
				<path fill="#231F20" d="M109.665,257.146v-7.32h3.771v0.812h-2.839v2.353h2.638v0.813h-2.638v2.534h2.898v0.81H109.665z"/>
				<path fill="#231F20" d="M114.885,257.146v-7.32h3.771v0.812h-2.839v2.353h2.637v0.813h-2.637v2.534h2.898v0.81H114.885z"/>
				<path fill="#231F20" d="M121.017,253.779v3.366h-0.935v-7.32h2.526c1.295,0,1.753,0.913,1.753,1.826
					c0,0.861-0.478,1.521-1.337,1.673v0.02c0.84,0.133,1.145,0.416,1.196,1.888c0.008,0.313,0.11,1.457,0.253,1.914H123.5
					c-0.264-0.507-0.202-1.459-0.285-2.434c-0.071-0.891-0.79-0.933-1.105-0.933H121.017z M121.017,252.97h1.398
					c0.669,0,0.994-0.578,0.994-1.218c0-0.526-0.266-1.115-0.984-1.115h-1.408V252.97z"/>
				<path fill="#231F20" d="M126.876,257.146h-0.933v-7.32h0.933V257.146z"/>
				<path fill="#231F20" d="M133.662,249.825v7.32h-1.277l-2.892-6.346h-0.02v6.346h-0.831v-7.32h1.318l2.85,6.266h0.02v-6.266
					H133.662z"/>
				<path fill="#231F20" d="M138.875,251.781c0-0.859-0.354-1.326-1.297-1.326c-0.295,0-1.348,0.052-1.348,1.58v2.475
					c0,1.603,0.465,2.008,1.348,2.008c0.67,0,1.115-0.182,1.308-0.324v-2.19h-1.349v-0.812h2.281v3.561
					c-0.599,0.322-1.298,0.546-2.24,0.546c-1.55,0-2.301-0.8-2.301-2.827v-2.404c0-1.461,0.751-2.392,2.301-2.392
					c1.582,0,2.331,0.578,2.271,2.106H138.875z"/>
			</g>
		</g>
	</g>
	<line fill="none" x1="116.567" y1="119.294" x2="116.314" y2="119.294"/>
</g>
</svg>
