<?xml version="1.0" encoding="utf-8"?>
<!-- Generator: Adobe Illustrator 15.0.0, SVG Export Plug-In . SVG Version: 6.00 Build 0)  -->
<!DOCTYPE svg PUBLIC "-//W3C//DTD SVG 1.1//EN" "http://www.w3.org/Graphics/SVG/1.1/DTD/svg11.dtd">
<svg version="1.1" id="Layer_1" xmlns="http://www.w3.org/2000/svg" xmlns:xlink="http://www.w3.org/1999/xlink" x="0px" y="0px"
	 width="152px" height="231.5px" viewBox="0 0 152 231.5" enable-background="new 0 0 152 231.5" xml:space="preserve">
<g>
	<path fill="#231F20" d="M23.185,163.611c-1.382-1.485-3.277-3.891-3.277-3.891s0.358,2.865,0.358,5.014v19.195h-5.018v-35.162
		h0.717l19.195,20.627c1.331,1.434,3.226,3.892,3.226,3.892s-0.358-3.073-0.358-5.019v-19.144h5.018v35.166h-0.667L23.185,163.611z"
		/>
	<path fill="#231F20" d="M50.566,149.125h9.572c11.16,0,18.583,6.962,18.583,17.404c0,10.44-7.371,17.4-18.583,17.4h-9.572V149.125z
		 M59.78,179.171c9.061,0,13.31-5.22,13.31-12.642c0-7.424-4.249-12.646-13.31-12.646h-3.786v25.286L59.78,179.171L59.78,179.171z"
		/>
	<path fill="#231F20" d="M85.424,149.125h22.114v4.76H90.852V167.4h14.793v4.658H90.852v7.112h17.403v4.761H85.424V149.125z"/>
	<path fill="#231F20" d="M115.025,149.125h8.754c9.623,0,14.945,5.172,14.945,13.259c0,8.035-5.375,13.257-14.945,13.257h-3.327
		v8.291h-5.427V149.125z M123.573,170.878c6.858,0,9.622-3.224,9.622-8.494c0-5.272-2.814-8.499-9.622-8.499h-3.121v16.993H123.573z
		"/>
</g>
<rect fill="#005984" width="152.182" height="141.759"/>
<path fill="#FFFFFF" d="M17.498,56.658l22.574,69.475h73.065l16.273-50.784L76.559,37.843L40.384,64.06l13.685,42.744l44.897,0.007
	l7.757-23.789L76.542,61.545l-13.374,9.906l5.127,16.123h9.653v-6.083h-5.206c-0.719-2.261-1.754-5.519-2.461-7.739l6.332-4.69
	l22.941,16.324c-0.971,2.97-4.046,12.403-5.004,15.342l-36.042-0.007c-1.138-3.559-9.857-30.787-10.987-34.32
	c3.006-2.178,26.098-18.914,29.074-21.073c3.182,2.256,42.422,30.105,45.663,32.406c-1.178,3.679-12.385,38.649-13.562,42.317
	H44.492c-1.235-3.806-18.605-57.262-19.841-61.067c3.238-2.353,48.719-35.396,51.953-37.745
	c3.349,2.426,56.947,41.493,56.947,41.493l2.027-6.251L76.6,13.721L17.498,56.658z"/>
<rect y="191.297" fill="#005984" width="152.182" height="4.962"/>
<g>
	<path fill="#231F20" d="M23.674,202.596v10.247h-1.788l-4.045-8.885h-0.029v8.885h-1.163v-10.247h1.845l3.988,8.771h0.028v-8.771
		H23.674z"/>
	<path fill="#231F20" d="M28.698,202.596h1.66l3.336,10.247h-1.461l-0.739-2.44h-3.96l-0.767,2.44h-1.32L28.698,202.596z
		 M29.493,203.802h-0.028l-1.604,5.464h3.279L29.493,203.802z"/>
	<path fill="#231F20" d="M40.378,202.596v1.135h-2.697v9.112h-1.305v-9.112H33.68v-1.135H40.378z"/>
	<path fill="#231F20" d="M43.502,212.843h-1.306v-10.247h1.306V212.843z"/>
	<path fill="#231F20" d="M45.867,209.095v-3.362c0-2.043,1.051-3.351,3.222-3.351c2.172,0,3.223,1.308,3.223,3.351v3.362
		c0,2.839-1.05,3.96-3.223,3.96C46.918,213.055,45.867,211.934,45.867,209.095z M50.977,209.152v-3.465
		c0-2.143-1.476-2.213-1.888-2.213c-0.411,0-1.887,0.07-1.887,2.213v3.465c0,2.242,0.652,2.81,1.887,2.81
		C50.325,211.962,50.977,211.396,50.977,209.152z"/>
	<path fill="#231F20" d="M61.653,202.596v10.247h-1.786l-4.046-8.885h-0.029v8.885h-1.163v-10.247h1.846l3.987,8.771h0.03v-8.771
		H61.653z"/>
	<path fill="#231F20" d="M66.676,202.596h1.662l3.334,10.247h-1.461l-0.739-2.44h-3.96l-0.767,2.44h-1.318L66.676,202.596z
		 M67.471,203.802h-0.028l-1.604,5.464h3.279L67.471,203.802z"/>
	<path fill="#231F20" d="M73.407,212.843v-10.247h1.307v9.112h3.761v1.135H73.407z"/>
	<path fill="#231F20" d="M82.036,202.596h3.149c1.306,0,2.244,0.467,2.754,1.562c0.412,0.866,0.455,2.909,0.455,3.235
		c0,2.186-0.199,3.448-0.625,4.129c-0.555,0.883-1.59,1.321-3.377,1.321h-2.356V202.596z M83.343,211.708h1.234
		c1.815,0,2.483-0.681,2.483-3.065v-2.072c0-2.073-0.64-2.84-2.004-2.84h-1.715L83.343,211.708L83.343,211.708z"/>
	<path fill="#231F20" d="M90.131,212.843v-10.247h5.279v1.135h-3.973v3.293h3.688v1.138h-3.688v3.548h4.06v1.135L90.131,212.843
		L90.131,212.843z"/>
	<path fill="#231F20" d="M97.376,212.843v-10.247h5.081v1.135h-3.775v3.293h3.575v1.138h-3.575v4.683L97.376,212.843L97.376,212.843
		z"/>
	<path fill="#231F20" d="M104.166,212.843v-10.247h5.281v1.135h-3.975v3.293h3.69v1.138h-3.69v3.548h4.06v1.135L104.166,212.843
		L104.166,212.843z"/>
	<path fill="#231F20" d="M118.529,202.596v10.247h-1.788l-4.046-8.885h-0.026v8.885h-1.165v-10.247h1.846l3.988,8.771h0.027v-8.771
		H118.529z"/>
	<path fill="#231F20" d="M121.939,209.791v0.297c0,1.393,0.881,1.832,1.719,1.832c1.035,0,1.83-0.439,1.83-1.661
		c0-2.27-4.6-2.016-4.6-5.095c0-1.816,1.291-2.782,3.01-2.782c1.875,0,2.924,0.909,2.84,2.994h-1.363
		c0.014-1.121-0.341-1.856-1.574-1.856c-0.781,0-1.576,0.396-1.576,1.504c0,2.256,4.599,1.93,4.599,5.181
		c0,2.157-1.489,2.853-3.181,2.853c-3.021,0.028-3.021-2.285-2.994-3.265L121.939,209.791L121.939,209.791z"/>
	<path fill="#231F20" d="M128.913,212.843v-10.247h5.278v1.135h-3.976v3.293h3.69v1.138h-3.69v3.548h4.06v1.135L128.913,212.843
		L128.913,212.843z"/>
	<path fill="#231F20" d="M12.723,227.036v-10.247h5.28v1.135h-3.974v3.293h3.69v1.137h-3.69v3.549h4.059v1.135L12.723,227.036
		L12.723,227.036z"/>
	<path fill="#231F20" d="M19.668,216.789h3.15c1.306,0,2.244,0.467,2.754,1.561c0.411,0.867,0.454,2.91,0.454,3.235
		c0,2.187-0.198,3.449-0.624,4.131c-0.553,0.882-1.59,1.32-3.378,1.32h-2.356V216.789z M20.975,225.9h1.234
		c1.817,0,2.484-0.681,2.484-3.064v-2.072c0-2.074-0.638-2.84-2.002-2.84h-1.716V225.9z"/>
	<path fill="#231F20" d="M27.867,216.789h1.306v6.559c0,2.241,0.681,2.809,1.916,2.809c1.235,0,1.917-0.566,1.917-2.809v-6.559
		h1.306v6.499c0,2.839-1.05,3.96-3.223,3.96c-2.171,0-3.222-1.121-3.222-3.96V216.789z"/>
	<path fill="#231F20" d="M40.749,219.611c0.014-0.581-0.029-1.163-0.298-1.487c-0.269-0.329-0.88-0.44-1.149-0.44
		c-1.079,0-1.505,0.652-1.547,0.793c-0.042,0.114-0.298,0.371-0.298,2.131v2.74c0,2.512,0.824,2.809,1.831,2.809
		c0.398,0,1.604-0.141,1.619-2.143h1.349c0.056,3.234-2.229,3.234-2.896,3.234c-1.277,0-3.236-0.083-3.236-4.061v-2.895
		c0-2.896,1.277-3.719,3.292-3.719c2.031,0,2.811,1.05,2.683,3.037H40.749L40.749,219.611z"/>
	<path fill="#231F20" d="M46.372,216.789h1.66l3.335,10.247h-1.461l-0.738-2.441h-3.96l-0.766,2.441h-1.32L46.372,216.789z
		 M47.167,217.995h-0.029l-1.604,5.463h3.279L47.167,217.995z"/>
	<path fill="#231F20" d="M57.683,216.789v1.135h-2.697v9.112h-1.305v-9.112h-2.697v-1.135H57.683z"/>
	<path fill="#231F20" d="M60.437,227.036h-1.305v-10.247h1.305V227.036z"/>
	<path fill="#231F20" d="M62.435,223.288v-3.362c0-2.044,1.051-3.351,3.222-3.351c2.172,0,3.224,1.307,3.224,3.351v3.362
		c0,2.839-1.051,3.96-3.224,3.96C63.486,227.248,62.435,226.127,62.435,223.288z M67.546,223.348v-3.466
		c0-2.143-1.478-2.214-1.889-2.214c-0.412,0-1.887,0.071-1.887,2.214v3.466c0,2.241,0.651,2.809,1.887,2.809
		C66.892,226.154,67.546,225.589,67.546,223.348z"/>
	<path fill="#231F20" d="M77.852,216.789v10.247h-1.788l-4.047-8.886H71.99v8.886h-1.165v-10.247h1.846l3.988,8.771h0.03v-8.771
		H77.852z"/>
	<path fill="#231F20" d="M81.953,227.036v-10.247h3.037c1.379,0,2.854,0.511,2.854,2.923c0,2.328-1.814,2.812-2.867,2.812H83.26
		v4.514L81.953,227.036L81.953,227.036z M83.26,221.387h1.434c0.539,0,1.816-0.143,1.816-1.746c0-1.561-1.162-1.717-1.447-1.717
		H83.26V221.387z"/>
	<path fill="#231F20" d="M90.753,222.323v4.713h-1.305v-10.247h3.534c1.814,0,2.455,1.277,2.455,2.555
		c0,1.205-0.67,2.129-1.873,2.34v0.03c1.176,0.185,1.604,0.582,1.674,2.64c0.014,0.439,0.156,2.043,0.354,2.684H94.23
		c-0.369-0.711-0.283-2.044-0.396-3.408c-0.1-1.247-1.109-1.305-1.549-1.305L90.753,222.323L90.753,222.323z M90.753,221.188h1.96
		c0.936,0,1.391-0.81,1.391-1.701c0-0.739-0.369-1.563-1.379-1.563h-1.972V221.188z"/>
	<path fill="#231F20" d="M97.079,223.288v-3.362c0-2.044,1.052-3.351,3.222-3.351c2.172,0,3.225,1.307,3.225,3.351v3.362
		c0,2.839-1.053,3.96-3.225,3.96C98.131,227.248,97.079,226.127,97.079,223.288z M102.189,223.348v-3.466
		c0-2.143-1.478-2.214-1.89-2.214c-0.411,0-1.887,0.071-1.887,2.214v3.466c0,2.241,0.651,2.809,1.887,2.809
		C101.536,226.156,102.189,225.589,102.189,223.348z"/>
	<path fill="#231F20" d="M110.348,219.527c0-1.207-0.494-1.859-1.814-1.859c-0.41,0-1.887,0.071-1.887,2.214v3.466
		c0,2.241,0.652,2.809,1.887,2.809c0.938,0,1.563-0.254,1.83-0.454v-3.063h-1.889v-1.136h3.196v4.981
		c-0.84,0.453-1.817,0.765-3.139,0.765c-2.173,0-3.222-1.121-3.222-3.96v-3.362c0-2.044,1.049-3.351,3.222-3.351
		c2.216,0,3.265,0.81,3.18,2.951H110.348L110.348,219.527z"/>
	<path fill="#231F20" d="M114.968,222.323v4.713h-1.305v-10.247h3.532c1.816,0,2.455,1.277,2.455,2.555
		c0,1.205-0.666,2.129-1.873,2.34v0.03c1.18,0.185,1.604,0.582,1.675,2.64c0.017,0.439,0.157,2.043,0.356,2.684h-1.363
		c-0.369-0.711-0.284-2.044-0.398-3.408c-0.1-1.247-1.105-1.305-1.545-1.305L114.968,222.323L114.968,222.323z M114.968,221.188
		h1.958c0.938,0,1.393-0.81,1.393-1.701c0-0.739-0.37-1.563-1.377-1.563h-1.974V221.188z"/>
	<path fill="#231F20" d="M124.139,216.789h1.662l3.334,10.247h-1.461l-0.74-2.441h-3.961l-0.764,2.441h-1.32L124.139,216.789
		L124.139,216.789z M124.934,217.995h-0.027l-1.604,5.463h3.279L124.934,217.995z"/>
	<path fill="#231F20" d="M131.732,227.036h-1.219v-10.247h2.113l2.582,8.602h0.027l2.613-8.602h2.154v10.247h-1.303v-9.112h-0.031
		l-2.867,9.112h-1.232l-2.812-9.112h-0.026V227.036L131.732,227.036z"/>
</g>
<line fill="none" x1="116.566" y1="119.294" x2="116.314" y2="119.294"/>
</svg>
