<?xml version="1.0" encoding="utf-8"?>
<!-- Generator: Adobe Illustrator 15.0.2, SVG Export Plug-In . SVG Version: 6.00 Build 0)  -->
<!DOCTYPE svg PUBLIC "-//W3C//DTD SVG 1.0//EN" "http://www.w3.org/TR/2001/REC-SVG-20010904/DTD/svg10.dtd">
<svg version="1.0" id="Layer_1" xmlns="http://www.w3.org/2000/svg" xmlns:xlink="http://www.w3.org/1999/xlink" x="0px" y="0px"
	 width="222px" height="72px" viewBox="0 0 222 72" enable-background="new 0 0 222 72" xml:space="preserve">
<g>
	<path fill="#FFD100" stroke="#005DAA" stroke-width="0.7" d="M67.55,37.24c0.08-0.62,0.08-1.53,0-2.13
		c-1.56-0.94-3.48-1.37-5.18-1.38c-0.06-0.82-0.19-1.65-0.33-2.47c1.63-0.43,3.39-1.35,4.65-2.67c-0.09-0.6-0.31-1.49-0.55-2.05
		c-1.75-0.5-3.72-0.42-5.35,0.02c-0.27-0.76-0.61-1.52-0.95-2.28c1.45-0.85,2.91-2.19,3.8-3.77c-0.24-0.57-0.7-1.37-1.07-1.85
		c-1.82-0.03-3.7,0.56-5.18,1.39c-0.47-0.67-0.98-1.33-1.51-1.99c1.2-1.2,2.25-2.87,2.7-4.63c-0.38-0.49-1.03-1.14-1.5-1.52
		c-1.77,0.45-3.43,1.5-4.63,2.69c-0.63-0.54-1.3-1.07-1.99-1.56c0.86-1.46,1.45-3.36,1.42-5.17c-0.5-0.39-1.28-0.83-1.85-1.06
		c-1.58,0.88-2.91,2.33-3.75,3.78c-0.76-0.36-1.57-0.7-2.4-1c0.45-1.62,0.54-3.6,0.03-5.35C43.36,4,42.48,3.77,41.87,3.68
		c-1.31,1.28-2.22,3.02-2.66,4.64C38.38,8.17,37.52,8.06,36.68,8c0.01-1.67-0.42-3.6-1.35-5.17c-0.62-0.08-1.53-0.08-2.13,0
		C32.27,4.4,31.84,6.32,31.84,8c-0.86,0.06-1.7,0.18-2.54,0.32c-0.44-1.63-1.36-3.39-2.67-4.65c-0.61,0.09-1.5,0.32-2.05,0.55
		c-0.49,1.75-0.42,3.72,0.02,5.36c-0.8,0.31-1.62,0.66-2.4,1.02c-0.85-1.45-2.19-2.91-3.77-3.8c-0.57,0.24-1.36,0.7-1.85,1.07
		c-0.03,1.82,0.56,3.71,1.41,5.18c-0.63,0.47-1.26,0.96-1.87,1.47c-1.2-1.2-2.87-2.25-4.63-2.71c-0.49,0.39-1.14,1.04-1.52,1.51
		c0.45,1.77,1.51,3.43,2.69,4.63c-0.53,0.66-1.06,1.35-1.56,2.06c-1.45-0.85-3.34-1.44-5.16-1.42c-0.38,0.49-0.82,1.29-1.06,1.85
		c0.89,1.6,2.34,2.92,3.8,3.78c-0.33,0.74-0.65,1.5-0.94,2.27c-1.64-0.43-3.62-0.52-5.36-0.01c-0.24,0.57-0.47,1.45-0.56,2.05
		c1.27,1.31,3.02,2.22,4.65,2.65c-0.12,0.81-0.23,1.65-0.32,2.48c-1.69,0-3.63,0.43-5.19,1.36c-0.08,0.62-0.08,1.53,0,2.14
		c1.56,0.93,3.48,1.36,5.18,1.36c0.08,0.85,0.21,1.7,0.35,2.54c-1.63,0.45-3.39,1.38-4.65,2.68c0.09,0.6,0.32,1.49,0.55,2.06
		c1.75,0.49,3.71,0.42,5.36-0.02c0.3,0.77,0.63,1.54,0.99,2.27c-1.45,0.84-2.91,2.18-3.8,3.76c0.24,0.57,0.7,1.36,1.07,1.85
		c1.82,0.03,3.7-0.56,5.16-1.4c0.49,0.7,1.01,1.37,1.55,2.02c-1.2,1.18-2.25,2.86-2.7,4.62c0.39,0.5,1.03,1.15,1.5,1.52
		c1.77-0.45,3.43-1.51,4.63-2.68c0.64,0.53,1.32,1.05,2.02,1.55c-0.83,1.46-1.42,3.35-1.4,5.18c0.49,0.37,1.29,0.82,1.84,1.07
		c1.59-0.89,2.93-2.34,3.78-3.81c0.72,0.32,1.47,0.62,2.24,0.91c-0.43,1.62-0.52,3.6-0.01,5.35c0.57,0.24,1.45,0.47,2.06,0.56
		c1.31-1.27,2.22-3.02,2.64-4.64c0.81,0.17,1.67,0.28,2.55,0.35c0.01,1.68,0.44,3.61,1.37,5.17c0.62,0.08,1.53,0.08,2.13,0
		c0.94-1.56,1.36-3.49,1.37-5.18c0.81-0.06,1.64-0.2,2.43-0.34c0.43,1.63,1.35,3.39,2.66,4.65c0.61-0.09,1.5-0.32,2.06-0.55
		c0.49-1.75,0.42-3.71-0.02-5.37c0.79-0.3,1.56-0.64,2.32-1c0.85,1.45,2.19,2.91,3.77,3.8c0.57-0.24,1.36-0.7,1.85-1.07
		c0.03-1.82-0.56-3.71-1.4-5.18c0.66-0.46,1.31-0.98,1.94-1.51c1.21,1.19,2.88,2.25,4.64,2.7c0.5-0.39,1.15-1.04,1.52-1.51
		c-0.45-1.77-1.51-3.43-2.69-4.63c0.53-0.64,1.04-1.32,1.54-2.03c1.46,0.84,3.35,1.43,5.16,1.4c0.39-0.5,0.83-1.28,1.07-1.85
		c-0.88-1.58-2.33-2.91-3.77-3.78c0.34-0.74,0.65-1.5,0.93-2.26c1.62,0.44,3.59,0.53,5.34,0.02c0.24-0.57,0.47-1.45,0.56-2.06
		c-1.28-1.31-3.02-2.22-4.63-2.65c0.15-0.79,0.25-1.62,0.33-2.43C64.06,38.6,65.99,38.18,67.55,37.24z M37.83,17.44
		c4.45,1.07,7.69,2.96,10.84,6.26c0.66,0.7,0.19,0.96-0.34,1.21l-9.3,4.5c-0.67,0.33-1.27,0.01-1.32-0.76l-0.75-10.3
		C36.88,17.29,37.32,17.32,37.83,17.44z M19.88,23.78c3.14-3.3,6.39-5.19,10.84-6.25c0.5-0.13,0.94-0.15,0.87,0.9l-0.75,10.31
		c-0.05,0.77-0.65,1.09-1.32,0.76l-9.3-4.5C19.7,24.74,19.22,24.49,19.88,23.78z M17.55,42.74c-0.88,0.6-1.06,0.2-1.21-0.31
		c-1.31-4.39-1.29-8.15,0-12.52c0.28-0.92,0.73-0.64,1.22-0.31l8.54,5.81c0.62,0.42,0.64,1.09,0,1.52L17.55,42.74z M30.88,54.86
		c-4.45-1.06-7.69-2.95-10.84-6.26c-0.66-0.69-0.17-0.95,0.34-1.2l9.3-4.51c0.67-0.32,1.26,0,1.32,0.76l0.76,10.32
		C31.83,55.02,31.4,54.99,30.88,54.86z M34.25,39.95c-2.1,0-3.8-1.7-3.8-3.8c0-1.75,1.18-3.23,2.79-3.66l0.06-1.02h1.67l0.05,0.97
		c1.73,0.36,3.02,1.89,3.02,3.72C38.05,38.25,36.35,39.95,34.25,39.95z M48.69,48.48c-3.15,3.32-6.4,5.19-10.83,6.26
		c-0.93,0.23-0.91-0.32-0.87-0.9l0.75-10.31c0.05-0.73,0.62-1.1,1.31-0.76l9.3,4.5C49.31,47.73,49.05,48.09,48.69,48.48z
		 M52.23,42.37c-0.28,0.92-0.73,0.64-1.22,0.31l-8.54-5.81c-0.62-0.42-0.64-1.09,0-1.52l8.54-5.8c0.88-0.59,1.07-0.2,1.22,0.3
		C53.53,34.23,53.51,37.99,52.23,42.37z"/>
	<g>
		<path fill="#005DAA" d="M59.02,45.86c-3.9,9.9-13.58,16.93-24.78,16.93c-11.2,0-20.85-7-24.74-16.89
			c-0.21-0.54,0.04-0.93,0.46-1.07l3.96-1.36c0.22-0.07,0.77-0.08,1,0.5c3.08,7.69,10.67,13.07,19.33,13.07
			c8.65,0,16.11-5.27,19.31-12.95c0.3-0.7,0.84-0.69,1.06-0.62l3.96,1.36C58.98,44.97,59.22,45.35,59.02,45.86z"/>
		<path fill="#005DAA" d="M53.97,18.22c5.52,5.82,8.33,14.76,6.28,23.86c-0.11,0.45-0.45,0.78-0.98,0.63l-3.96-1.16
			c-0.37-0.09-0.68-0.48-0.65-0.97c1.42-7.38-0.4-13.36-4.72-18.16c-0.44-0.31-0.48-0.94-0.06-1.4l2.87-2.87
			C52.94,17.81,53.57,17.75,53.97,18.22z"/>
		<path fill="#005DAA" d="M46.98,19.59c-3.52-2.74-7.98-4.34-12.75-4.34c-4.77,0-9.23,1.6-12.72,4.34c-0.55,0.44-0.96,0.5-1.35,0.08
			l-2.76-3.05c-0.31-0.35-0.32-0.83,0.25-1.3c4.55-3.62,10.33-5.84,16.58-5.84c6.24,0,11.97,2.22,16.58,5.83
			c0.59,0.48,0.59,0.96,0.29,1.31l-2.76,3.05C47.95,20.09,47.54,20.02,46.98,19.59z"/>
		<path fill="#005DAA" d="M14.59,18.27c-5.51,5.81-8.31,14.72-6.25,23.81c0.11,0.45,0.45,0.78,0.98,0.63l3.96-1.16
			c0.37-0.09,0.68-0.48,0.65-0.97c-1.42-7.38,0.4-13.36,4.72-18.16c0.44-0.31,0.48-0.94,0.07-1.4l-2.87-2.87
			C15.54,17.81,15.04,17.81,14.59,18.27z"/>
	</g>
	<path fill="none" stroke="#005DAA" stroke-width="0.7" d="M34.24,29.8c3.49,0,6.33,2.85,6.33,6.34c0,3.49-2.85,6.33-6.33,6.33
		c-3.49,0-6.34-2.84-6.34-6.33C27.9,32.65,30.75,29.8,34.24,29.8z"/>
	<g>
		<path fill="#FFD100" d="M47.46,55.96c-0.58-1-1.88-1.33-2.88-0.76c-0.67,0.39-1.04,1.08-1.05,1.8c0,0.3,0.07,0.6,0.19,0.88
			c0.03,0.07,0.06,0.12,0.1,0.18c0.58,1.02,1.88,1.36,2.87,0.78c0.4-0.23,0.69-0.57,0.87-0.96c0.12-0.28,0.19-0.58,0.19-0.88
			C47.73,56.65,47.64,56.29,47.46,55.96z M46.31,58.17c-0.57,0.33-1.29,0.21-1.7-0.29c-0.05-0.07-0.1-0.13-0.14-0.21
			c-0.12-0.21-0.18-0.44-0.19-0.67c0-0.47,0.24-0.92,0.68-1.18c0.65-0.37,1.47-0.16,1.85,0.49c0.12,0.22,0.19,0.45,0.19,0.68
			c0,0.32-0.12,0.64-0.34,0.88C46.57,57.99,46.44,58.09,46.31,58.17z"/>
		<path fill="#FFD100" d="M11.67,48.77l3.64-2.11c0.16,0.29,0.25,0.47,0.45,0.79l-3.65,2.11C11.95,49.31,11.8,49.02,11.67,48.77z"/>
		<path fill="#FFD100" d="M42.5,60.68l-1.38-3.98c0.33-0.1,0.51-0.15,0.86-0.29l1.39,3.98C43.08,60.5,42.77,60.59,42.5,60.68z"/>
		<path fill="#FFD100" d="M16.85,55.3l2.31-2.59c-0.34-0.33-0.64-0.64-0.99-0.95l0.5-0.51c0.89,0.84,1.66,1.46,2.63,2.27l-0.43,0.56
			c-0.38-0.29-0.74-0.54-1.1-0.82l-2.24,2.64L16.85,55.3z"/>
		<path fill="#FFD100" d="M38.77,61.67l-0.61-3.42c-0.48,0.06-0.89,0.12-1.35,0.2l-0.1-0.71c1.21-0.19,2.18-0.41,3.41-0.69l0.18,0.7
			c-0.45,0.12-0.88,0.24-1.33,0.35l0.71,3.39L38.77,61.67z"/>
		<path fill="#FFD100" d="M36.05,59.64l-0.73-1.76l-0.04-0.11l-0.94,0.03l-0.02,0.08l-0.58,1.76l-0.78,2.34
			C33.23,62,33.52,62,33.8,62.03l0.23-0.75l1.83-0.06l0.27,0.71c0.27-0.03,0.55-0.05,0.83-0.07L36.05,59.64z M34.28,60.51l0.29-0.87
			l0.28-0.87l0.34,0.87l0.33,0.82L34.28,60.51z"/>
		<path fill="#FFD100" d="M51.38,49.38l-0.59,0.74l0.61,1.02l1.67,2.75c0.2-0.21,0.38-0.42,0.57-0.62l-0.42-0.66l1.15-1.43
			l0.71,0.27c0.07-0.11,0.14-0.21,0.22-0.31c0.09-0.12,0.18-0.25,0.27-0.37L51.38,49.38z M52.82,51.92l-0.47-0.78l-0.48-0.78
			l1.73,0.59l-0.16,0.2L52.82,51.92z"/>
		<polygon fill="#FFD100" points="56.27,49.84 52.56,47.79 52.96,47.07 56.03,48.77 57.05,46.94 57.7,47.29 		"/>
		<path fill="#FFD100" d="M28.4,61.41l0.97-4.16c0.29,0.04,0.45,0.13,0.75,0.19l1.24,2.8l0.29-2.57c0.26,0.05,0.55,0.01,0.8,0.03
			L31.98,62c-0.33,0.01-0.65-0.09-0.92-0.12l-1.25-2.84l-0.54,2.53C28.97,61.52,28.68,61.48,28.4,61.41z"/>
		<path fill="#FFD100" d="M49.74,56.89l-2.54-3.44c0.22-0.19,0.38-0.25,0.63-0.44l2.95,0.87l-1.77-1.89
			c0.21-0.17,0.38-0.41,0.55-0.58l2.95,3.13c-0.2,0.25-0.47,0.44-0.68,0.63l-2.97-0.89l1.56,2.06
			C50.19,56.52,49.97,56.72,49.74,56.89z"/>
		<path fill="#FFD100" d="M12.69,50.56l3.54-2.39c0.19,0.23,0.24,0.4,0.43,0.65l-1,2.91l1.97-1.7c0.17,0.22,0.38,0.39,0.56,0.59
			l-3.26,2.8c-0.25-0.21-0.42-0.49-0.59-0.7l1.01-2.93l-2.12,1.47C13.04,51.02,12.85,50.8,12.69,50.56z"/>
		<path fill="#FFD100" d="M27.39,56.73L25.48,56l-0.7,1.63l-0.1,0.25l-0.85,1.98c0.28,0.14,0.55,0.23,0.81,0.32l0.66-1.63l0.84,0.35
			l0.04,1.86c0.32,0.12,0.63,0.21,0.91,0.27l-0.13-1.96c0.61-0.08,0.99-0.64,1.05-1.2c0.01-0.08,0.01-0.17,0.01-0.25
			C27.99,57.25,27.79,56.88,27.39,56.73z M26.58,58.28l-0.97-0.37l0.01-0.02l0.09-0.25l0.24-0.67l1.06,0.4
			c0.13,0.05,0.2,0.15,0.22,0.27c0.01,0.08,0,0.17-0.03,0.25C27.11,58.15,26.86,58.39,26.58,58.28z"/>
		<path fill="#FFD100" d="M19.75,57.6l2.38-3.51c0.75,0.49,1.55,1.02,2.41,1.46l-0.38,0.62c-0.61-0.3-1.2-0.62-1.77-0.94l-0.51,0.76
			c0.43,0.27,0.86,0.54,1.28,0.75l-0.38,0.58l-1.27-0.76l-0.63,0.93l1.91,1.13l-0.38,0.61C21.48,58.7,20.65,58.19,19.75,57.6z"/>
		<path fill="#FFD100" d="M29.67,13.08c-0.1-1.16-1.13-2.01-2.29-1.91c-1.09,0.1-1.92,1-1.92,2.09c0,0.06,0.01,0.12,0.01,0.19
			c0.11,1.17,1.13,2.02,2.28,1.93c1.1-0.11,1.94-1.03,1.94-2.11C29.68,13.19,29.67,13.14,29.67,13.08z M27.7,14.6
			c-0.73,0.07-1.39-0.47-1.46-1.23c0-0.03,0-0.07,0-0.11c-0.01-0.72,0.52-1.3,1.23-1.35c0.75-0.07,1.4,0.47,1.46,1.22
			c0,0.04,0.01,0.09,0,0.13C28.94,13.96,28.41,14.54,27.7,14.6z"/>
		<path fill="#FFD100" d="M37.58,12.23l-0.51-1.87l-0.93-0.09l-0.94,1.96l-1.06,2.18c0.36,0.01,0.51,0,0.87,0.02l0.39-0.73
			c0.58,0.02,1.14,0.04,1.76,0.14l0.24,0.78c0.3,0.03,0.54,0.07,0.87,0.13L37.58,12.23z M35.71,12.99l0.38-0.76l0.44-0.9l0.25,0.9
			l0.24,0.89C36.59,13.05,36.15,13.01,35.71,12.99z"/>
		<path fill="#FFD100" d="M31.88,14.55l-0.36-3.44l-1.34,0.19l-0.1-0.74c1.52-0.22,2.14-0.27,3.65-0.36l0.05,0.75l-1.35,0.09
			l0.35,3.44L31.88,14.55z"/>
		<path fill="#FFD100" d="M45.59,14.52l-0.3-1.83c-0.35-0.17-0.56-0.25-0.93-0.4l0.48,2.68l-0.91,1.74l0.79,0.43l0.91-1.75
			l2.47-1.15c-0.25-0.19-0.54-0.32-0.8-0.48L45.59,14.52z"/>
		<path fill="#FFD100" d="M43.04,12.61c-0.02-0.47-0.23-0.9-0.64-1.03c-0.69-0.22-1.39-0.46-2.09-0.64l-0.51,1.67l-0.69,2.33
			c0.38,0.1,0.6,0.14,0.95,0.24l0.4-1.47l0.81,0.25l0.21,1.65c0.35,0.13,0.58,0.22,0.88,0.34l-0.25-1.88
			C42.75,13.93,43.07,13.24,43.04,12.61z M41.6,13.29l-0.95-0.31l0.1-0.36l0.2-0.67c0.39,0.11,0.62,0.16,0.98,0.28
			c0.21,0.07,0.27,0.21,0.27,0.38C42.19,12.95,41.86,13.36,41.6,13.29z"/>
		<path fill="#FFD100" d="M24.75,16.55c0.34-0.15,0.56-0.26,0.86-0.4l-1.53-1.12c0.09-0.15,0.13-0.3,0.15-0.45
			c0.08-0.9-1-1.9-1.75-1.49c-0.64,0.34-1.29,0.67-1.91,1.06l0.24,0.43l1.8,3.21c0.34-0.2,0.53-0.33,0.85-0.51l-0.79-1.31l0.75-0.41
			L24.75,16.55z M23.16,14.85l-0.88,0.46l-0.43-0.73l-0.11-0.19c0.35-0.21,0.55-0.33,0.89-0.51c0.42-0.24,0.72,0.31,0.68,0.7
			C23.3,14.7,23.24,14.8,23.16,14.85z"/>
	</g>
</g>
<g>
	<path fill="#4678C8" d="M104.82,29.67h-7.35v-0.83c0.27-0.01,0.61-0.03,1.03-0.08c0.42-0.05,0.71-0.11,0.86-0.2
		c0.24-0.15,0.42-0.32,0.53-0.51c0.11-0.19,0.17-0.43,0.17-0.72V15.24h-0.18L94.21,29.4h-0.59l-5.4-14.46h-0.15v9.93
		c0,0.96,0.06,1.69,0.18,2.19s0.31,0.86,0.56,1.08c0.17,0.16,0.53,0.32,1.07,0.47s0.89,0.23,1.06,0.23v0.83h-6.72v-0.83
		c0.35-0.03,0.72-0.09,1.11-0.18c0.39-0.09,0.69-0.21,0.9-0.39c0.27-0.22,0.46-0.55,0.56-1.01c0.1-0.45,0.15-1.21,0.15-2.27v-8.51
		c0-0.49-0.06-0.9-0.18-1.21c-0.12-0.31-0.28-0.57-0.5-0.76c-0.24-0.21-0.54-0.37-0.89-0.47c-0.35-0.1-0.7-0.16-1.04-0.18v-0.83
		h5.67l4.76,12.48l4.07-10.44c0.15-0.38,0.27-0.78,0.38-1.2c0.1-0.42,0.16-0.7,0.17-0.84h5.42v0.83c-0.22,0.01-0.5,0.04-0.84,0.1
		c-0.34,0.06-0.59,0.12-0.74,0.18c-0.27,0.09-0.44,0.25-0.54,0.47c-0.09,0.22-0.14,0.46-0.14,0.71v11.99c0,0.27,0.05,0.5,0.14,0.69
		c0.09,0.19,0.27,0.35,0.54,0.49c0.14,0.08,0.39,0.15,0.75,0.22s0.65,0.1,0.85,0.11L104.82,29.67L104.82,29.67z"/>
	<path fill="#4678C8" d="M118.02,23.78c0,0.81-0.13,1.61-0.39,2.4c-0.26,0.79-0.63,1.45-1.1,2c-0.54,0.63-1.17,1.09-1.88,1.4
		c-0.71,0.31-1.51,0.46-2.39,0.46c-0.73,0-1.43-0.14-2.1-0.42s-1.25-0.68-1.77-1.21c-0.51-0.52-0.91-1.16-1.21-1.92
		c-0.3-0.75-0.45-1.6-0.45-2.54c0-1.8,0.53-3.28,1.58-4.43c1.05-1.15,2.43-1.72,4.13-1.72c1.62,0,2.96,0.54,4.01,1.63
		C117.5,20.52,118.02,21.97,118.02,23.78z M115.6,23.8c0-0.59-0.06-1.2-0.18-1.86c-0.12-0.65-0.29-1.2-0.53-1.66
		c-0.25-0.48-0.58-0.87-0.99-1.17c-0.41-0.29-0.9-0.44-1.49-0.44c-0.6,0-1.12,0.15-1.54,0.44c-0.43,0.3-0.77,0.7-1.04,1.22
		c-0.25,0.48-0.43,1.02-0.53,1.63s-0.15,1.2-0.15,1.77c0,0.75,0.06,1.44,0.18,2.08c0.12,0.64,0.31,1.2,0.58,1.7s0.6,0.89,1,1.18
		c0.4,0.29,0.9,0.43,1.5,0.43c0.98,0,1.75-0.47,2.33-1.42C115.31,26.77,115.6,25.47,115.6,23.8z"/>
	<path fill="#4678C8" d="M132.45,29.67h-5.65V28.9c0.18-0.02,0.38-0.03,0.59-0.05s0.39-0.05,0.53-0.09
		c0.22-0.07,0.38-0.19,0.49-0.37c0.11-0.18,0.16-0.4,0.16-0.69v-5.94c0-0.82-0.19-1.45-0.58-1.9c-0.39-0.45-0.86-0.67-1.42-0.67
		c-0.42,0-0.8,0.06-1.14,0.19c-0.35,0.13-0.65,0.29-0.92,0.48c-0.26,0.18-0.46,0.37-0.62,0.58s-0.26,0.37-0.33,0.5v6.65
		c0,0.27,0.05,0.48,0.16,0.66c0.11,0.17,0.27,0.3,0.49,0.4c0.16,0.08,0.34,0.14,0.53,0.18s0.39,0.07,0.59,0.08v0.77h-5.66V28.9
		c0.18-0.02,0.36-0.03,0.56-0.05c0.19-0.02,0.36-0.05,0.5-0.09c0.22-0.07,0.38-0.19,0.49-0.37c0.1-0.18,0.16-0.4,0.16-0.69v-7.13
		c0-0.27-0.06-0.51-0.17-0.73c-0.11-0.22-0.27-0.4-0.47-0.54c-0.15-0.09-0.32-0.16-0.53-0.21c-0.2-0.04-0.42-0.07-0.66-0.09v-0.77
		l3.84-0.26l0.16,0.16v1.63h0.06c0.19-0.19,0.42-0.41,0.7-0.67c0.28-0.26,0.55-0.48,0.8-0.64c0.29-0.19,0.63-0.34,1.03-0.47
		s0.85-0.19,1.35-0.19c1.11,0,1.93,0.35,2.47,1.04s0.8,1.61,0.8,2.76v6.01c0,0.27,0.05,0.49,0.14,0.66c0.09,0.17,0.25,0.3,0.48,0.39
		c0.19,0.08,0.35,0.13,0.49,0.16c0.14,0.03,0.33,0.05,0.57,0.07V29.67z"/>
	<path fill="#4678C8" d="M141,29.17c-0.51,0.21-0.99,0.39-1.44,0.53s-1.01,0.22-1.66,0.22c-0.97,0-1.65-0.24-2.04-0.73
		c-0.39-0.49-0.59-1.18-0.59-2.07v-7.83h-2.09v-1.13h2.13v-3.6h2.13v3.6h3.32v1.13h-3.29v6.46c0,0.48,0.02,0.89,0.05,1.21
		c0.04,0.32,0.12,0.61,0.25,0.85c0.13,0.23,0.31,0.4,0.56,0.52c0.25,0.12,0.59,0.18,1.01,0.18c0.2,0,0.48-0.02,0.86-0.05
		c0.38-0.04,0.65-0.08,0.8-0.14L141,29.17L141,29.17z"/>
	<path fill="#4678C8" d="M152.05,28.48c0.31,0.3,0.56,0.63,0.74,1.01s0.27,0.84,0.27,1.4c0,0.56-0.12,1.08-0.36,1.56
		c-0.24,0.49-0.61,0.91-1.1,1.27c-0.52,0.37-1.15,0.65-1.88,0.85c-0.73,0.2-1.63,0.31-2.7,0.31c-1.75,0-3.06-0.26-3.93-0.77
		c-0.87-0.51-1.3-1.26-1.3-2.24c0-0.8,0.31-1.43,0.94-1.89s1.42-0.71,2.39-0.75v-0.16c-0.23-0.07-0.48-0.16-0.73-0.26
		s-0.46-0.23-0.64-0.37c-0.2-0.16-0.37-0.36-0.49-0.58s-0.19-0.5-0.19-0.83c0-0.41,0.15-0.79,0.44-1.14
		c0.29-0.35,0.74-0.65,1.33-0.9v-0.17c-0.75-0.35-1.33-0.8-1.75-1.35c-0.41-0.55-0.62-1.19-0.62-1.92c0-1.09,0.41-1.99,1.22-2.69
		c0.82-0.7,1.86-1.06,3.13-1.06c0.35,0,0.7,0.04,1.05,0.1s0.7,0.16,1.06,0.27h4.03v1.13h-2.72v0.07c0.29,0.34,0.5,0.71,0.65,1.11
		c0.14,0.41,0.21,0.8,0.21,1.19c0,1.02-0.41,1.88-1.24,2.58c-0.82,0.7-1.78,1.05-2.88,1.05h-1.42c-0.18,0.06-0.37,0.18-0.56,0.34
		c-0.2,0.16-0.29,0.39-0.29,0.67c0,0.29,0.08,0.51,0.25,0.66c0.16,0.15,0.36,0.26,0.6,0.31c0.23,0.06,0.49,0.1,0.79,0.12
		c0.3,0.02,0.61,0.03,0.93,0.04c0.34,0.01,0.81,0.03,1.41,0.07s1.02,0.06,1.27,0.07c0.36,0.02,0.72,0.1,1.08,0.26
		C151.43,27.99,151.76,28.21,152.05,28.48z M151.14,31.31c0-0.44-0.1-0.8-0.3-1.08c-0.2-0.28-0.51-0.47-0.93-0.57
		c-0.22-0.03-0.67-0.07-1.35-0.1c-0.68-0.04-1.47-0.06-2.37-0.06c-0.84,0.16-1.44,0.44-1.8,0.83c-0.36,0.39-0.53,0.88-0.53,1.49
		c0,0.27,0.06,0.54,0.18,0.79s0.32,0.48,0.61,0.69c0.27,0.2,0.64,0.37,1.1,0.5s1.02,0.19,1.69,0.19c1.15,0,2.05-0.22,2.71-0.66
		C150.81,32.88,151.14,32.21,151.14,31.31z M148.89,21.62c0-0.91-0.19-1.64-0.56-2.19s-0.89-0.81-1.56-0.81
		c-0.37,0-0.68,0.08-0.94,0.23s-0.48,0.37-0.64,0.65c-0.16,0.26-0.27,0.57-0.33,0.93c-0.07,0.36-0.1,0.74-0.1,1.12
		c0,0.87,0.19,1.57,0.57,2.12c0.38,0.55,0.87,0.82,1.47,0.82c0.67,0,1.19-0.27,1.55-0.81C148.71,23.14,148.89,22.45,148.89,21.62z"
		/>
	<path fill="#4678C8" d="M165.65,23.78c0,0.81-0.13,1.61-0.39,2.4c-0.26,0.79-0.63,1.45-1.1,2c-0.54,0.63-1.17,1.09-1.88,1.4
		c-0.71,0.31-1.51,0.46-2.39,0.46c-0.73,0-1.44-0.14-2.1-0.42c-0.67-0.28-1.26-0.68-1.77-1.21c-0.51-0.52-0.91-1.16-1.21-1.92
		c-0.3-0.75-0.45-1.6-0.45-2.54c0-1.8,0.53-3.28,1.58-4.43c1.05-1.15,2.43-1.72,4.13-1.72c1.62,0,2.96,0.54,4.01,1.63
		C165.12,20.52,165.65,21.97,165.65,23.78z M163.22,23.8c0-0.59-0.06-1.2-0.18-1.86c-0.12-0.65-0.29-1.2-0.53-1.66
		c-0.25-0.48-0.58-0.87-0.99-1.17c-0.41-0.29-0.9-0.44-1.49-0.44c-0.6,0-1.12,0.15-1.54,0.44c-0.43,0.3-0.77,0.7-1.04,1.22
		c-0.25,0.48-0.43,1.02-0.53,1.63c-0.1,0.61-0.15,1.2-0.15,1.77c0,0.75,0.06,1.44,0.18,2.08c0.12,0.64,0.31,1.2,0.58,1.7
		c0.27,0.5,0.6,0.89,1,1.18s0.9,0.43,1.5,0.43c0.98,0,1.75-0.47,2.32-1.42C162.94,26.77,163.22,25.47,163.22,23.8z"/>
	<path fill="#4678C8" d="M187.08,29.67h-5.63V28.9c0.18-0.02,0.36-0.03,0.54-0.05s0.35-0.05,0.49-0.09
		c0.22-0.07,0.38-0.19,0.49-0.37c0.1-0.18,0.16-0.4,0.16-0.69v-5.96c0-0.81-0.19-1.44-0.56-1.88c-0.37-0.44-0.83-0.66-1.39-0.66
		c-0.38,0-0.74,0.06-1.08,0.18s-0.64,0.28-0.93,0.49c-0.23,0.17-0.42,0.36-0.57,0.56c-0.15,0.2-0.27,0.37-0.35,0.5v6.67
		c0,0.27,0.05,0.5,0.14,0.67c0.09,0.18,0.25,0.31,0.48,0.4c0.18,0.07,0.34,0.12,0.49,0.16c0.14,0.03,0.33,0.06,0.57,0.08v0.77h-5.51
		V28.9c0.18-0.02,0.35-0.03,0.52-0.05s0.32-0.05,0.46-0.09c0.22-0.07,0.38-0.19,0.49-0.37c0.11-0.18,0.16-0.4,0.16-0.69v-5.96
		c0-0.81-0.19-1.44-0.56-1.88c-0.37-0.44-0.84-0.66-1.39-0.66c-0.38,0-0.74,0.06-1.08,0.18c-0.34,0.12-0.65,0.29-0.93,0.5
		c-0.23,0.17-0.42,0.37-0.58,0.58s-0.27,0.38-0.35,0.49v6.62c0,0.27,0.06,0.49,0.16,0.67c0.11,0.18,0.27,0.32,0.49,0.41
		c0.16,0.08,0.33,0.14,0.5,0.18s0.36,0.07,0.57,0.08v0.77h-5.61V28.9c0.18-0.02,0.37-0.03,0.56-0.05c0.19-0.02,0.36-0.05,0.5-0.09
		c0.22-0.07,0.38-0.19,0.49-0.37c0.1-0.18,0.16-0.4,0.16-0.69v-7.17c0-0.25-0.06-0.47-0.17-0.67c-0.11-0.2-0.27-0.37-0.48-0.51
		c-0.15-0.09-0.33-0.17-0.55-0.23s-0.45-0.1-0.68-0.11v-0.77l3.87-0.26l0.16,0.16v1.65h0.08c0.2-0.19,0.43-0.43,0.71-0.69
		s0.54-0.48,0.79-0.65c0.27-0.19,0.62-0.34,1.02-0.47c0.41-0.13,0.85-0.19,1.33-0.19c0.75,0,1.4,0.2,1.93,0.6
		c0.54,0.4,0.93,0.89,1.16,1.46c0.28-0.27,0.53-0.51,0.74-0.72s0.5-0.43,0.85-0.66c0.3-0.2,0.65-0.37,1.05-0.49
		c0.4-0.13,0.85-0.19,1.34-0.19c0.98,0,1.75,0.32,2.32,0.96c0.57,0.64,0.85,1.63,0.85,2.95v5.87c0,0.27,0.05,0.5,0.14,0.67
		c0.09,0.18,0.25,0.31,0.48,0.4c0.18,0.07,0.36,0.12,0.53,0.16c0.18,0.03,0.37,0.06,0.59,0.08L187.08,29.67L187.08,29.67z"/>
	<path fill="#4678C8" d="M198.72,26.96c-0.48,0.92-1.13,1.66-1.95,2.2c-0.81,0.55-1.75,0.82-2.8,0.82c-0.93,0-1.74-0.16-2.44-0.49
		c-0.7-0.33-1.27-0.77-1.73-1.34c-0.45-0.56-0.79-1.22-1.01-1.97s-0.33-1.54-0.33-2.38c0-0.75,0.12-1.49,0.36-2.21
		c0.24-0.72,0.59-1.37,1.05-1.95c0.45-0.56,1-1,1.66-1.34c0.66-0.34,1.4-0.51,2.22-0.51c0.84,0,1.57,0.13,2.17,0.4
		s1.09,0.63,1.46,1.09c0.36,0.44,0.63,0.95,0.8,1.55c0.18,0.59,0.26,1.24,0.26,1.93v0.77h-7.65c0,0.76,0.07,1.45,0.22,2.07
		c0.15,0.62,0.37,1.16,0.69,1.63c0.3,0.45,0.7,0.81,1.19,1.08c0.49,0.26,1.08,0.39,1.76,0.39c0.69,0,1.29-0.16,1.8-0.49
		s0.99-0.91,1.46-1.76L198.72,26.96z M196.13,22.55c0-0.44-0.04-0.9-0.11-1.4s-0.19-0.92-0.36-1.25c-0.18-0.36-0.43-0.65-0.74-0.88
		s-0.71-0.34-1.21-0.34c-0.82,0-1.5,0.34-2.04,1.02c-0.54,0.68-0.84,1.63-0.88,2.84H196.13z"/>
	<path fill="#4678C8" d="M208.9,19.61c0,0.4-0.1,0.75-0.29,1.06s-0.5,0.46-0.9,0.46c-0.44,0-0.77-0.11-1-0.34s-0.35-0.48-0.35-0.75
		c0-0.17,0.01-0.33,0.04-0.47c0.03-0.14,0.05-0.28,0.08-0.42c-0.37,0-0.8,0.15-1.29,0.45c-0.49,0.3-0.91,0.72-1.25,1.27v6.73
		c0,0.27,0.05,0.5,0.16,0.67c0.1,0.17,0.27,0.3,0.5,0.39c0.2,0.08,0.45,0.14,0.76,0.18c0.31,0.04,0.58,0.07,0.8,0.08v0.77h-6.09
		V28.9c0.18-0.02,0.36-0.03,0.56-0.05c0.19-0.02,0.36-0.05,0.5-0.09c0.22-0.07,0.38-0.19,0.49-0.37c0.1-0.18,0.16-0.4,0.16-0.69
		v-7.13c0-0.24-0.06-0.48-0.17-0.71c-0.11-0.23-0.27-0.42-0.48-0.56c-0.15-0.09-0.32-0.16-0.53-0.2s-0.42-0.07-0.66-0.09v-0.77
		l3.84-0.26l0.16,0.16v1.63h0.06c0.48-0.63,1.02-1.11,1.62-1.44s1.14-0.49,1.63-0.49s0.89,0.16,1.2,0.48
		C208.75,18.64,208.9,19.07,208.9,19.61z"/>
	<path fill="#4678C8" d="M209.01,33.45c0-0.39,0.11-0.71,0.32-0.95c0.21-0.25,0.48-0.37,0.8-0.37c0.25,0,0.46,0.05,0.64,0.14
		c0.18,0.09,0.34,0.21,0.48,0.36c0.12,0.12,0.24,0.27,0.37,0.48c0.13,0.2,0.24,0.37,0.32,0.5c0.39-0.21,0.86-0.76,1.4-1.65
		c0.54-0.89,0.94-1.67,1.18-2.34c-0.74-1.85-1.41-3.51-2.02-4.97c-0.6-1.46-1.23-2.97-1.89-4.53c-0.15-0.36-0.4-0.64-0.75-0.84
		c-0.35-0.2-0.7-0.33-1.06-0.38v-0.77h5.28v0.82c-0.23,0.01-0.52,0.06-0.84,0.15s-0.49,0.19-0.49,0.31c0,0.05,0.02,0.13,0.05,0.23
		s0.08,0.22,0.12,0.34c0.3,0.77,0.75,1.89,1.36,3.34s1.08,2.62,1.41,3.5c0.35-0.83,0.72-1.7,1.1-2.59c0.38-0.89,0.8-1.95,1.27-3.17
		c0.06-0.15,0.13-0.35,0.24-0.61c0.1-0.26,0.15-0.49,0.15-0.67c0-0.2-0.18-0.39-0.53-0.57c-0.35-0.18-0.69-0.28-1.01-0.32v-0.75
		h4.29v0.73c-0.23,0.04-0.54,0.17-0.93,0.4c-0.38,0.23-0.67,0.56-0.85,0.98c-0.93,2.16-1.76,4.12-2.48,5.9
		c-0.72,1.77-1.27,3.08-1.65,3.91c-0.49,1.09-0.93,1.95-1.32,2.56c-0.39,0.61-0.76,1.1-1.13,1.45c-0.36,0.33-0.69,0.55-0.98,0.66
		c-0.29,0.11-0.6,0.17-0.91,0.17c-0.61,0-1.09-0.15-1.44-0.43C209.18,34.15,209.01,33.82,209.01,33.45z"/>
	<path fill="#4678C8" d="M101,58.47h-4.48c-0.99-1.55-1.89-2.9-2.69-4.03c-0.8-1.13-1.67-2.3-2.6-3.5h-1.7v5.27
		c0,0.27,0.04,0.51,0.13,0.72s0.27,0.37,0.55,0.48c0.14,0.05,0.39,0.1,0.74,0.15s0.65,0.07,0.89,0.08v0.83H84.8v-0.83
		c0.19-0.02,0.46-0.04,0.81-0.08s0.6-0.09,0.74-0.15c0.23-0.1,0.4-0.25,0.51-0.45c0.11-0.19,0.16-0.44,0.16-0.75V44.19
		c0-0.27-0.04-0.52-0.12-0.73s-0.26-0.37-0.55-0.48c-0.19-0.07-0.45-0.13-0.76-0.19s-0.58-0.1-0.8-0.11v-0.83h7.68
		c0.7,0,1.36,0.07,1.98,0.22c0.62,0.14,1.18,0.38,1.68,0.7c0.48,0.31,0.87,0.72,1.16,1.23s0.43,1.11,0.43,1.82
		c0,0.64-0.1,1.21-0.29,1.7c-0.19,0.49-0.48,0.92-0.87,1.28c-0.35,0.34-0.77,0.63-1.27,0.87c-0.49,0.25-1.03,0.46-1.63,0.63
		c0.82,1.09,1.5,2,2.04,2.74c0.54,0.74,1.21,1.65,2,2.71c0.34,0.47,0.65,0.81,0.93,1.04c0.28,0.22,0.55,0.4,0.83,0.54
		c0.2,0.1,0.46,0.18,0.76,0.23c0.31,0.05,0.56,0.09,0.76,0.09V58.47L101,58.47z M94.83,46.08c0-1.01-0.29-1.8-0.87-2.39
		c-0.58-0.59-1.4-0.88-2.45-0.88h-1.99v7.13h1.54c1.08,0,1.98-0.34,2.69-1.04C94.47,48.21,94.83,47.27,94.83,46.08z"/>
	<path fill="#4678C8" d="M112.61,52.58c0,0.81-0.13,1.61-0.39,2.4c-0.26,0.78-0.63,1.45-1.1,2c-0.54,0.63-1.17,1.09-1.88,1.39
		c-0.71,0.3-1.51,0.46-2.39,0.46c-0.73,0-1.44-0.14-2.1-0.42s-1.25-0.68-1.77-1.21c-0.51-0.52-0.91-1.16-1.21-1.92
		c-0.3-0.75-0.45-1.6-0.45-2.54c0-1.8,0.53-3.28,1.58-4.43c1.05-1.15,2.43-1.72,4.13-1.72c1.62,0,2.95,0.54,4.01,1.64
		C112.08,49.31,112.61,50.77,112.61,52.58z M110.18,52.6c0-0.59-0.06-1.21-0.18-1.86c-0.12-0.65-0.29-1.21-0.53-1.66
		c-0.25-0.48-0.58-0.87-0.99-1.17c-0.41-0.29-0.9-0.44-1.49-0.44c-0.6,0-1.12,0.15-1.54,0.44c-0.43,0.3-0.77,0.7-1.04,1.22
		c-0.25,0.48-0.43,1.02-0.53,1.63c-0.1,0.61-0.15,1.2-0.15,1.77c0,0.75,0.06,1.44,0.18,2.08s0.31,1.21,0.58,1.71s0.6,0.89,1,1.18
		c0.4,0.29,0.9,0.43,1.5,0.43c0.98,0,1.75-0.47,2.33-1.42C109.9,55.57,110.18,54.27,110.18,52.6z"/>
	<path fill="#4678C8" d="M121.41,57.97c-0.51,0.21-0.99,0.39-1.44,0.53s-1.01,0.22-1.66,0.22c-0.97,0-1.65-0.24-2.04-0.73
		c-0.39-0.49-0.59-1.18-0.59-2.07v-7.83h-2.09v-1.13h2.13v-3.6h2.13v3.6h3.32v1.13h-3.29v6.46c0,0.48,0.02,0.89,0.05,1.21
		s0.12,0.61,0.25,0.85c0.13,0.23,0.31,0.4,0.56,0.52s0.59,0.18,1.01,0.18c0.19,0,0.48-0.02,0.86-0.05s0.65-0.08,0.8-0.13
		L121.41,57.97L121.41,57.97z"/>
	<path fill="#4678C8" d="M133.5,58.26c-0.37,0.13-0.69,0.24-0.97,0.32c-0.28,0.08-0.59,0.12-0.94,0.12c-0.61,0-1.1-0.14-1.46-0.43
		s-0.6-0.7-0.7-1.25h-0.07c-0.51,0.56-1.05,0.99-1.64,1.29s-1.28,0.45-2.1,0.45c-0.87,0-1.58-0.27-2.14-0.8
		c-0.56-0.53-0.84-1.23-0.84-2.09c0-0.44,0.06-0.84,0.19-1.19c0.13-0.35,0.31-0.67,0.56-0.95c0.2-0.23,0.45-0.44,0.77-0.63
		c0.32-0.18,0.62-0.33,0.9-0.44c0.35-0.13,1.06-0.38,2.14-0.74c1.08-0.36,1.8-0.64,2.17-0.84v-1.16c0-0.1-0.02-0.3-0.06-0.59
		s-0.14-0.56-0.28-0.82c-0.16-0.29-0.38-0.54-0.66-0.76c-0.29-0.21-0.69-0.32-1.21-0.32c-0.36,0-0.69,0.06-1,0.18
		c-0.31,0.12-0.52,0.25-0.65,0.38c0,0.16,0.04,0.39,0.11,0.69c0.07,0.3,0.11,0.59,0.11,0.84c0,0.27-0.12,0.52-0.37,0.75
		s-0.59,0.34-1.02,0.34c-0.39,0-0.68-0.14-0.86-0.42c-0.18-0.28-0.28-0.59-0.28-0.93c0-0.36,0.13-0.7,0.38-1.03s0.58-0.62,0.99-0.88
		c0.35-0.22,0.78-0.4,1.28-0.56c0.5-0.15,0.99-0.23,1.46-0.23c0.66,0,1.23,0.04,1.72,0.13s0.93,0.28,1.33,0.58
		c0.4,0.29,0.7,0.68,0.91,1.18s0.31,1.14,0.31,1.92c0,1.12-0.01,2.11-0.04,2.97c-0.02,0.86-0.04,1.81-0.04,2.83
		c0,0.3,0.05,0.55,0.16,0.73c0.11,0.18,0.27,0.33,0.49,0.46c0.12,0.07,0.3,0.11,0.56,0.12s0.51,0.01,0.78,0.01L133.5,58.26
		L133.5,58.26z M129.41,52.07c-0.66,0.2-1.25,0.39-1.75,0.58c-0.5,0.19-0.96,0.42-1.39,0.71c-0.39,0.27-0.7,0.58-0.93,0.94
		c-0.23,0.36-0.34,0.8-0.34,1.3c0,0.65,0.17,1.13,0.51,1.43c0.34,0.3,0.77,0.46,1.29,0.46c0.55,0,1.04-0.13,1.46-0.4
		c0.42-0.27,0.78-0.59,1.07-0.96L129.41,52.07z"/>
	<path fill="#4678C8" d="M143.5,48.41c0,0.4-0.1,0.75-0.29,1.06s-0.5,0.46-0.9,0.46c-0.44,0-0.77-0.11-1-0.34
		c-0.23-0.23-0.35-0.48-0.35-0.75c0-0.17,0.01-0.33,0.04-0.47s0.05-0.28,0.08-0.42c-0.37,0-0.8,0.15-1.29,0.45s-0.91,0.72-1.25,1.27
		v6.73c0,0.27,0.05,0.5,0.16,0.67c0.1,0.17,0.27,0.3,0.5,0.39c0.19,0.08,0.45,0.14,0.76,0.18c0.31,0.04,0.58,0.07,0.8,0.08v0.77
		h-6.09V57.7c0.18-0.02,0.37-0.03,0.56-0.05c0.19-0.02,0.36-0.05,0.5-0.09c0.22-0.07,0.38-0.19,0.49-0.37
		c0.1-0.18,0.16-0.4,0.16-0.69v-7.13c0-0.24-0.06-0.48-0.17-0.71c-0.11-0.23-0.27-0.42-0.48-0.56c-0.15-0.09-0.32-0.16-0.53-0.21
		c-0.2-0.04-0.42-0.07-0.66-0.09v-0.77l3.84-0.26l0.16,0.16v1.63h0.06c0.48-0.63,1.02-1.11,1.62-1.44s1.14-0.49,1.63-0.49
		s0.89,0.16,1.2,0.48S143.5,47.87,143.5,48.41z"/>
	<path fill="#4678C8" d="M143.61,62.25c0-0.39,0.11-0.71,0.32-0.96c0.22-0.25,0.48-0.37,0.8-0.37c0.25,0,0.46,0.05,0.64,0.14
		c0.18,0.09,0.34,0.21,0.48,0.36c0.12,0.12,0.24,0.28,0.37,0.48c0.13,0.2,0.24,0.37,0.32,0.5c0.39-0.21,0.86-0.76,1.4-1.65
		s0.94-1.67,1.18-2.34c-0.74-1.85-1.41-3.51-2.02-4.97c-0.6-1.46-1.23-2.97-1.89-4.53c-0.15-0.36-0.4-0.64-0.75-0.84
		c-0.35-0.2-0.7-0.33-1.05-0.38v-0.77h5.28v0.82c-0.23,0.01-0.52,0.06-0.84,0.15c-0.33,0.09-0.49,0.19-0.49,0.31
		c0,0.05,0.02,0.13,0.05,0.23s0.08,0.22,0.12,0.34c0.3,0.77,0.75,1.89,1.35,3.34c0.61,1.46,1.08,2.62,1.41,3.5
		c0.35-0.84,0.72-1.7,1.1-2.59c0.38-0.89,0.8-1.95,1.27-3.17c0.05-0.15,0.13-0.35,0.23-0.61c0.1-0.26,0.15-0.49,0.15-0.67
		c0-0.2-0.18-0.39-0.53-0.57c-0.35-0.17-0.69-0.28-1.01-0.32v-0.75h4.29v0.73c-0.23,0.04-0.54,0.17-0.93,0.4s-0.67,0.56-0.86,0.98
		c-0.93,2.16-1.76,4.12-2.48,5.89c-0.72,1.77-1.27,3.08-1.65,3.91c-0.49,1.09-0.93,1.95-1.32,2.56c-0.39,0.62-0.76,1.1-1.13,1.45
		c-0.36,0.33-0.69,0.55-0.98,0.66s-0.6,0.17-0.91,0.17c-0.61,0-1.09-0.14-1.44-0.43S143.61,62.62,143.61,62.25z"/>
	<path fill="#4678C8" d="M169.71,58.87c-0.99,0-1.94-0.2-2.85-0.59s-1.72-0.95-2.42-1.69c-0.69-0.73-1.25-1.63-1.66-2.69
		c-0.41-1.06-0.62-2.25-0.62-3.58c0-1.33,0.2-2.54,0.61-3.62c0.41-1.08,0.97-2.01,1.69-2.8c0.71-0.77,1.55-1.37,2.52-1.79
		c0.97-0.42,2-0.63,3.1-0.63c0.82,0,1.56,0.1,2.23,0.31c0.66,0.2,1.3,0.49,1.9,0.85l0.48-0.8h0.94l0.11,5.93h-0.96
		c-0.13-0.58-0.31-1.21-0.56-1.88s-0.54-1.25-0.88-1.72c-0.38-0.53-0.82-0.95-1.34-1.25c-0.51-0.3-1.1-0.45-1.77-0.45
		c-0.76,0-1.46,0.17-2.11,0.51c-0.65,0.34-1.22,0.83-1.69,1.49c-0.45,0.63-0.81,1.44-1.07,2.42c-0.26,0.98-0.39,2.07-0.39,3.27
		c0,1.06,0.13,2.04,0.4,2.93c0.27,0.89,0.65,1.67,1.15,2.34c0.5,0.67,1.09,1.19,1.77,1.56c0.68,0.38,1.44,0.56,2.29,0.56
		c0.63,0,1.21-0.1,1.74-0.3c0.53-0.2,0.99-0.46,1.38-0.79c0.39-0.34,0.73-0.73,1.03-1.17c0.29-0.44,0.54-0.91,0.73-1.43l0.88,0.42
		c-0.67,1.65-1.56,2.83-2.67,3.53S171.24,58.87,169.71,58.87z"/>
	<path fill="#4678C8" d="M182.91,58.47h-5.64V57.7c0.18-0.02,0.37-0.03,0.57-0.05c0.2-0.02,0.37-0.05,0.5-0.09
		c0.22-0.07,0.38-0.19,0.49-0.37c0.11-0.18,0.16-0.4,0.16-0.69V43.11c0-0.28-0.06-0.54-0.18-0.79c-0.12-0.25-0.28-0.44-0.48-0.58
		c-0.14-0.09-0.4-0.18-0.77-0.26s-0.68-0.13-0.9-0.14v-0.75l4.35-0.26l0.16,0.18v15.85c0,0.27,0.05,0.5,0.15,0.67
		c0.1,0.18,0.27,0.31,0.49,0.4c0.17,0.08,0.34,0.14,0.51,0.18c0.17,0.04,0.36,0.07,0.57,0.08L182.91,58.47L182.91,58.47z"/>
	<path fill="#4678C8" d="M196.75,58.26l-3.77,0.26l-0.18-0.16v-1.46h-0.07c-0.19,0.2-0.4,0.4-0.63,0.63
		c-0.23,0.22-0.5,0.42-0.81,0.6c-0.35,0.21-0.69,0.37-1.02,0.48c-0.33,0.11-0.79,0.16-1.39,0.16c-1.02,0-1.8-0.33-2.33-1
		c-0.53-0.67-0.8-1.64-0.8-2.91v-5.53c0-0.28-0.05-0.52-0.16-0.71s-0.26-0.36-0.47-0.5c-0.14-0.09-0.32-0.16-0.53-0.21
		c-0.21-0.04-0.44-0.07-0.67-0.09v-0.77l3.85-0.28l0.18,0.16v8.03c0,0.84,0.19,1.46,0.56,1.89s0.82,0.63,1.35,0.63
		c0.43,0,0.81-0.07,1.15-0.2c0.34-0.13,0.62-0.29,0.84-0.47c0.21-0.16,0.4-0.34,0.56-0.52c0.16-0.18,0.28-0.35,0.37-0.51v-6.54
		c0-0.26-0.05-0.48-0.16-0.68c-0.11-0.2-0.26-0.37-0.46-0.51c-0.14-0.09-0.35-0.15-0.63-0.17s-0.59-0.04-0.93-0.05v-0.77l4.21-0.28
		l0.18,0.16v9.17c0,0.27,0.05,0.49,0.16,0.68c0.11,0.19,0.26,0.35,0.46,0.48c0.14,0.09,0.31,0.14,0.5,0.17
		c0.19,0.03,0.41,0.04,0.64,0.05V58.26L196.75,58.26z"/>
	<path fill="#4678C8" d="M209.9,52.68c0,1.73-0.55,3.19-1.64,4.37c-1.09,1.18-2.36,1.77-3.81,1.77c-0.63,0-1.26-0.1-1.87-0.29
		c-0.61-0.2-1.19-0.46-1.73-0.79l-0.87,1.35l-0.73-0.16c0.04-0.58,0.07-1.27,0.08-2.09c0.02-0.81,0.02-1.6,0.02-2.35V43.04
		c0-0.27-0.06-0.53-0.18-0.8c-0.12-0.27-0.27-0.46-0.46-0.58c-0.15-0.1-0.4-0.18-0.74-0.23c-0.35-0.05-0.63-0.08-0.84-0.1v-0.75
		l4.24-0.26l0.16,0.18v7.62l0.08,0.02c0.48-0.52,1.01-0.9,1.59-1.16c0.57-0.26,1.14-0.39,1.69-0.39c1.42,0,2.61,0.56,3.56,1.69
		S209.9,50.88,209.9,52.68z M207.45,52.77c0-0.58-0.06-1.17-0.19-1.77s-0.32-1.13-0.59-1.57c-0.27-0.45-0.61-0.82-1.04-1.1
		c-0.43-0.28-0.94-0.42-1.55-0.42c-0.55,0-1.02,0.11-1.44,0.32c-0.41,0.21-0.78,0.51-1.11,0.87v6.73c0.05,0.19,0.14,0.41,0.27,0.66
		c0.14,0.25,0.32,0.49,0.56,0.71c0.23,0.22,0.5,0.4,0.8,0.53c0.3,0.14,0.66,0.21,1.09,0.21c0.95,0,1.72-0.46,2.31-1.38
		C207.16,55.63,207.45,54.37,207.45,52.77z"/>
</g>
</svg>
