<?xml version="1.0" encoding="UTF-8" standalone="no"?>
<!-- Created with Inkscape (http://www.inkscape.org/) -->

<svg
   xmlns:dc="http://purl.org/dc/elements/1.1/"
   xmlns:cc="http://creativecommons.org/ns#"
   xmlns:rdf="http://www.w3.org/1999/02/22-rdf-syntax-ns#"
   xmlns:svg="http://www.w3.org/2000/svg"
   xmlns="http://www.w3.org/2000/svg"
   xmlns:inkscape="http://www.inkscape.org/namespaces/inkscape"
   version="1.1"
   width="562.5"
   height="137.5"
   id="svg2"
   xml:space="preserve"><metadata
     id="metadata8"><rdf:RDF><cc:Work
         rdf:about=""><dc:format>image/svg+xml</dc:format><dc:type
           rdf:resource="http://purl.org/dc/dcmitype/StillImage" /></cc:Work></rdf:RDF></metadata><defs
     id="defs6"><clipPath
       id="clipPath16"><path
         d="M 0,110 450,110 450,0 0,0 0,110 z"
         inkscape:connector-curvature="0"
         id="path18" /></clipPath></defs><g
     transform="matrix(1.25,0,0,-1.25,0,137.5)"
     id="g10"><g
       id="g12"><g
         clip-path="url(#clipPath16)"
         id="g14"><g
           transform="translate(32.1904,40.9092)"
           id="g20"><path
             d="m 0,0 c 0,0 -7.004,-1.414 -12.08,-1.414 -13.301,0 -16.192,8.353 -16.192,22.874 0,14.715 2.827,23.197 16.192,23.197 5.976,0 12.144,-1.35 12.144,-1.35 l -0.257,-3.662 c 0,0 -6.811,1.221 -11.566,1.221 -10.73,0 -12.401,-6.876 -12.401,-19.406 0,-12.336 1.735,-19.019 12.466,-19.019 4.24,0 11.501,1.157 11.501,1.157 L 0,0 z"
             inkscape:connector-curvature="0"
             id="path22"
             style="fill:#4b7947;fill-opacity:1;fill-rule:nonzero;stroke:none" /></g><g
           transform="translate(61.3647,56.6514)"
           id="g24"><path
             d="m 0,0 c 0,9.188 -2.827,12.722 -9.381,12.722 -7.39,0 -9.639,-3.084 -9.639,-12.658 0,-9.767 1.35,-13.751 9.639,-13.751 C -1.092,-13.687 0,-9.188 0,0 m 3.984,0 c 0,-11.502 -2.635,-17.156 -13.365,-17.156 -10.795,0 -13.558,5.076 -13.558,17.22 0,11.373 3.598,16.128 13.558,16.128 9.317,0 13.365,-4.948 13.365,-16.192"
             inkscape:connector-curvature="0"
             id="path26"
             style="fill:#4b7947;fill-opacity:1;fill-rule:nonzero;stroke:none" /></g><g
           transform="translate(98.6992,72.2651)"
           id="g28"><path
             d="m 0,0 0,-32.127 -3.791,0 0,2.249 c 0,0 -5.012,-2.892 -9.895,-2.892 -8.932,0 -10.731,3.92 -10.731,15.999 l 0,16.771 3.791,0 0,-16.642 c 0,-9.638 0.964,-12.658 7.39,-12.658 4.819,0 9.445,2.699 9.445,2.699 L -3.791,0 0,0 z"
             inkscape:connector-curvature="0"
             id="path30"
             style="fill:#4b7947;fill-opacity:1;fill-rule:nonzero;stroke:none" /></g><g
           transform="translate(127.9385,61.9844)"
           id="g32"><path
             d="m 0,0 c 0,6.232 -2.121,7.71 -8.032,7.71 -5.14,0 -7.711,-1.991 -7.711,-7.71 0,-5.076 1.8,-7.518 7.518,-7.518 C -2.313,-7.518 0,-5.59 0,0 m -12.144,-20.754 c -3.085,-2.185 -4.048,-3.406 -4.048,-6.169 0,-5.012 1.734,-6.81 9.638,-6.81 7.004,0 10.024,1.926 10.024,6.681 0,5.462 -2.313,6.04 -8.353,6.04 -2.442,0 -7.261,0.258 -7.261,0.258 m -7.903,-6.426 c 0,3.919 1.863,5.59 5.268,8.096 -1.156,0.707 -1.67,2.378 -1.67,4.369 0,1.093 2.056,5.012 2.056,5.012 -2.763,1.157 -5.205,3.663 -5.205,9.703 0,7.839 4.562,10.923 11.566,10.923 3.342,0 6.747,-0.835 6.747,-0.835 l 9.253,0.193 0,-3.406 L 1.67,7.004 C 3.02,5.654 3.919,3.791 3.919,0 3.919,-8.225 0,-10.73 -8.225,-10.73 c -0.578,0 -2.57,0.128 -3.276,0.256 0,0 -1.286,-3.148 -1.286,-3.983 0,-2.764 0.515,-3.148 8.161,-3.148 8.738,0 12.08,-1.543 12.08,-9.318 0,-7.196 -4.82,-10.152 -14.072,-10.152 -10.345,0 -13.429,2.441 -13.429,9.895"
             inkscape:connector-curvature="0"
             id="path34"
             style="fill:#4b7947;fill-opacity:1;fill-rule:nonzero;stroke:none" /></g><g
           transform="translate(150.7515,55.5586)"
           id="g36"><path
             d="m 0,0 c -4.305,-0.385 -5.912,-2.441 -5.912,-6.297 0,-4.112 1.8,-6.426 5.333,-6.426 5.077,0 11.052,2.186 11.052,2.186 l 0,11.63 L 0,0 z m 14.265,-10.088 c 0.192,-1.863 2.056,-2.57 4.176,-2.827 l -0.193,-3.084 c -3.148,0 -5.526,0.643 -7.261,2.57 0,0 -6.04,-2.634 -12.079,-2.634 -5.655,0 -8.804,3.277 -8.804,9.702 0,5.911 2.957,8.738 9.446,9.381 l 10.923,1.092 0,2.892 c 0,4.819 -2.184,6.747 -6.297,6.747 -4.626,0 -12.144,-0.9 -12.144,-0.9 L -8.161,16 c 0,0 7.39,1.285 12.595,1.285 6.682,0 9.831,-3.342 9.831,-10.281 l 0,-17.092 z"
             inkscape:connector-curvature="0"
             id="path38"
             style="fill:#4b7947;fill-opacity:1;fill-rule:nonzero;stroke:none" /></g><g
           transform="translate(176.9053,72.2651)"
           id="g40"><path
             d="m 0,0 3.855,0 0,-4.562 c 0,0 5.205,3.984 11.759,5.205 l 0,-3.92 C 9.51,-4.498 3.855,-8.161 3.855,-8.161 l 0,-23.966 -3.855,0 L 0,0 z"
             inkscape:connector-curvature="0"
             id="path42"
             style="fill:#4b7947;fill-opacity:1;fill-rule:nonzero;stroke:none" /></g><g
           transform="translate(231.3311,81.1963)"
           id="g44"><path
             d="m 0,0 -12.401,0 0,-19.79 12.401,0 c 7.453,0 9.767,4.048 9.767,10.216 C 9.767,-2.956 6.682,0 0,0 m 1.221,-23.517 -13.622,0 0,-17.542 -3.92,0 0,44.786 16.321,0 c 9.316,0 13.879,-3.919 13.879,-13.301 0,-7.004 -2.442,-11.437 -8.61,-13.044 l 9.188,-18.441 -4.434,0 -8.802,17.542 z"
             inkscape:connector-curvature="0"
             id="path46"
             style="fill:#4b7947;fill-opacity:1;fill-rule:nonzero;stroke:none" /></g><g
           transform="translate(275.541,56.6514)"
           id="g48"><path
             d="m 0,0 c 0,9.188 -2.828,12.722 -9.382,12.722 -7.389,0 -9.638,-3.084 -9.638,-12.658 0,-9.767 1.349,-13.751 9.638,-13.751 C -1.093,-13.687 0,-9.188 0,0 m 3.983,0 c 0,-11.502 -2.634,-17.156 -13.365,-17.156 -10.795,0 -13.557,5.076 -13.557,17.22 0,11.373 3.598,16.128 13.557,16.128 9.318,0 13.365,-4.948 13.365,-16.192"
             inkscape:connector-curvature="0"
             id="path50"
             style="fill:#4b7947;fill-opacity:1;fill-rule:nonzero;stroke:none" /></g><g
           transform="translate(310.2412,56.7153)"
           id="g52"><path
             d="m 0,0 c 0,8.803 -1.542,12.594 -7.711,12.594 -4.819,0 -9.767,-2.056 -9.767,-2.056 l 0,-23.903 c 0,0 4.499,-0.385 6.426,-0.385 C -1.542,-13.75 0,-9.381 0,0 m 3.983,0.064 c 0,-12.4 -3.212,-17.284 -14.97,-17.284 -4.049,0 -10.346,0.642 -10.346,0.642 l 0,46.392 3.855,0 0,-15.935 c 0,0 5.012,2.249 10.024,2.249 8.739,0 11.437,-4.69 11.437,-16.064"
             inkscape:connector-curvature="0"
             id="path54"
             style="fill:#4b7947;fill-opacity:1;fill-rule:nonzero;stroke:none" /></g><g
           transform="translate(344.1064,56.6514)"
           id="g56"><path
             d="m 0,0 c 0,9.188 -2.828,12.722 -9.382,12.722 -7.389,0 -9.638,-3.084 -9.638,-12.658 0,-9.767 1.349,-13.751 9.638,-13.751 C -1.093,-13.687 0,-9.188 0,0 m 3.983,0 c 0,-11.502 -2.634,-17.156 -13.365,-17.156 -10.795,0 -13.557,5.076 -13.557,17.22 0,11.373 3.598,16.128 13.557,16.128 9.318,0 13.365,-4.948 13.365,-16.192"
             inkscape:connector-curvature="0"
             id="path58"
             style="fill:#4b7947;fill-opacity:1;fill-rule:nonzero;stroke:none" /></g><g
           transform="translate(362.1006,68.731)"
           id="g60"><path
             d="m 0,0 0,-15.614 c 0,-8.032 0.514,-10.088 5.076,-10.088 1.799,0 5.976,0.45 5.976,0.45 l 0.192,-3.406 c 0,0 -4.24,-0.642 -6.489,-0.642 -6.297,0 -8.61,2.378 -8.61,11.63 l 0,17.67 -4.755,0 0,3.534 4.755,0 0,10.088 3.855,0 0,-10.088 10.73,0 L 10.73,0 0,0 z"
             inkscape:connector-curvature="0"
             id="path62"
             style="fill:#4b7947;fill-opacity:1;fill-rule:nonzero;stroke:none" /></g><path
           d="m 380.479,72.265 3.855,0 0,-32.127 -3.855,0 0,32.127 z m 0,12.851 3.855,0 0,-4.819 -3.855,0 0,4.819 z"
           inkscape:connector-curvature="0"
           id="path64"
           style="fill:#4b7947;fill-opacity:1;fill-rule:nonzero;stroke:none" /><g
           transform="translate(414.793,72.0723)"
           id="g66"><path
             d="m 0,0 -0.129,-3.405 c 0,0 -5.141,0.578 -7.582,0.578 -7.71,0 -9.959,-3.277 -9.959,-12.465 0,-9.96 1.607,-13.687 9.959,-13.687 2.441,0 7.647,0.579 7.647,0.579 l 0.192,-3.406 c 0,0 -5.782,-0.771 -8.546,-0.771 -10.409,0 -13.172,4.626 -13.172,17.285 0,11.758 3.662,16.063 13.236,16.063 C -5.591,0.771 0,0 0,0"
             inkscape:connector-curvature="0"
             id="path68"
             style="fill:#4b7947;fill-opacity:1;fill-rule:nonzero;stroke:none" /></g><g
           transform="translate(444.0957,68.3457)"
           id="g70"><path
             d="m 0,0 c 0,0 -6.939,1.028 -11.116,1.028 -4.048,0 -7.582,-1.092 -7.582,-5.462 0,-3.341 1.606,-4.369 8.353,-5.397 8.417,-1.35 11.566,-2.892 11.566,-9.06 0,-7.518 -4.691,-9.96 -12.402,-9.96 -3.919,0 -11.051,1.157 -11.051,1.157 l 0.256,3.406 c 0,0 7.198,-1.093 10.474,-1.093 5.591,0 8.803,1.285 8.803,6.297 0,3.855 -1.927,4.627 -8.803,5.719 -7.71,1.22 -11.116,2.635 -11.116,8.802 0,7.004 5.719,9.061 11.309,9.061 4.883,0 11.438,-1.093 11.438,-1.093 L 0,0 z"
             inkscape:connector-curvature="0"
             id="path72"
             style="fill:#4b7947;fill-opacity:1;fill-rule:nonzero;stroke:none" /></g><g
           transform="translate(44.1338,97.8999)"
           id="g74"><path
             d="m 0,0 12.855,0 0,-1.491 -5.605,0 0,-16.429 -1.568,0 0,16.429 L 0,-1.491 0,0 z"
             inkscape:connector-curvature="0"
             id="path76"
             style="fill:#4b7947;fill-opacity:1;fill-rule:nonzero;stroke:none" /></g><g
           transform="translate(67.1421,87.0498)"
           id="g78"><path
             d="M 0,0 C 0,3.394 -1.106,4.654 -3.522,4.654 -5.862,4.654 -7.251,3.343 -7.251,0 L 0,0 z M 1.028,-5.682 1.08,-6.967 c 0,0 -2.906,-0.361 -4.911,-0.361 -3.831,0.026 -4.988,2.34 -4.988,6.634 0,4.962 2.16,6.711 5.297,6.711 3.316,0 5.064,-1.749 5.064,-6.068 l -0.051,-1.234 -8.742,0 c 0,-3.034 0.875,-4.628 3.574,-4.628 1.877,0 4.705,0.231 4.705,0.231"
             inkscape:connector-curvature="0"
             id="path80"
             style="fill:#4b7947;fill-opacity:1;fill-rule:nonzero;stroke:none" /></g><g
           transform="translate(75.2373,86.1504)"
           id="g82"><path
             d="m 0,0 c -1.723,-0.154 -2.366,-0.977 -2.366,-2.52 0,-1.646 0.72,-2.571 2.135,-2.571 2.03,0 4.421,0.874 4.421,0.874 l 0,4.654 L 0,0 z M 5.708,-4.037 C 5.785,-4.783 6.53,-5.065 7.379,-5.168 L 7.302,-6.402 c -1.26,0 -2.212,0.257 -2.906,1.028 0,0 -2.417,-1.054 -4.834,-1.054 -2.262,0 -3.522,1.311 -3.522,3.883 0,2.365 1.183,3.496 3.78,3.753 l 4.37,0.438 0,1.156 c 0,1.928 -0.874,2.7 -2.519,2.7 -1.851,0 -4.859,-0.36 -4.859,-0.36 l -0.078,1.26 c 0,0 2.957,0.514 5.04,0.514 2.674,0 3.934,-1.337 3.934,-4.114 l 0,-6.839 z"
             inkscape:connector-curvature="0"
             id="path84"
             style="fill:#4b7947;fill-opacity:1;fill-rule:nonzero;stroke:none" /></g><g
           transform="translate(85.6973,79.9795)"
           id="g86"><path
             d="m 0,0 0,12.855 1.543,0 0,-0.925 c 0,0 1.723,1.028 3.6,1.106 0.539,0.025 1.028,0.025 1.439,-0.026 1.003,-0.129 1.697,-0.489 2.16,-1.106 0.617,0.232 2.854,1.183 4.731,1.183 3.497,0 4.294,-1.568 4.294,-6.402 l 0,-6.685 -1.543,0 0,6.299 c 0,4.088 -0.334,5.374 -2.931,5.374 -1.929,0 -3.831,-1.003 -3.908,-1.054 0.257,-0.746 0.36,-2.237 0.36,-3.934 l 0,-6.685 -1.517,0 0,6.633 c 0,3.857 -0.412,5.04 -2.957,5.04 -1.928,0 -3.728,-1.08 -3.728,-1.08 L 1.543,0 0,0 z"
             inkscape:connector-curvature="0"
             id="path88"
             style="fill:#4b7947;fill-opacity:1;fill-rule:nonzero;stroke:none" /></g><g
           transform="translate(118.9077,96.9487)"
           id="g90"><path
             d="m 0,0 1.517,0 0,-16.969 -1.568,0 0,15.169 -4.525,-3.008 -0.746,1.26 L 0,0 z"
             inkscape:connector-curvature="0"
             id="path92"
             style="fill:#4b7947;fill-opacity:1;fill-rule:nonzero;stroke:none" /></g><g
           transform="translate(134.5879,83.3218)"
           id="g94"><path
             d="m 0,0 -8.51,0 0,1.312 5.013,12.315 1.723,0 -4.911,-12.11 6.685,0 0,5.502 1.594,0 0,-5.502 2.262,0 0,-1.517 -2.262,0 0,-3.419 L 0,-3.419 0,0 z"
             inkscape:connector-curvature="0"
             id="path96"
             style="fill:#4b7947;fill-opacity:1;fill-rule:nonzero;stroke:none" /></g><g
           transform="translate(141.3203,88.1299)"
           id="g98"><path
             d="m 0,0 c 0,-5.605 1.594,-6.891 4.422,-6.891 2.828,0 4.397,1.312 4.397,6.917 0,5.991 -1.388,7.559 -4.423,7.559 C 1.44,7.585 0,6.068 0,0 m 10.49,0.026 c 0,-6.505 -2.288,-8.434 -6.068,-8.434 -3.805,0 -6.119,1.852 -6.119,8.434 0,7.121 2.262,9.05 6.093,9.05 3.935,0 6.094,-1.929 6.094,-9.05"
             inkscape:connector-curvature="0"
             id="path100"
             style="fill:#4b7947;fill-opacity:1;fill-rule:nonzero;stroke:none" /></g><g
           transform="translate(159.1602,97.2061)"
           id="g102"><path
             d="m 0,0 c 3.908,0 5.296,-1.363 5.296,-4.345 0,-2.854 -2.339,-3.626 -2.673,-3.831 1.799,-0.592 3.136,-1.388 3.136,-4.268 0,-3.369 -1.722,-5.04 -5.476,-5.04 -2.7,0 -5.605,0.592 -5.605,0.592 l 0.205,1.465 c 0,0 2.751,-0.54 5.271,-0.54 2.725,0.026 3.96,1.183 3.96,3.446 0,2.622 -1.697,3.316 -3.754,3.394 l -3.445,0 0,1.465 3.419,0 c 1.337,0 3.317,1.105 3.317,3.188 0,2.16 -1.054,2.957 -3.703,2.957 -2.391,0 -4.756,-0.489 -4.756,-0.489 l -0.206,1.415 C -5.014,-0.591 -2.443,0 0,0"
             inkscape:connector-curvature="0"
             id="path104"
             style="fill:#4b7947;fill-opacity:1;fill-rule:nonzero;stroke:none" /></g><g
           transform="translate(234.4033,21.6045)"
           id="g106"><path
             d="m 0,0 c -1.464,-0.131 -2.011,-0.83 -2.011,-2.142 0,-1.398 0.613,-2.184 1.815,-2.184 1.725,0 3.758,0.742 3.758,0.742 l 0,3.955 L 0,0 z M 4.851,-3.431 C 4.916,-4.064 5.55,-4.305 6.271,-4.392 L 6.205,-5.44 c -1.07,0 -1.879,0.217 -2.469,0.874 0,0 -2.053,-0.897 -4.108,-0.897 -1.922,0 -2.993,1.114 -2.993,3.3 0,2.01 1.005,2.972 3.212,3.19 l 3.715,0.371 0,0.984 c 0,1.639 -0.744,2.294 -2.142,2.294 -1.573,0 -4.13,-0.306 -4.13,-0.306 l -0.065,1.07 c 0,0 2.512,0.438 4.283,0.438 2.272,0 3.343,-1.137 3.343,-3.496 l 0,-5.813 z"
             inkscape:connector-curvature="0"
             id="path108"
             style="fill:#4b7947;fill-opacity:1;fill-rule:nonzero;stroke:none" /></g><g
           transform="translate(248.4951,31.5898)"
           id="g110"><path
             d="m 0,0 9.111,0 0,-1.267 -7.778,0 0,-6.271 6.467,0 0,-1.268 -6.467,0 0,-6.423 -1.333,0 L 0,0 z"
             inkscape:connector-curvature="0"
             id="path112"
             style="fill:#4b7947;fill-opacity:1;fill-rule:nonzero;stroke:none" /></g><path
           d="m 260.533,31.59 1.333,0 0,-15.229 -1.333,0 0,15.229 z"
           inkscape:connector-curvature="0"
           id="path114"
           style="fill:#4b7947;fill-opacity:1;fill-rule:nonzero;stroke:none" /><g
           transform="translate(271.4365,30.3232)"
           id="g116"><path
             d="m 0,0 -4.218,0 0,-6.73 4.218,0 c 2.534,0 3.321,1.376 3.321,3.474 C 3.321,-1.006 2.272,0 0,0 m 0.415,-7.998 -4.633,0 0,-5.965 -1.332,0 0,15.23 5.55,0 c 3.168,0 4.72,-1.333 4.72,-4.523 0,-2.382 -0.83,-3.89 -2.928,-4.435 l 3.124,-6.272 -1.508,0 -2.993,5.965 z"
             inkscape:connector-curvature="0"
             id="path118"
             style="fill:#4b7947;fill-opacity:1;fill-rule:nonzero;stroke:none" /></g><g
           transform="translate(287.6914,30.1914)"
           id="g120"><path
             d="m 0,0 c 0,0 -3.016,0.372 -4.282,0.372 -2.273,0 -3.519,-0.787 -3.519,-2.666 0,-2.228 1.158,-2.578 3.846,-3.102 2.972,-0.59 4.393,-1.312 4.393,-4.021 0,-3.344 -1.771,-4.589 -4.786,-4.589 -1.661,0 -4.654,0.415 -4.654,0.415 l 0.131,1.246 c 0,0 2.949,-0.372 4.501,-0.372 2.272,0 3.431,0.896 3.431,3.235 0,1.9 -0.984,2.381 -3.518,2.839 -3.081,0.591 -4.72,1.247 -4.72,4.305 0,2.841 1.879,3.999 4.895,3.999 1.682,0 4.391,-0.415 4.391,-0.415 L 0,0 z"
             inkscape:connector-curvature="0"
             id="path122"
             style="fill:#4b7947;fill-opacity:1;fill-rule:nonzero;stroke:none" /></g><g
           transform="translate(289.0889,31.5898)"
           id="g124"><path
             d="m 0,0 10.925,0 0,-1.267 -4.763,0 0,-13.962 -1.333,0 0,13.962 L 0,-1.267 0,0 z"
             inkscape:connector-curvature="0"
             id="path126"
             style="fill:#4b7947;fill-opacity:1;fill-rule:nonzero;stroke:none" /></g><g
           transform="translate(302.5811,29.2549)"
           id="g128"><path
             d="m 0,0 0.854,0 c 0.484,0 0.7,0.165 0.7,0.7 0,0.51 -0.281,0.676 -0.879,0.676 L 0,1.376 0,0 z m 0.841,-0.535 -0.841,0 0,-1.568 -0.612,0 0,4.014 1.274,0 c 1.045,0 1.491,-0.318 1.491,-1.185 0,-0.612 -0.166,-1.006 -0.688,-1.185 l 0.764,-1.644 -0.663,0 -0.725,1.568 z M 0.764,-3.032 c 1.605,0 2.816,1.324 2.816,2.942 0,1.631 -1.211,2.944 -2.816,2.944 -1.618,0 -2.816,-1.313 -2.816,-2.944 0,-1.618 1.198,-2.942 2.816,-2.942 m 0,6.383 c 1.963,0 3.339,-1.542 3.339,-3.441 0,-1.886 -1.389,-3.439 -3.339,-3.439 -1.962,0 -3.313,1.541 -3.313,3.439 0,1.886 1.351,3.441 3.313,3.441"
             inkscape:connector-curvature="0"
             id="path130"
             style="fill:#4b7947;fill-opacity:1;fill-rule:nonzero;stroke:none" /></g><g
           transform="translate(319.4795,30.3232)"
           id="g132"><path
             d="m 0,0 -4.218,0 0,-6.73 4.218,0 c 2.534,0 3.321,1.376 3.321,3.474 C 3.321,-1.006 2.272,0 0,0 m 0.415,-7.998 -4.633,0 0,-5.965 -1.332,0 0,15.23 5.55,0 c 3.168,0 4.72,-1.333 4.72,-4.523 0,-2.382 -0.83,-3.89 -2.928,-4.435 l 3.124,-6.272 -1.508,0 -2.993,5.965 z"
             inkscape:connector-curvature="0"
             id="path134"
             style="fill:#4b7947;fill-opacity:1;fill-rule:nonzero;stroke:none" /></g><g
           transform="translate(334.5107,21.9756)"
           id="g136"><path
             d="m 0,0 c 0,3.125 -0.961,4.327 -3.19,4.327 -2.513,0 -3.278,-1.049 -3.278,-4.305 0,-3.321 0.459,-4.676 3.278,-4.676 2.819,0 3.19,1.53 3.19,4.654 m 1.354,0 c 0,-3.911 -0.895,-5.834 -4.544,-5.834 -3.671,0 -4.611,1.727 -4.611,5.856 0,3.868 1.224,5.485 4.611,5.485 3.169,0 4.544,-1.683 4.544,-5.507"
             inkscape:connector-curvature="0"
             id="path138"
             style="fill:#4b7947;fill-opacity:1;fill-rule:nonzero;stroke:none" /></g><g
           transform="translate(346.3086,21.998)"
           id="g140"><path
             d="m 0,0 c 0,2.993 -0.524,4.282 -2.622,4.282 -1.639,0 -3.321,-0.699 -3.321,-0.699 l 0,-8.128 c 0,0 1.529,-0.132 2.185,-0.132 C -0.524,-4.677 0,-3.19 0,0 m 1.354,0.021 c 0,-4.216 -1.092,-5.877 -5.09,-5.877 -1.377,0 -3.518,0.218 -3.518,0.218 l 0,15.777 1.311,0 0,-5.419 c 0,0 1.704,0.764 3.408,0.764 2.973,0 3.889,-1.594 3.889,-5.463"
             inkscape:connector-curvature="0"
             id="path142"
             style="fill:#4b7947;fill-opacity:1;fill-rule:nonzero;stroke:none" /></g><g
           transform="translate(357.8223,21.9756)"
           id="g144"><path
             d="m 0,0 c 0,3.125 -0.961,4.327 -3.19,4.327 -2.513,0 -3.278,-1.049 -3.278,-4.305 0,-3.321 0.459,-4.676 3.278,-4.676 2.819,0 3.19,1.53 3.19,4.654 m 1.354,0 c 0,-3.911 -0.895,-5.834 -4.544,-5.834 -3.671,0 -4.611,1.727 -4.611,5.856 0,3.868 1.224,5.485 4.611,5.485 3.169,0 4.544,-1.683 4.544,-5.507"
             inkscape:connector-curvature="0"
             id="path146"
             style="fill:#4b7947;fill-opacity:1;fill-rule:nonzero;stroke:none" /></g><g
           transform="translate(363.9395,26.084)"
           id="g148"><path
             d="m 0,0 0,-5.31 c 0,-2.731 0.174,-3.43 1.726,-3.43 0.612,0 2.032,0.153 2.032,0.153 l 0.065,-1.158 c 0,0 -1.442,-0.219 -2.207,-0.219 -2.141,0 -2.928,0.809 -2.928,3.955 l 0,6.009 -1.617,0 0,1.202 1.617,0 0,3.43 1.312,0 0,-3.43 3.648,0 L 3.648,0 0,0 z"
             inkscape:connector-curvature="0"
             id="path150"
             style="fill:#4b7947;fill-opacity:1;fill-rule:nonzero;stroke:none" /></g><path
           d="m 370.188,27.286 1.311,0 0,-10.926 -1.311,0 0,10.926 z m 0,4.369 1.311,0 0,-1.639 -1.311,0 0,1.639 z"
           inkscape:connector-curvature="0"
           id="path152"
           style="fill:#4b7947;fill-opacity:1;fill-rule:nonzero;stroke:none" /><g
           transform="translate(381.8545,27.2197)"
           id="g154"><path
             d="m 0,0 -0.044,-1.158 c 0,0 -1.748,0.197 -2.578,0.197 -2.622,0 -3.387,-1.114 -3.387,-4.239 0,-3.387 0.547,-4.654 3.387,-4.654 0.83,0 2.601,0.197 2.601,0.197 l 0.065,-1.158 c 0,0 -1.967,-0.263 -2.906,-0.263 -3.54,0 -4.48,1.573 -4.48,5.878 0,3.999 1.246,5.463 4.501,5.463 C -1.9,0.263 0,0 0,0"
             inkscape:connector-curvature="0"
             id="path156"
             style="fill:#4b7947;fill-opacity:1;fill-rule:nonzero;stroke:none" /></g><g
           transform="translate(391.8174,25.9531)"
           id="g158"><path
             d="m 0,0 c 0,0 -2.359,0.35 -3.78,0.35 -1.376,0 -2.578,-0.372 -2.578,-1.858 0,-1.137 0.546,-1.486 2.84,-1.836 2.863,-0.459 3.933,-0.983 3.933,-3.081 0,-2.556 -1.595,-3.387 -4.217,-3.387 -1.333,0 -3.758,0.394 -3.758,0.394 l 0.087,1.158 c 0,0 2.448,-0.372 3.562,-0.372 1.901,0 2.994,0.438 2.994,2.142 0,1.311 -0.656,1.573 -2.994,1.945 -2.622,0.415 -3.78,0.896 -3.78,2.993 0,2.382 1.945,3.081 3.845,3.081 1.661,0 3.89,-0.372 3.89,-0.372 L 0,0 z"
             inkscape:connector-curvature="0"
             id="path160"
             style="fill:#4b7947;fill-opacity:1;fill-rule:nonzero;stroke:none" /></g><g
           transform="translate(402.2168,26.084)"
           id="g162"><path
             d="m 0,0 0,-5.31 c 0,-2.731 0.174,-3.43 1.726,-3.43 0.612,0 2.032,0.153 2.032,0.153 l 0.065,-1.158 c 0,0 -1.442,-0.219 -2.207,-0.219 -2.141,0 -2.928,0.809 -2.928,3.955 l 0,6.009 -1.617,0 0,1.202 1.617,0 0,3.43 1.312,0 0,-3.43 3.648,0 L 3.648,0 0,0 z"
             inkscape:connector-curvature="0"
             id="path164"
             style="fill:#4b7947;fill-opacity:1;fill-rule:nonzero;stroke:none" /></g><g
           transform="translate(415.3037,22.3691)"
           id="g166"><path
             d="M 0,0 C 0,2.885 -0.939,3.955 -2.993,3.955 -4.982,3.955 -6.162,2.841 -6.162,0 L 0,0 z m 0.874,-4.829 0.044,-1.092 c 0,0 -2.47,-0.307 -4.174,-0.307 -3.256,0.023 -4.239,1.989 -4.239,5.638 0,4.217 1.836,5.703 4.502,5.703 2.818,0 4.304,-1.486 4.304,-5.157 l -0.043,-1.049 -7.43,0 c 0,-2.578 0.743,-3.932 3.037,-3.932 1.596,0 3.999,0.196 3.999,0.196"
             inkscape:connector-curvature="0"
             id="path168"
             style="fill:#4b7947;fill-opacity:1;fill-rule:nonzero;stroke:none" /></g><g
           transform="translate(422.1855,21.6045)"
           id="g170"><path
             d="m 0,0 c -1.464,-0.131 -2.011,-0.83 -2.011,-2.142 0,-1.398 0.613,-2.184 1.814,-2.184 1.726,0 3.759,0.742 3.759,0.742 l 0,3.955 L 0,0 z M 4.851,-3.431 C 4.916,-4.064 5.55,-4.305 6.271,-4.392 L 6.205,-5.44 c -1.07,0 -1.879,0.217 -2.469,0.874 0,0 -2.053,-0.897 -4.107,-0.897 -1.924,0 -2.994,1.114 -2.994,3.3 0,2.01 1.005,2.972 3.212,3.19 l 3.715,0.371 0,0.984 c 0,1.639 -0.744,2.294 -2.142,2.294 -1.573,0 -4.13,-0.306 -4.13,-0.306 l -0.065,1.07 c 0,0 2.512,0.438 4.283,0.438 2.272,0 3.343,-1.137 3.343,-3.496 l 0,-5.813 z"
             inkscape:connector-curvature="0"
             id="path172"
             style="fill:#4b7947;fill-opacity:1;fill-rule:nonzero;stroke:none" /></g><g
           transform="translate(431.0781,16.3604)"
           id="g174"><path
             d="m 0,0 0,10.926 1.311,0 0,-0.787 c 0,0 1.463,0.874 3.058,0.939 0.459,0.022 0.875,0.022 1.225,-0.021 0.851,-0.11 1.441,-0.415 1.835,-0.94 0.524,0.196 2.425,1.005 4.02,1.005 2.972,0 3.65,-1.333 3.65,-5.44 l 0,-5.682 -1.312,0 0,5.354 c 0,3.474 -0.284,4.566 -2.491,4.566 C 9.657,9.92 8.041,9.068 7.975,9.024 8.193,8.391 8.281,7.123 8.281,5.682 l 0,-5.682 -1.289,0 0,5.638 C 6.992,8.915 6.643,9.92 4.479,9.92 2.84,9.92 1.311,9.002 1.311,9.002 L 1.311,0 0,0 z"
             inkscape:connector-curvature="0"
             id="path176"
             style="fill:#4b7947;fill-opacity:1;fill-rule:nonzero;stroke:none" /></g></g></g></g></svg>