<svg xmlns="http://www.w3.org/2000/svg" width="562.5" height="137.5"><defs><clipPath><path d="M0 110h450v-110h-450v110z"/></clipPath></defs><g transform="matrix(1.25 0 0 -1.25 0 137.5)"><path d="m32.19 40.909s-7.004-1.414-12.08-1.414c-13.301 0-16.192 8.353-16.192 22.874 0 14.715 2.827 23.197 16.192 23.197 5.976 0 12.144-1.35 12.144-1.35l-.257-3.662s-6.811 1.221-11.566 1.221c-10.73 0-12.401-6.876-12.401-19.406 0-12.336 1.735-19.019 12.466-19.019 4.24 0 11.501 1.157 11.501 1.157l.193-3.598z" fill="#4b7947"/><path d="m61.365 56.651c0 9.188-2.827 12.722-9.381 12.722-7.39 0-9.639-3.084-9.639-12.658 0-9.767 1.35-13.751 9.639-13.751s9.381 4.499 9.381 13.687m3.984 0c0-11.502-2.635-17.156-13.365-17.156-10.795 0-13.558 5.076-13.558 17.22 0 11.373 3.598 16.128 13.558 16.128 9.317 0 13.365-4.948 13.365-16.192" fill="#4b7947"/><path d="m98.699 72.265v-32.127h-3.791v2.249s-5.012-2.892-9.895-2.892c-8.932 0-10.731 3.92-10.731 15.999v16.771h3.791v-16.642c0-9.638.964-12.658 7.39-12.658 4.819 0 9.445 2.699 9.445 2.699v26.601h3.791z" fill="#4b7947"/><path d="m127.939 61.984c0 6.232-2.121 7.71-8.032 7.71-5.14 0-7.711-1.991-7.711-7.71 0-5.076 1.8-7.518 7.518-7.518 5.912 0 8.225 1.928 8.225 7.518m-12.144-20.754c-3.085-2.185-4.048-3.406-4.048-6.169 0-5.012 1.734-6.81 9.638-6.81 7.004 0 10.024 1.926 10.024 6.681 0 5.462-2.313 6.04-8.353 6.04-2.442 0-7.261.258-7.261.258m-7.903-6.426c0 3.919 1.863 5.59 5.268 8.096-1.156.707-1.67 2.378-1.67 4.369 0 1.093 2.056 5.012 2.056 5.012-2.763 1.157-5.205 3.663-5.205 9.703 0 7.839 4.562 10.923 11.566 10.923 3.342 0 6.747-.835 6.747-.835l9.253.193v-3.406l-6.298.129c1.35-1.35 2.249-3.213 2.249-7.004 0-8.225-3.919-10.73-12.144-10.73-.578 0-2.57.128-3.276.256 0 0-1.286-3.148-1.286-3.983 0-2.764.515-3.148 8.161-3.148 8.738 0 12.08-1.543 12.08-9.318 0-7.196-4.82-10.152-14.072-10.152-10.345 0-13.429 2.441-13.429 9.895" fill="#4b7947"/><path d="m150.751 55.559c-4.305-.385-5.912-2.441-5.912-6.297 0-4.112 1.8-6.426 5.333-6.426 5.077 0 11.052 2.186 11.052 2.186v11.63l-10.473-1.093zm14.265-10.088c.192-1.863 2.056-2.57 4.176-2.827l-.193-3.084c-3.148 0-5.526.643-7.261 2.57 0 0-6.04-2.634-12.079-2.634-5.655 0-8.804 3.277-8.804 9.702 0 5.911 2.957 8.738 9.446 9.381l10.923 1.092v2.892c0 4.819-2.184 6.747-6.297 6.747-4.626 0-12.144-.9-12.144-.9l-.193 3.149s7.39 1.285 12.595 1.285c6.682 0 9.831-3.342 9.831-10.281v-17.092z" fill="#4b7947"/><path d="m176.905 72.265h3.855v-4.562s5.205 3.984 11.759 5.205v-3.92c-6.104-1.221-11.759-4.884-11.759-4.884v-23.966h-3.855v32.127z" fill="#4b7947"/><path d="m231.331 81.196h-12.401v-19.79h12.401c7.453 0 9.767 4.048 9.767 10.216 0 6.618-3.085 9.574-9.767 9.574m1.221-23.517h-13.622v-17.542h-3.92v44.786h16.321c9.316 0 13.879-3.919 13.879-13.301 0-7.004-2.442-11.437-8.61-13.044l9.188-18.441h-4.434l-8.802 17.542z" fill="#4b7947"/><path d="m275.541 56.651c0 9.188-2.828 12.722-9.382 12.722-7.389 0-9.638-3.084-9.638-12.658 0-9.767 1.349-13.751 9.638-13.751s9.382 4.499 9.382 13.687m3.983 0c0-11.502-2.634-17.156-13.365-17.156-10.795 0-13.557 5.076-13.557 17.22 0 11.373 3.598 16.128 13.557 16.128 9.318 0 13.365-4.948 13.365-16.192" fill="#4b7947"/><path d="m310.241 56.715c0 8.803-1.542 12.594-7.711 12.594-4.819 0-9.767-2.056-9.767-2.056v-23.903s4.499-.385 6.426-.385c9.51 0 11.052 4.369 11.052 13.75m3.983.064c0-12.4-3.212-17.284-14.97-17.284-4.049 0-10.346.642-10.346.642v46.392h3.855v-15.935s5.012 2.249 10.024 2.249c8.739 0 11.437-4.69 11.437-16.064" fill="#4b7947"/><path d="m344.106 56.651c0 9.188-2.828 12.722-9.382 12.722-7.389 0-9.638-3.084-9.638-12.658 0-9.767 1.349-13.751 9.638-13.751s9.382 4.499 9.382 13.687m3.983 0c0-11.502-2.634-17.156-13.365-17.156-10.795 0-13.557 5.076-13.557 17.22 0 11.373 3.598 16.128 13.557 16.128 9.318 0 13.365-4.948 13.365-16.192" fill="#4b7947"/><path d="m362.101 68.731v-15.614c0-8.032.514-10.088 5.076-10.088 1.799 0 5.976.45 5.976.45l.192-3.406s-4.24-.642-6.489-.642c-6.297 0-8.61 2.378-8.61 11.63v17.67h-4.755v3.534h4.755v10.088h3.855v-10.088h10.73v-3.534h-10.73z" fill="#4b7947"/><path d="m380.479 72.265h3.855v-32.127h-3.855v32.127zm0 12.851h3.855v-4.819h-3.855v4.819z" fill="#4b7947"/><path d="m414.793 72.072l-.129-3.405s-5.141.578-7.582.578c-7.71 0-9.959-3.277-9.959-12.465 0-9.96 1.607-13.687 9.959-13.687 2.441 0 7.647.579 7.647.579l.192-3.406s-5.782-.771-8.546-.771c-10.409 0-13.172 4.626-13.172 17.285 0 11.758 3.662 16.063 13.236 16.063 2.763 0 8.354-.771 8.354-.771" fill="#4b7947"/><path d="m444.096 68.346s-6.939 1.028-11.116 1.028c-4.048 0-7.582-1.092-7.582-5.462 0-3.341 1.606-4.369 8.353-5.397 8.417-1.35 11.566-2.892 11.566-9.06 0-7.518-4.691-9.96-12.402-9.96-3.919 0-11.051 1.157-11.051 1.157l.256 3.406s7.198-1.093 10.474-1.093c5.591 0 8.803 1.285 8.803 6.297 0 3.855-1.927 4.627-8.803 5.719-7.71 1.22-11.116 2.635-11.116 8.802 0 7.004 5.719 9.061 11.309 9.061 4.883 0 11.438-1.093 11.438-1.093l-.129-3.405z" fill="#4b7947"/><path d="m44.134 97.9h12.855v-1.491h-5.605v-16.429h-1.568v16.429h-5.682v1.491z" fill="#4b7947"/><path d="M67.142 87.05c0 3.394-1.106 4.654-3.522 4.654-2.34 0-3.729-1.311-3.729-4.654h7.251zm1.028-5.682l.052-1.285s-2.906-.361-4.911-.361c-3.831.026-4.988 2.34-4.988 6.634 0 4.962 2.16 6.711 5.297 6.711 3.316 0 5.064-1.749 5.064-6.068l-.051-1.234h-8.742c0-3.034.875-4.628 3.574-4.628 1.877 0 4.705.231 4.705.231" fill="#4b7947"/><path d="m75.237 86.15c-1.723-.154-2.366-.977-2.366-2.52 0-1.646.72-2.571 2.135-2.571 2.03 0 4.421.874 4.421.874v4.654l-4.19-.437zm5.708-4.037c.077-.746.822-1.028 1.671-1.131l-.077-1.234c-1.26 0-2.212.257-2.906 1.028 0 0-2.417-1.054-4.834-1.054-2.262 0-3.522 1.311-3.522 3.883 0 2.365 1.183 3.496 3.78 3.753l4.37.438v1.156c0 1.928-.874 2.7-2.519 2.7-1.851 0-4.859-.36-4.859-.36l-.078 1.26s2.957.514 5.04.514c2.674 0 3.934-1.337 3.934-4.114v-6.839z" fill="#4b7947"/><path d="m85.697 79.98v12.855h1.543v-.925s1.723 1.028 3.6 1.106c.539.025 1.028.025 1.439-.026 1.003-.129 1.697-.489 2.16-1.106.617.232 2.854 1.183 4.731 1.183 3.497 0 4.294-1.568 4.294-6.402v-6.685h-1.543v6.299c0 4.088-.334 5.374-2.931 5.374-1.929 0-3.831-1.003-3.908-1.054.257-.746.36-2.237.36-3.934v-6.685h-1.517v6.633c0 3.857-.412 5.04-2.957 5.04-1.928 0-3.728-1.08-3.728-1.08v-10.593h-1.543z" fill="#4b7947"/><path d="m118.908 96.949h1.517v-16.969h-1.568v15.169l-4.525-3.008-.746 1.26 5.322 3.548z" fill="#4b7947"/><path d="m134.588 83.322h-8.51v1.312l5.013 12.315h1.723l-4.911-12.11h6.685v5.502h1.594v-5.502h2.262v-1.517h-2.262v-3.419h-1.594v3.419z" fill="#4b7947"/><path d="m141.32 88.13c0-5.605 1.594-6.891 4.422-6.891 2.828 0 4.397 1.312 4.397 6.917 0 5.991-1.388 7.559-4.423 7.559-2.956 0-4.396-1.517-4.396-7.585m10.49.026c0-6.505-2.288-8.434-6.068-8.434-3.805 0-6.119 1.852-6.119 8.434 0 7.121 2.262 9.05 6.093 9.05 3.935 0 6.094-1.929 6.094-9.05" fill="#4b7947"/><path d="m159.16 97.206c3.908 0 5.296-1.363 5.296-4.345 0-2.854-2.339-3.626-2.673-3.831 1.799-.592 3.136-1.388 3.136-4.268 0-3.369-1.722-5.04-5.476-5.04-2.7 0-5.605.592-5.605.592l.205 1.465s2.751-.54 5.271-.54c2.725.026 3.96 1.183 3.96 3.446 0 2.622-1.697 3.316-3.754 3.394h-3.445v1.465h3.419c1.337 0 3.317 1.105 3.317 3.188 0 2.16-1.054 2.957-3.703 2.957-2.391 0-4.756-.489-4.756-.489l-.206 1.415s2.571.591 5.014.591" fill="#4b7947"/><path d="m234.403 21.605c-1.464-.131-2.011-.83-2.011-2.142 0-1.398.613-2.184 1.815-2.184 1.725 0 3.758.742 3.758.742v3.955l-3.562-.371zm4.851-3.431c.065-.633.699-.874 1.42-.961l-.066-1.048c-1.07 0-1.879.217-2.469.874 0 0-2.053-.897-4.108-.897-1.922 0-2.993 1.114-2.993 3.3 0 2.01 1.005 2.972 3.212 3.19l3.715.371v.984c0 1.639-.744 2.294-2.142 2.294-1.573 0-4.13-.306-4.13-.306l-.065 1.07s2.512.438 4.283.438c2.272 0 3.343-1.137 3.343-3.496v-5.813z" fill="#4b7947"/><path d="m248.495 31.59h9.111v-1.267h-7.778v-6.271h6.467v-1.268h-6.467v-6.423h-1.333v15.229z" fill="#4b7947"/><path d="m260.533 31.59h1.333v-15.229h-1.333v15.229z" fill="#4b7947"/><path d="m271.437 30.323h-4.218v-6.73h4.218c2.534 0 3.321 1.376 3.321 3.474 0 2.25-1.049 3.256-3.321 3.256m.415-7.998h-4.633v-5.965h-1.332v15.23h5.55c3.168 0 4.72-1.333 4.72-4.523 0-2.382-.83-3.89-2.928-4.435l3.124-6.272h-1.508l-2.993 5.965z" fill="#4b7947"/><path d="m287.691 30.191s-3.016.372-4.282.372c-2.273 0-3.519-.787-3.519-2.666 0-2.228 1.158-2.578 3.846-3.102 2.972-.59 4.393-1.312 4.393-4.021 0-3.344-1.771-4.589-4.786-4.589-1.661 0-4.654.415-4.654.415l.131 1.246s2.949-.372 4.501-.372c2.272 0 3.431.896 3.431 3.235 0 1.9-.984 2.381-3.518 2.839-3.081.591-4.72 1.247-4.72 4.305 0 2.841 1.879 3.999 4.895 3.999 1.682 0 4.391-.415 4.391-.415l-.109-1.246z" fill="#4b7947"/><path d="m289.089 31.59h10.925v-1.267h-4.763v-13.962h-1.333v13.962h-4.829v1.267z" fill="#4b7947"/><path d="m302.581 29.255h.854c.484 0 .7.165.7.7 0 .51-.281.676-.879.676h-.675v-1.376zm.841-.535h-.841v-1.568h-.612v4.014h1.274c1.045 0 1.491-.318 1.491-1.185 0-.612-.166-1.006-.688-1.185l.764-1.644h-.663l-.725 1.568zm-.077-2.497c1.605 0 2.816 1.324 2.816 2.942 0 1.631-1.211 2.944-2.816 2.944-1.618 0-2.816-1.313-2.816-2.944 0-1.618 1.198-2.942 2.816-2.942m0 6.383c1.963 0 3.339-1.542 3.339-3.441 0-1.886-1.389-3.439-3.339-3.439-1.962 0-3.313 1.541-3.313 3.439 0 1.886 1.351 3.441 3.313 3.441" fill="#4b7947"/><path d="m319.479 30.323h-4.218v-6.73h4.218c2.534 0 3.321 1.376 3.321 3.474 0 2.25-1.049 3.256-3.321 3.256m.415-7.998h-4.633v-5.965h-1.332v15.23h5.55c3.168 0 4.72-1.333 4.72-4.523 0-2.382-.83-3.89-2.928-4.435l3.124-6.272h-1.508l-2.993 5.965z" fill="#4b7947"/><path d="m334.511 21.976c0 3.125-.961 4.327-3.19 4.327-2.513 0-3.278-1.049-3.278-4.305 0-3.321.459-4.676 3.278-4.676s3.19 1.53 3.19 4.654m1.354 0c0-3.911-.895-5.834-4.544-5.834-3.671 0-4.611 1.727-4.611 5.856 0 3.868 1.224 5.485 4.611 5.485 3.169 0 4.544-1.683 4.544-5.507" fill="#4b7947"/><path d="m346.309 21.998c0 2.993-.524 4.282-2.622 4.282-1.639 0-3.321-.699-3.321-.699v-8.128s1.529-.132 2.185-.132c3.234 0 3.758 1.487 3.758 4.677m1.354.021c0-4.216-1.092-5.877-5.09-5.877-1.377 0-3.518.218-3.518.218v15.777h1.311v-5.419s1.704.764 3.408.764c2.973 0 3.889-1.594 3.889-5.463" fill="#4b7947"/><path d="m357.822 21.976c0 3.125-.961 4.327-3.19 4.327-2.513 0-3.278-1.049-3.278-4.305 0-3.321.459-4.676 3.278-4.676s3.19 1.53 3.19 4.654m1.354 0c0-3.911-.895-5.834-4.544-5.834-3.671 0-4.611 1.727-4.611 5.856 0 3.868 1.224 5.485 4.611 5.485 3.169 0 4.544-1.683 4.544-5.507" fill="#4b7947"/><path d="m363.94 26.084v-5.31c0-2.731.174-3.43 1.726-3.43.612 0 2.032.153 2.032.153l.065-1.158s-1.442-.219-2.207-.219c-2.141 0-2.928.809-2.928 3.955v6.009h-1.617v1.202h1.617v3.43h1.312v-3.43h3.648v-1.202h-3.648z" fill="#4b7947"/><path d="m370.188 27.286h1.311v-10.926h-1.311v10.926zm0 4.369h1.311v-1.639h-1.311v1.639z" fill="#4b7947"/><path d="m381.854 27.22l-.044-1.158s-1.748.197-2.578.197c-2.622 0-3.387-1.114-3.387-4.239 0-3.387.547-4.654 3.387-4.654.83 0 2.601.197 2.601.197l.065-1.158s-1.967-.263-2.906-.263c-3.54 0-4.48 1.573-4.48 5.878 0 3.999 1.246 5.463 4.501 5.463.941 0 2.841-.263 2.841-.263" fill="#4b7947"/><path d="m391.817 25.953s-2.359.35-3.78.35c-1.376 0-2.578-.372-2.578-1.858 0-1.137.546-1.486 2.84-1.836 2.863-.459 3.933-.983 3.933-3.081 0-2.556-1.595-3.387-4.217-3.387-1.333 0-3.758.394-3.758.394l.087 1.158s2.448-.372 3.562-.372c1.901 0 2.994.438 2.994 2.142 0 1.311-.656 1.573-2.994 1.945-2.622.415-3.78.896-3.78 2.993 0 2.382 1.945 3.081 3.845 3.081 1.661 0 3.89-.372 3.89-.372l-.044-1.157z" fill="#4b7947"/><path d="m402.217 26.084v-5.31c0-2.731.174-3.43 1.726-3.43.612 0 2.032.153 2.032.153l.065-1.158s-1.442-.219-2.207-.219c-2.141 0-2.928.809-2.928 3.955v6.009h-1.617v1.202h1.617v3.43h1.312v-3.43h3.648v-1.202h-3.648z" fill="#4b7947"/><path d="M415.304 22.369c0 2.885-.939 3.955-2.993 3.955-1.989 0-3.169-1.114-3.169-3.955h6.162zm.874-4.829l.044-1.092s-2.47-.307-4.174-.307c-3.256.023-4.239 1.989-4.239 5.638 0 4.217 1.836 5.703 4.502 5.703 2.818 0 4.304-1.486 4.304-5.157l-.043-1.049h-7.43c0-2.578.743-3.932 3.037-3.932 1.596 0 3.999.196 3.999.196" fill="#4b7947"/><path d="m422.185 21.605c-1.464-.131-2.011-.83-2.011-2.142 0-1.398.613-2.184 1.814-2.184 1.726 0 3.759.742 3.759.742v3.955l-3.562-.371zm4.851-3.431c.065-.633.699-.874 1.42-.961l-.066-1.048c-1.07 0-1.879.217-2.469.874 0 0-2.053-.897-4.107-.897-1.924 0-2.994 1.114-2.994 3.3 0 2.01 1.005 2.972 3.212 3.19l3.715.371v.984c0 1.639-.744 2.294-2.142 2.294-1.573 0-4.13-.306-4.13-.306l-.065 1.07s2.512.438 4.283.438c2.272 0 3.343-1.137 3.343-3.496v-5.813z" fill="#4b7947"/><path d="m431.078 16.36v10.926h1.311v-.787s1.463.874 3.058.939c.459.022.875.022 1.225-.021.851-.11 1.441-.415 1.835-.94.524.196 2.425 1.005 4.02 1.005 2.972 0 3.65-1.333 3.65-5.44v-5.682h-1.312v5.354c0 3.474-.284 4.566-2.491 4.566-1.639 0-3.255-.852-3.321-.896.218-.633.306-1.901.306-3.342v-5.682h-1.289v5.638c0 3.277-.349 4.282-2.513 4.282-1.639 0-3.168-.918-3.168-.918v-9.002h-1.311z" fill="#4b7947"/></g></svg>