<svg xmlns="http://www.w3.org/2000/svg" width="312.5" height="187.5"><defs><clipPath><path d="m0 6.349h250v137.303h-250v-137.303z"/></clipPath><clipPath><path d="m2.299 142.25h245.872v-132.566h-245.872v132.566z"/></clipPath></defs><g transform="matrix(1.25 0 0 -1.25 0 187.5)"><path d="M248.14 83.353c-.517.346-.101 3.637-.234 5.144.514-.347.098-3.638.234-5.144" fill="#2d5428"/><path d="M247.438 80.313c.721-.66-.243-1.614 0-2.573-.699.639.312 1.546 0 2.573" fill="#2d5428"/><path d="M246.502 98.32c-.231-.959-.704 1.539-.936 2.105.597-.416.525-1.503.936-2.105"/><path d="m245.099 58.563v-.468c-.019.11-.025.239-.021.383l.021.085z"/><path d="M244.163 103.934c.585-.664.929-1.567 1.17-2.573-.545.704-.83 1.665-1.17 2.573"/><path d="M239.953 110.013c1.539-.646 2.907-3.483 3.977-5.377-1.402 1.716-2.286 3.95-3.977 5.377"/><path d="M234.232 41.073l.107.417c-.04-.136-.021-.328-.107-.417"/><path d="m245.078 58.477c-2.835-11.084-7.326-20.513-12.142-29.616.755 2.919 2.329 5.728 3.508 8.652 3.598 8.933 6.569 18.747 9.824 28.066.246-1.907-1.141-5.495-1.19-7.102" fill="#2d5428"/><path d="M232.469 29.327c-.11 1.518 1.436 3.398 1.871 5.146.285-1.692-1.371-3.459-1.871-5.146" fill="#2d5428"/><path d="M231.533 28.16c.481-.573-.632-1.539-.7-2.339-.482.57.632 1.539.7 2.339" fill="#2d5428"/><path d="m229.43 117.03c-.059-.255-.465-.159-.468-.468 1.324-.161 2.702-1.502 3.74-1.169 3.615-2.788 7.354-5.097 9.825-9.122 2.924-4.761 4.341-11.324 4.677-18.71.447-9.843-2.086-17.365-4.912-25.257-2.729-7.618-5.851-15.105-8.186-21.282l.127.051c-.543-1.962-.904-1.665-1.998-5.197-.225 3.473 1.747 6.905 2.806 10.525 3.278 11.181 6.859 25.021 7.486 38.823.481 10.596-2.332 19.105-7.018 25.023-3.143 3.974-7.786 6.706-13.33 8.186 3.668.683 4.559-1.658 7.251-1.403" fill="#2d5428"/><path d="M227.559 115.861c-.014.582 1.631-.943 2.339-1.169-.577-.333-1.644.841-2.339 1.169"/><path d="M221.01 73.296c.391-1.254-1.179-2.56-1.403-3.977-.314 1.179 1.138 2.599 1.403 3.977"/><path d="M175.638 92.239c.535.744 1.239-.302 1.871-.234-.54-.748-1.041.498-1.871.234"/><path d="m152.486 44.063c-4.344-3.808-9.155-6.725-14.188-9.662l-.351.603c4.76 2.782 9.136 5.701 13.603 9.293 3.13 2.515 5.749 5.52 8.077 8.828l.529-.37c-2.223-3.163-4.714-6.1-7.67-8.692" fill="#2d5428"/><path d="M136.347 38.683c-3.066-1.015-8.993-1.305-12.394-.468 3.214 1.074 8.407.169 12.394.468" fill="#2d5428"/><path d="M131.438 21.608c20.915 2.094 38.074 6.671 52.62 13.566 15.29 7.247 25.599 17.36 34.146 32.042 1.955 3.357-.193-.966-.936-2.338-5.874-10.863-14.406-19.552-25.051-26.228-16.074-10.079-36.961-15.573-60.779-17.042" fill="#2d5428"/><path d="m135.648 40.555c-2.135.051-5.197 1.194-7.719 1.637 1.809 1.623 5.553.335 7.251 2.339-.297.699-1.239 1.052-2.327 1.174l.057.452c1.019-.104 1.957-.197 2.738-.223 1.102-2.25-1.604-2.356-2.807-3.04 1.944-1.172 5.834-1.39 4.911-4.679-1.4-.86-3.266-1.256-5.612-1.169-.716.363 1.013.206 1.404.234 1.636.231 3.128.613 3.739 1.871-.519 1.817-2.564 2.115-4.207 2.807-.279-.676 1.866-.933 2.572-1.403m-5.848 1.871c-.287-.779 1.582-.573 1.638-.234-.55.075-.88.37-1.638.234" fill="#2d5428"/><path d="M131.672 37.279c-.529-.855-3.313-.505-4.211-.233.94.542 2.882.082 4.211.233" fill="#2d5428"/><path d="m132.841 44.996c-3.368.019-6.818.112-9.59-.466.936.622 2.543.575 3.742.936-2.065.737-4.126-.55-5.379-1.404 1.125 3.224 6.937 2.545 11.295 2.094l-.056-.451c-1.127.124-2.409 0-3.286-.239.68-.493 6.785-.082 3.274-.47" fill="#2d5428"/><path d="m126.76 37.046c-2.737-.087-5.083.218-6.783 1.169.451 1.577 2.542 1.512 4.444 1.638-.22-.872-1.511-.671-2.339-.936.447-.88 1.761-.889 2.339-1.638.711-.147 2.014.3 2.339-.233" fill="#2d5428"/><path d="m97.721 44.542l.354.355c.682-.68 1.356-1.346 2.022-2.003.88-.864 1.752-1.75 2.573-2.106-.743.76-1.52 1.551-2.32 2.362l.215.211c4.3 2.199 13.812 2.91 17.309-.467.386-.216.44-.202.372-.085l.29.122c.414-.95.533-2.121.271-3.546-2.507-2.014-6.388-2.657-10.991-2.573-.1-1.198 1.909-2.297 2.573-3.508.262-.485.253-.496-.234-.235-1.745.924-2.327 2.882-4.444 3.743-2.755 1.121-7.267.105-7.716 3.743-.199 1.596.704 3.035-.274 3.987m1.443-3.286c.824-.814 1.773-1.499 3.038-1.871-.357 1.108-2.119 3.532-3.038 1.871m2.337-2.106c-.669.122-1.647 1.142-2.105.703.519-.274 1.343-1.451 2.105-.703m16.607 2.34c-2.369 4.184-12.139 3.682-16.607 1.871 1.097-1.867 2.659-3.267 4.21-4.678 4.968.098 10.25-.115 12.397 2.807m-13.8-3.041c.54-.404 1.392-1.715 1.871-1.403-.541.404-1.392 1.714-1.871 1.403m2.573-.702c.757-1.101 2.879-.615 4.21-.468 2.633.295 5.681 1.137 7.017 2.339.032.277.416.531 0 .702-2.271-2.33-6.526-2.675-11.227-2.573" fill="#2d5428"/><path d="m91.211 52.48c-1.457 1.514-4.783 3.979-4.678 6.082.005.084.028.171.068.257l.4-.024c3.953-5.167 8.815-9.425 13.096-14.265 4.453 2.154 16.111 3.785 18.438-1.6l-.29-.122c-.07.12-.269.347-.372.553-4.233 3.113-13.009 3.155-17.308 0l-.215-.211c-2.994 3.043-6.285 6.371-9.139 9.33" fill="#2d5428"/><path d="M79.926 116.083l.061.012-.007-.014-.054.002" fill="#fff"/><path d="m79.98 116.081c-.262-.589-1.382-.318-1.63-.921-3.2-.58.283.657 1.574.923h.002l.054-.002"/><path d="m88.51 38.931c-4.278.017-9.075-.094-12.5.688 1.724 1.52 4.262 2.227 6.784 2.95l.105-.367c-1.368-.387-2.54-.969-3.614-1.647.349-.04.863.084.935-.234-.759-.136-1.089.159-1.637.234 1.013-1.168 3.888-.925 5.612-.702.362.454-2.096.077-2.339.702 1.51.126 3.546-.271 4.677.233l-.935 1.872.302.299c.185-.281.388-.548.633-.767-.1.524-.5 1.507-.879 1.686l.398.211.014-.026c1.422.269 2.748.637 4.032 1.041l.134-.426c-1.027-.309-1.993-.701-2.763-1.083.276-.037.665.04.702-.233-.662.191-.606-.33-1.17-.235.017-1.076.665-1.517.936-2.339l.087-.002-.019-.655c-.349 0-.599-.098-.536-.512.312.033.702-.014 1.043-.014l-.002-.674z" fill="#2d5428"/><path d="M85.13 44.765c-2.449 4.488-6.47 8.651-7.015 14.266 2.145-5.018 4.952-9.369 7.453-14.03l-.438-.236z" fill="#2d5428"/><path d="M75.309 114.457c-3.939-1.595-2.606-.328.468.234-.007-.227-.288-.183-.468-.234"/><path d="m74.373 59.73c.185 2.012 4.009 2.823 6.081 3.744 5.607 2.489 12.011 6.161 17.541 10.056 4.731 3.335 12.368 8.93 13.564 14.032.558 2.388-.068 4.636-1.17 6.081-4.023 5.281-14.865 6.524-23.388 7.485 11.527.042 29.933-.8 28.534-13.8-.873-8.089-9.546-13.45-14.035-18.243 6.969 2.728 15.438 6.419 20.156 12.157l.259-.216c-8.233-10.029-22.438-14.097-33.978-20.826l-.658-.014-.044.014c-3.186-2.311 2.18-6.626 4.21-8.655 2.381-2.378 4.55-4.575 6.629-6.647l-.353-.356c-.279.274-.711.506-1.364.691-.301-1.165-.842-4.58.936-4.444-1.324-.784-.655-3.556-2.339-3.977-1.303.038-.084 1.147-.702 1.871-1.635.197-3.626.239-5.742.248l.002.674c.438 0 .8.075.828.481-.325-.104-.903.045-1.336.045l.019.656c2.239-.085 4.234.077 6.229.236.421 1.06.166 2.797.234 4.21-1.291.141-2.83-.127-4.255-.555l-.133.426c1.56.491 3.064 1.036 4.622 1.532-3.805 4.535-8.963 7.719-12.631 12.395-.44.362.337.912-.234 1.403-1.733-.288-3.192-.751-4.208-1.17.559-5.69 4.828-10.909 7.483-14.499l.437.236.485-.912-.398-.211c-.101.047-.199.04-.29-.048.18-.29.348-.587.535-.871l-.301-.299c-.985-.066-1.878-.227-2.7-.458l-.105.367c.627.182 1.256.362 1.869.558-2.484 4.7-5.036 7.691-7.95 12.395-.8 1.289-2.454 2.966-2.339 4.208m24.791 7.02c.54.657-.304 1.341.231 2.102 5.895 4.87 15.276 10.546 14.736 19.879-1.932-7.779-6.851-12.577-11.929-16.838-1.667-1.399-4.533-2.263-4.909-4.91.339-.362 1.195-.208 1.871-.233m0 32.975c1.211-.211 3.866-.981 2.57-.468-.362.142-2.198.977-2.57.468" fill="#2d5428"/><path d="M72.502 45.7c.599.178 1.326.231 1.637.701.693-2.346.973-8.287-.935-9.59-.784 2.412-.216 6.178-.702 8.889" fill="#2d5428"/><path d="m67.623 12.488l.091.557c9.901-1.623 20.63-2.421 31.916-2.66 2.465-.07-1.155-.432-1.869-.467-1.553-.077-3.216-.096-4.961-.066l-.014.002c-.536.057-1.789.097-2.69.087-7.087.318-15.166 1.343-22.473 2.547" fill="#2d5428"/><path d="m39.994 98.789l-.012-.042-.009-.007.021.049" fill="#fff"/><path d="m4.212 45.466c4.837-6.862 11.164-12.874 18.789-17.646l-.281-.446c-1.539.954-3.127 1.86-4.242 2.421l.486-.347-.316-.416c-5.847 4.442-10.82 9.759-14.436 16.434" fill="#2d5428"/><path d="M49.114 26.523c1.661-.283 4.079-2.059 5.613-.936-1.534.379-4.701 2.906-5.613.936m-41.864 32.741c.76-9.853 9.012-16.014 15.672-20.581 5.496-3.77 11.683-6.857 18.007-9.355 1.907-.753 4.237-2.391 6.313-1.402-2.869 1.91-6.088 3.286-9.119 4.91-3.083 1.649-6.107 3.188-8.888 5.146-8.376 5.896-18.598 16.188-14.968 30.87 2.917 11.8 13.429 20.41 21.283 26.896.933.77.91-.012 1.403 1.403-1.932-.205-3.758-1.527-5.38-2.572-5.12-3.301-9.697-7.282-13.797-11.693-5.003-5.384-11.274-13.903-10.526-23.622m10.994-24.556c-7.275 5.505-16.645 14.215-15.903 26.427.561 9.251 6.004 17.263 11.225 22.921 5.627 6.097 12.555 10.665 19.411 14.499 10.958 6.126 22.822 11.08 35.782 15.201 4.206 1.338 8.598 2.854 13.096 3.275-.287-.908-1.08-.985-1.876-.95l.007.014-.06-.011h-.003c-.489.021-.975.081-1.34.011-3.265-.627-6.961-2.273-10.292-3.509-10.046-3.723-20.349-7.854-28.309-13.839l.012.042-.021-.049c-.314-.232-.622-.47-.926-.714.337.211.762.332.926.714l.009.007c-.25-.842-1.798-1.572-3.263-2.765-.809-.657-3.237-2.36-3.335-2.451l.529.346c-.375-.25-1.776-2.136-1.867-1.703l.697.534c-.335-.057-.395-.384-.702-.468l.005-.066c-5.113-4-10.102-9.842-13.568-16.071 2.626 3.689 5.447 8.43 8.652 10.757-5.383-7.068-12.344-12.694-11.459-25.023 1.008-14.083 15.601-23.156 26.896-28.299 1.733-.788 4.793-2.337 5.611-2.106 1.324.377 2.552 5.402 3.275 7.486 2.83 8.169 5.232 16.59 7.719 24.323 3.525 10.96 6.97 21.708 9.119 33.443.552-2.133-.683-4.012-.234-6.315-.217.133-.353.65-.467.234-.16-1.495.423-2.443-.234-4.676-.337.051-.082.697-.468.699-.103-.463.093-2.152.234-.933.285-2.938-1.266-6.063-1.404-9.356-.507-.04-.105.83-.233 1.169-.506-1.209-.63-2.802-.936-4.21.044-.264.236-.128.234 0 .072 1.144.458-.313 0-.467-1.897-12.683-6.659-26.204-11.693-37.42-.643-1.434-2.318-3.942-2.105-4.912.402-1.82 4.109-1.504 5.146-2.336 5.146 6.582 7.634 16.38 9.587 26.425 1.979 10.18 4.613 21.278 5.848 32.742.43 3.992.472 8.308.936 12.864.133 1.322.058 3.235 1.169 4.21.889-13.912.694-30.151-.702-43.267-.54.707-.082 2.412-.233 3.509-.546-1.249-.216-3.37-.703-4.678.289.103.48.299.469.702.29-3.001-.424-6.028-1.17-8.655-2.653-9.335-7.447-17.243-11.926-24.554.367-.569.834-1.037 1.403-1.404.477-.052-.166.594-.213.653l.213-.185c11.445-3.553 26.143-6.025 40.223-5.613 10.234.299 19.782 4.925 27.832 9.119 3.232 1.686 6.227 3.306 9.083 4.975l.351-.603c-2.552-1.49-5.163-2.987-7.796-4.606 10.731 5.013 20.428 10.507 27.829 18.947 7.415 8.453 11.384 19.946 16.604 30.168-5.293-8.802-9.177-18.186-14.779-26.155l-.529.37c6.429 9.147 10.624 20.616 17.18 30.463 1.892 2.839 5.461 6.477 1.169 7.95.285.234 2.891-1.125 2.807-2.807.482 3.134-3.01 4.318-6.313 4.444.056-.411.4-.533.933-.467-2.949-.492-5.227-.129-7.95-.936-3.99-1.179-7.253-4.587-10.291-4.678-3.72-.11-6.924 3.642-9.588 5.847 1.851 2.536-1.2 4.592-.468 7.251 2.26-.264 2.524-2.673 4.445-2.807 2.979-.208 5.418 4.403 7.248 6.316.533 5.599-.613 9.519-5.845 9.353 3.137.875 5.536-1.01 6.547-3.04-.672 3.794-5.568 4.54-9.822 3.976.257-.599 1.256-.458 2.105-.468-1.821-.435-5.377-.692-5.848-3.041-.287-1.436 1.154-2.467.702-3.976-2.229.812-3.101 2.98-3.976 5.146-.61.887-2 .919-2.807 1.637-1.782 1.586-4.22 6.847-3.973 9.122.105.976 1.356 2.52 2.336 3.507 1.28 1.289 3.253 2.867 5.146 4.21 1.892 1.34 4.341 2.248 5.848 3.508 1.365 1.144 2.095 3.553 3.274 4.445 1.883 1.424 5.071 1.884 7.716 2.572 7.053 1.827 16.728 2.124 24.791.702 2.225-.393 4.62-1.422 6.55-1.403 3.967.035 8.303 3.676 10.757 0 .374-1.343.199-3.233.234-4.912 7.707-5.623 15.706-10.954 18.709-21.283-1.806 1.392-2.926 3.467-4.678 4.912 1.197-.442 2.775-2.526 3.977-3.742-5.523 8.509-15.372 12.693-23.388 18.709 2.233-3.169 6.135-4.603 9.356-6.783 3.169-2.142 6.404-4.217 8.885-7.015-5.442 4.768-11.776 8.648-18.475 12.161-.356.737-.779 1.403-.936 2.339-8.443 4.9-27.522 6.177-35.782.234-.103-1.586 1.594-1.368 1.17-3.275-6.982 1.214-19.119-3.415-21.049-8.651-.84-2.281 1.504-6.473 3.742-6.784 1.266-.175 2.344.349 3.743.468 4.839.409 13.042.026 14.499-3.041.904-1.899.993-9.819 0-12.394-.484-1.258-4.755-4.558-7.014-5.848-1.046-.594-3.032-.507-3.275-2.105-.325-2.124 2.48-3.213 5.144-2.807 4.446.683 7.861 6.066 11.226 6.55 3.836.552 7.373-.386 10.524.701 3.675 1.266 5.524 3.886 9.122 5.848-.718-3.181-2.706-5.092-3.742-7.953 1.301-.809 2.65.632 3.509 1.404 3.507 3.148 6.686 7.176 12.393 8.418-3.139-3.245-6.846-5.244-10.055-8.418-5.918-5.855-10.352-13.534-13.8-21.283-3.548-7.981-5.953-16.618-10.289-24.557-4.212-7.71-9.441-14.28-16.605-18.475-7.115-4.166-15.517-6.473-24.323-10.524.393-1.019 1.916-.157 2.806-.236h3.273c-.557-.533-2.101-.082-3.038-.232-.854-.159-1.7-.328-2.807-.234 2.066-.731 6.093-.474 8.888-.233 22.219 1.913 42.362 7.517 58.162 17.439 12.773 8.016 22.707 18.855 28.604 32.842.91 3.408 2.479 6.853 3.508 10.525 1.025 3.654 1.293 7.71 3.508 10.524.615-4.617-.107-8.488-1.169-12.629-8.545-33.29-36.229-52.478-70.862-60.807-24.979-6.007-56.487-7.541-85.833-4.21-2.961.337-6.371.991-9.353 1.637-4.356.943-8.615 3.725-10.759.937 5.515-1.749 11.425-3.1 17.664-4.123l-.092-.556c-4.098.676-7.955 1.408-11.258 2.105 9.446-3.001 21.674-4.295 32.976-4.675.182.011.449.023.755.023.915-.042 1.813-.07 2.69-.087l.015-.002c.439-.047.359-.11-.887-.169-10.818.298-21.493.679-31.572 2.337-5.129.847-10.804 3.06-13.099 2.807-2.177-.239-3.59-2.785-5.377-3.04 1.172 1.672 3.38 1.431 3.74 3.507-2.758 2.193-3.782-1.7-4.909-3.274.072-.315.585-.191.935-.233-1.286-.352-1.913-1.362-2.807-2.104 1.303 1.97 2.269 4.276 3.275 6.547-8.505 3.579-16.581 7.586-23.451 12.802l.316.416c2.447-1.719 5.153-3.176 7.698-4.797-.917.76-2.405 1.766-3.942 2.723l.281.446c5.986-3.754 12.774-6.743 20.268-8.782.566.367.874.994.933 1.871-8.472 4.176-17.957 7.742-25.958 13.798m-.702 39.29c.171.241 1.146 1.52.702 1.637-.41-.819-1.174-2.299-.702-1.637m21.282 23.855l.213.167-.213-.167m7.015-77.411c-.283-.731-1.008-1.018-1.169-1.871.297-.342.94-1.537 1.403-.936-.381-.171-1.018.465-.468.468.98-.112 1.734-.449 2.573-.702.473.62 1.472.711 1.404 1.871-1.074.562-2.183 1.093-3.743 1.17m8.187-5.38c.687.049 1.548-.924 2.105-.234-.679-.075-2.423.821-2.105.234m3.04 9.356c1.893-.837 4.891-1.81 7.249-1.404-2.117.501-5.305 2.272-7.249 1.404m8.652 53.79c.229 2.19 1.331 4.748.936 6.783-.014-.945-.456-2.405-.702-3.742-.192-1.051-.671-3.45-.234-3.041m6.315-54.959c-1.155-.15-3.26 1.007-3.274.467 1.013-.087 2.302-1.12 3.274-.467m16.138-2.807c-5.593.332-11.195 1.901-15.904 2.339 4.653-.985 11.303-2.744 15.904-2.339m-15.435 44.904c.011-.248.299-.185.233.234-.063 5.218 1.247 11.69.234 15.669.037-5.497-.641-10.273-.467-15.903m72.031 43.966c1.214-2.76 1.476-.968 0 0m4.21-16.838c1.112-.66 2.532-2.393 4.21-3.275 1.42-.744 4.059-2.203 4.91-.234-5.398-.877-6.372 2.671-9.12 4.444v-.935zm-.935 5.847c.374-1.106.545-2.416 1.403-3.041.131 1.612-.765 2.197-1.403 3.041m8.885 33.677c.719-.227 2.609-.5 3.275 0-1.067.362-2.346.592-3.275 0m20.816 7.017c6.562-1.083 12.822-1.102 17.306-3.275.107-.051 3.413-2.727 1.871-.935-2.8 3.26-12.991 4.154-19.177 4.21" fill="#2d5428"/></g></svg>