<?xml version="1.0" encoding="UTF-8" standalone="no"?>
<!-- Created with Inkscape (http://www.inkscape.org/) -->

<svg
   xmlns:dc="http://purl.org/dc/elements/1.1/"
   xmlns:cc="http://creativecommons.org/ns#"
   xmlns:rdf="http://www.w3.org/1999/02/22-rdf-syntax-ns#"
   xmlns:svg="http://www.w3.org/2000/svg"
   xmlns="http://www.w3.org/2000/svg"
   xmlns:inkscape="http://www.inkscape.org/namespaces/inkscape"
   version="1.1"
   width="312.5"
   height="187.5"
   id="svg2"
   xml:space="preserve"><metadata
     id="metadata8"><rdf:RDF><cc:Work
         rdf:about=""><dc:format>image/svg+xml</dc:format><dc:type
           rdf:resource="http://purl.org/dc/dcmitype/StillImage" /></cc:Work></rdf:RDF></metadata><defs
     id="defs6"><clipPath
       id="clipPath16"><path
         d="m 0,6.349 250,0 0,137.303 -250,0 L 0,6.349 z"
         inkscape:connector-curvature="0"
         id="path18" /></clipPath><clipPath
       id="clipPath24"><path
         d="m 2.29932,142.25 245.87168,0 0,-132.56641 -245.87168,0 0,132.56641 z"
         inkscape:connector-curvature="0"
         id="path26" /></clipPath></defs><g
     transform="matrix(1.25,0,0,-1.25,0,187.5)"
     id="g10"><g
       id="g12"><g
         clip-path="url(#clipPath16)"
         id="g14"><g
           id="g20"><g
             id="g22" /><g
             id="g28"><g
               clip-path="url(#clipPath24)"
               id="g30"><g
                 transform="translate(248.1396,83.353)"
                 id="g32"><path
                   d="M 0,0 C -0.517,0.346 -0.101,3.637 -0.234,5.144 0.28,4.797 -0.136,1.506 0,0"
                   inkscape:connector-curvature="0"
                   id="path34"
                   style="fill:#2d5428;fill-opacity:1;fill-rule:nonzero;stroke:none" /></g><g
                 transform="translate(247.4375,80.3125)"
                 id="g36"><path
                   d="M 0,0 C 0.721,-0.66 -0.243,-1.614 0,-2.573 -0.699,-1.934 0.312,-1.027 0,0"
                   inkscape:connector-curvature="0"
                   id="path38"
                   style="fill:#2d5428;fill-opacity:1;fill-rule:nonzero;stroke:none" /></g><g
                 transform="translate(246.502,98.3203)"
                 id="g40"><path
                   d="M 0,0 C -0.231,-0.959 -0.704,1.539 -0.936,2.105 -0.339,1.689 -0.411,0.602 0,0"
                   inkscape:connector-curvature="0"
                   id="path42"
                   style="fill:#000000;fill-opacity:1;fill-rule:nonzero;stroke:none" /></g><g
                 transform="translate(245.0986,58.5625)"
                 id="g44"><path
                   d="m 0,0 0,-0.468 c -0.019,0.11 -0.025,0.239 -0.021,0.383 L 0,0 z"
                   inkscape:connector-curvature="0"
                   id="path46"
                   style="fill:#000000;fill-opacity:1;fill-rule:nonzero;stroke:none" /></g><g
                 transform="translate(244.1631,103.9341)"
                 id="g48"><path
                   d="M 0,0 C 0.585,-0.664 0.929,-1.567 1.17,-2.573 0.625,-1.869 0.34,-0.908 0,0"
                   inkscape:connector-curvature="0"
                   id="path50"
                   style="fill:#000000;fill-opacity:1;fill-rule:nonzero;stroke:none" /></g><g
                 transform="translate(239.9531,110.0132)"
                 id="g52"><path
                   d="M 0,0 C 1.539,-0.646 2.907,-3.483 3.977,-5.377 2.575,-3.661 1.691,-1.427 0,0"
                   inkscape:connector-curvature="0"
                   id="path54"
                   style="fill:#000000;fill-opacity:1;fill-rule:nonzero;stroke:none" /></g><g
                 transform="translate(234.2324,41.0732)"
                 id="g56"><path
                   d="M 0,0 C 0.034,0.129 0.069,0.267 0.107,0.417 0.067,0.281 0.086,0.089 0,0"
                   inkscape:connector-curvature="0"
                   id="path58"
                   style="fill:#000000;fill-opacity:1;fill-rule:nonzero;stroke:none" /></g><g
                 transform="translate(245.0781,58.4775)"
                 id="g60"><path
                   d="m 0,0 c -2.835,-11.084 -7.326,-20.513 -12.142,-29.616 0.755,2.919 2.329,5.728 3.508,8.652 3.598,8.933 6.569,18.747 9.824,28.066 C 1.436,5.195 0.049,1.607 0,0"
                   inkscape:connector-curvature="0"
                   id="path62"
                   style="fill:#2d5428;fill-opacity:1;fill-rule:nonzero;stroke:none" /></g><g
                 transform="translate(232.4688,29.3271)"
                 id="g64"><path
                   d="M 0,0 C -0.11,1.518 1.436,3.398 1.871,5.146 2.156,3.454 0.5,1.687 0,0"
                   inkscape:connector-curvature="0"
                   id="path66"
                   style="fill:#2d5428;fill-opacity:1;fill-rule:nonzero;stroke:none" /></g><g
                 transform="translate(231.5332,28.1602)"
                 id="g68"><path
                   d="M 0,0 C 0.481,-0.573 -0.632,-1.539 -0.7,-2.339 -1.182,-1.769 -0.068,-0.8 0,0"
                   inkscape:connector-curvature="0"
                   id="path70"
                   style="fill:#2d5428;fill-opacity:1;fill-rule:nonzero;stroke:none" /></g><g
                 transform="translate(229.4297,117.0303)"
                 id="g72"><path
                   d="m 0,0 c -0.059,-0.255 -0.465,-0.159 -0.468,-0.468 1.324,-0.161 2.702,-1.502 3.74,-1.169 3.615,-2.788 7.354,-5.097 9.825,-9.122 2.924,-4.761 4.341,-11.324 4.677,-18.71 0.447,-9.843 -2.086,-17.365 -4.912,-25.257 -2.729,-7.618 -5.851,-15.105 -8.186,-21.282 0.058,0.002 0.098,0.021 0.127,0.051 -0.543,-1.962 -0.904,-1.665 -1.998,-5.197 -0.225,3.473 1.747,6.905 2.806,10.525 3.278,11.181 6.859,25.021 7.486,38.823 0.481,10.596 -2.332,19.105 -7.018,25.023 -3.143,3.974 -7.786,6.706 -13.33,8.186 C -3.583,2.086 -2.692,-0.255 0,0"
                   inkscape:connector-curvature="0"
                   id="path74"
                   style="fill:#2d5428;fill-opacity:1;fill-rule:nonzero;stroke:none" /></g><g
                 transform="translate(227.5586,115.8608)"
                 id="g76"><path
                   d="M 0,0 C -0.014,0.582 1.631,-0.943 2.339,-1.169 1.762,-1.502 0.695,-0.328 0,0"
                   inkscape:connector-curvature="0"
                   id="path78"
                   style="fill:#000000;fill-opacity:1;fill-rule:nonzero;stroke:none" /></g><g
                 transform="translate(221.0098,73.2959)"
                 id="g80"><path
                   d="M 0,0 C 0.391,-1.254 -1.179,-2.56 -1.403,-3.977 -1.717,-2.798 -0.265,-1.378 0,0"
                   inkscape:connector-curvature="0"
                   id="path82"
                   style="fill:#000000;fill-opacity:1;fill-rule:nonzero;stroke:none" /></g><g
                 transform="translate(175.6377,92.2393)"
                 id="g84"><path
                   d="M 0,0 C 0.535,0.744 1.239,-0.302 1.871,-0.234 1.331,-0.982 0.83,0.264 0,0"
                   inkscape:connector-curvature="0"
                   id="path86"
                   style="fill:#000000;fill-opacity:1;fill-rule:nonzero;stroke:none" /></g><g
                 transform="translate(152.4863,44.0625)"
                 id="g88"><path
                   d="m 0,0 c -4.344,-3.808 -9.155,-6.725 -14.188,-9.662 l -0.351,0.603 c 4.76,2.782 9.136,5.701 13.603,9.293 3.13,2.515 5.749,5.52 8.077,8.828 L 7.67,8.692 C 5.447,5.529 2.956,2.592 0,0"
                   inkscape:connector-curvature="0"
                   id="path90"
                   style="fill:#2d5428;fill-opacity:1;fill-rule:nonzero;stroke:none" /></g><g
                 transform="translate(136.3467,38.6826)"
                 id="g92"><path
                   d="M 0,0 C -3.066,-1.015 -8.993,-1.305 -12.394,-0.468 -9.18,0.606 -3.987,-0.299 0,0"
                   inkscape:connector-curvature="0"
                   id="path94"
                   style="fill:#2d5428;fill-opacity:1;fill-rule:nonzero;stroke:none" /></g><g
                 transform="translate(131.4375,21.6084)"
                 id="g96"><path
                   d="M 0,0 C 20.915,2.094 38.074,6.671 52.62,13.566 67.91,20.813 78.219,30.926 86.766,45.608 88.721,48.965 86.573,44.642 85.83,43.27 79.956,32.407 71.424,23.718 60.779,17.042 44.705,6.963 23.818,1.469 0,0"
                   inkscape:connector-curvature="0"
                   id="path98"
                   style="fill:#2d5428;fill-opacity:1;fill-rule:nonzero;stroke:none" /></g><g
                 transform="translate(135.6475,40.5547)"
                 id="g100"><path
                   d="m 0,0 c -2.135,0.051 -5.197,1.194 -7.719,1.637 1.809,1.623 5.553,0.335 7.251,2.339 -0.297,0.699 -1.239,1.052 -2.327,1.174 l 0.057,0.452 C -1.719,5.498 -0.781,5.405 0,5.379 1.102,3.129 -1.604,3.023 -2.807,2.339 -0.863,1.167 3.027,0.949 2.104,-2.34 c -1.4,-0.86 -3.266,-1.256 -5.612,-1.169 -0.716,0.363 1.013,0.206 1.404,0.234 1.636,0.231 3.128,0.613 3.739,1.871 C 1.116,0.413 -0.929,0.711 -2.572,1.403 -2.851,0.727 -0.706,0.47 0,0 M -5.848,1.871 C -6.135,1.092 -4.266,1.298 -4.21,1.637 -4.76,1.712 -5.09,2.007 -5.848,1.871"
                   inkscape:connector-curvature="0"
                   id="path102"
                   style="fill:#2d5428;fill-opacity:1;fill-rule:nonzero;stroke:none" /></g><g
                 transform="translate(131.6719,37.2793)"
                 id="g104"><path
                   d="M 0,0 C -0.529,-0.855 -3.313,-0.505 -4.211,-0.233 -3.271,0.309 -1.329,-0.151 0,0"
                   inkscape:connector-curvature="0"
                   id="path106"
                   style="fill:#2d5428;fill-opacity:1;fill-rule:nonzero;stroke:none" /></g><g
                 transform="translate(132.8408,44.9961)"
                 id="g108"><path
                   d="m 0,0 c -3.368,0.019 -6.818,0.112 -9.59,-0.466 0.936,0.622 2.543,0.575 3.742,0.936 -2.065,0.737 -4.126,-0.55 -5.379,-1.404 1.125,3.224 6.937,2.545 11.295,2.094 L 0.012,0.709 C -1.115,0.833 -2.397,0.709 -3.274,0.47 -2.594,-0.023 3.511,0.388 0,0"
                   inkscape:connector-curvature="0"
                   id="path110"
                   style="fill:#2d5428;fill-opacity:1;fill-rule:nonzero;stroke:none" /></g><g
                 transform="translate(126.7598,37.0459)"
                 id="g112"><path
                   d="m 0,0 c -2.737,-0.087 -5.083,0.218 -6.783,1.169 0.451,1.577 2.542,1.512 4.444,1.638 C -2.559,1.935 -3.85,2.136 -4.678,1.871 -4.231,0.991 -2.917,0.982 -2.339,0.233 -1.628,0.086 -0.325,0.533 0,0"
                   inkscape:connector-curvature="0"
                   id="path114"
                   style="fill:#2d5428;fill-opacity:1;fill-rule:nonzero;stroke:none" /></g><g
                 transform="translate(97.7207,44.542)"
                 id="g116"><path
                   d="m 0,0 0.354,0.355 c 0.682,-0.68 1.356,-1.346 2.022,-2.003 0.88,-0.864 1.752,-1.75 2.573,-2.106 -0.743,0.76 -1.52,1.551 -2.32,2.362 l 0.215,0.211 c 4.3,2.199 13.812,2.91 17.309,-0.467 0.386,-0.216 0.44,-0.202 0.372,-0.085 l 0.29,0.122 c 0.414,-0.95 0.533,-2.121 0.271,-3.546 -2.507,-2.014 -6.388,-2.657 -10.991,-2.573 -0.1,-1.198 1.909,-2.297 2.573,-3.508 0.262,-0.485 0.253,-0.496 -0.234,-0.235 -1.745,0.924 -2.327,2.882 -4.444,3.743 C 5.235,-6.609 0.723,-7.625 0.274,-3.987 0.075,-2.391 0.978,-0.952 0,0 M 1.443,-3.286 C 2.267,-4.1 3.216,-4.785 4.481,-5.157 4.124,-4.049 2.362,-1.625 1.443,-3.286 M 3.78,-5.392 C 3.111,-5.27 2.133,-4.25 1.675,-4.689 2.194,-4.963 3.018,-6.14 3.78,-5.392 m 16.607,2.34 C 18.018,1.132 8.248,0.63 3.78,-1.181 c 1.097,-1.867 2.659,-3.267 4.21,-4.678 4.968,0.098 10.25,-0.115 12.397,2.807 m -13.8,-3.041 c 0.54,-0.404 1.392,-1.715 1.871,-1.403 -0.541,0.404 -1.392,1.714 -1.871,1.403 M 9.16,-6.795 c 0.757,-1.101 2.879,-0.615 4.21,-0.468 2.633,0.295 5.681,1.137 7.017,2.339 0.032,0.277 0.416,0.531 0,0.702 -2.271,-2.33 -6.526,-2.675 -11.227,-2.573"
                   inkscape:connector-curvature="0"
                   id="path118"
                   style="fill:#2d5428;fill-opacity:1;fill-rule:nonzero;stroke:none" /></g><g
                 transform="translate(91.2114,52.4805)"
                 id="g120"><path
                   d="m 0,0 c -1.457,1.514 -4.783,3.979 -4.678,6.082 0.005,0.084 0.028,0.171 0.068,0.257 l 0.4,-0.024 C -0.257,1.148 4.605,-3.11 8.886,-7.95 c 4.453,2.154 16.111,3.785 18.438,-1.6 l -0.29,-0.122 c -0.07,0.12 -0.269,0.347 -0.372,0.553 -4.233,3.113 -13.009,3.155 -17.308,0 L 9.139,-9.33 C 6.145,-6.287 2.854,-2.959 0,0"
                   inkscape:connector-curvature="0"
                   id="path122"
                   style="fill:#2d5428;fill-opacity:1;fill-rule:nonzero;stroke:none" /></g><g
                 transform="translate(79.9258,116.083)"
                 id="g124"><path
                   d="M 0,0 C 0.021,0.004 0.042,0.007 0.061,0.012 0.059,0.007 0.056,0.002 0.054,-0.002 0.037,-0.002 0.019,-0.002 0,0"
                   inkscape:connector-curvature="0"
                   id="path126"
                   style="fill:#ffffff;fill-opacity:1;fill-rule:nonzero;stroke:none" /></g><g
                 transform="translate(79.9795,116.0806)"
                 id="g128"><path
                   d="m 0,0 c -0.262,-0.589 -1.382,-0.318 -1.63,-0.921 -3.2,-0.58 0.283,0.657 1.574,0.923 l 0.002,0 C -0.035,0 -0.017,0 0,0"
                   inkscape:connector-curvature="0"
                   id="path130"
                   style="fill:#000000;fill-opacity:1;fill-rule:nonzero;stroke:none" /></g><g
                 transform="translate(88.5098,38.9307)"
                 id="g132"><path
                   d="m 0,0 c -4.278,0.017 -9.075,-0.094 -12.5,0.688 1.724,1.52 4.262,2.227 6.784,2.95 L -5.611,3.271 C -6.979,2.884 -8.151,2.302 -9.225,1.624 -8.876,1.584 -8.362,1.708 -8.29,1.39 -9.049,1.254 -9.379,1.549 -9.927,1.624 c 1.013,-1.168 3.888,-0.925 5.612,-0.702 0.362,0.454 -2.096,0.077 -2.339,0.702 1.51,0.126 3.546,-0.271 4.677,0.233 -0.053,0.88 -0.879,0.99 -0.935,1.872 l 0.302,0.299 c 0.185,-0.281 0.388,-0.548 0.633,-0.767 -0.1,0.524 -0.5,1.507 -0.879,1.686 l 0.398,0.211 c 0.004,-0.01 0.009,-0.016 0.014,-0.026 1.422,0.269 2.748,0.637 4.032,1.041 L 1.722,5.747 C 0.695,5.438 -0.271,5.046 -1.041,4.664 -0.765,4.627 -0.376,4.704 -0.339,4.431 -1.001,4.622 -0.945,4.101 -1.509,4.196 -1.492,3.12 -0.844,2.679 -0.573,1.857 -0.545,1.855 -0.515,1.855 -0.486,1.855 L -0.505,1.2 C -0.854,1.2 -1.104,1.102 -1.041,0.688 -0.729,0.721 -0.339,0.674 0.002,0.674 L 0,0 z"
                   inkscape:connector-curvature="0"
                   id="path134"
                   style="fill:#2d5428;fill-opacity:1;fill-rule:nonzero;stroke:none" /></g><g
                 transform="translate(85.1299,44.7646)"
                 id="g136"><path
                   d="M 0,0 C -2.449,4.488 -6.47,8.651 -7.015,14.266 -4.87,9.248 -2.063,4.897 0.438,0.236 L 0,0 z"
                   inkscape:connector-curvature="0"
                   id="path138"
                   style="fill:#2d5428;fill-opacity:1;fill-rule:nonzero;stroke:none" /></g><g
                 transform="translate(75.3086,114.4575)"
                 id="g140"><path
                   d="M 0,0 C -3.939,-1.595 -2.606,-0.328 0.468,0.234 0.461,0.007 0.18,0.051 0,0"
                   inkscape:connector-curvature="0"
                   id="path142"
                   style="fill:#000000;fill-opacity:1;fill-rule:nonzero;stroke:none" /></g><g
                 transform="translate(74.373,59.7295)"
                 id="g144"><path
                   d="m 0,0 c 0.185,2.012 4.009,2.823 6.081,3.744 5.607,2.489 12.011,6.161 17.541,10.056 4.731,3.335 12.368,8.93 13.564,14.032 0.558,2.388 -0.068,4.636 -1.17,6.081 -4.023,5.281 -14.865,6.524 -23.388,7.485 11.527,0.042 29.933,-0.8 28.534,-13.8 -0.873,-8.089 -9.546,-13.45 -14.035,-18.243 6.969,2.728 15.438,6.419 20.156,12.157 l 0.259,-0.216 C 39.309,11.267 25.104,7.199 13.564,0.47 L 12.906,0.456 c -0.013,0.005 -0.028,0.009 -0.044,0.014 -3.186,-2.311 2.18,-6.626 4.21,-8.655 2.381,-2.378 4.55,-4.575 6.629,-6.647 l -0.353,-0.356 c -0.279,0.274 -0.711,0.506 -1.364,0.691 -0.301,-1.165 -0.842,-4.58 0.936,-4.444 -1.324,-0.784 -0.655,-3.556 -2.339,-3.977 -1.303,0.038 -0.084,1.147 -0.702,1.871 -1.635,0.197 -3.626,0.239 -5.742,0.248 l 0.002,0.674 c 0.438,0 0.8,0.075 0.828,0.481 -0.325,-0.104 -0.903,0.045 -1.336,0.045 l 0.019,0.656 c 2.239,-0.085 4.234,0.077 6.229,0.236 0.421,1.06 0.166,2.797 0.234,4.21 -1.291,0.141 -2.83,-0.127 -4.255,-0.555 l -0.133,0.426 c 1.56,0.491 3.064,1.036 4.622,1.532 -3.805,4.535 -8.963,7.719 -12.631,12.395 -0.44,0.362 0.337,0.912 -0.234,1.403 -1.733,-0.288 -3.192,-0.751 -4.208,-1.17 0.559,-5.69 4.828,-10.909 7.483,-14.499 l 0.437,0.236 c 0.164,-0.301 0.326,-0.606 0.485,-0.912 l -0.398,-0.211 c -0.101,0.047 -0.199,0.04 -0.29,-0.048 0.18,-0.29 0.348,-0.587 0.535,-0.871 l -0.301,-0.299 c -0.985,-0.066 -1.878,-0.227 -2.7,-0.458 l -0.105,0.367 c 0.627,0.182 1.256,0.362 1.869,0.558 -2.484,4.7 -5.036,7.691 -7.95,12.395 C 1.539,-2.919 -0.115,-1.242 0,0 m 24.791,7.02 c 0.54,0.657 -0.304,1.341 0.231,2.102 5.895,4.87 15.276,10.546 14.736,19.879 C 37.826,21.222 32.907,16.424 27.829,12.163 26.162,10.764 23.296,9.9 22.92,7.253 23.259,6.891 24.115,7.045 24.791,7.02 m 0,32.975 c 1.211,-0.211 3.866,-0.981 2.57,-0.468 -0.362,0.142 -2.198,0.977 -2.57,0.468"
                   inkscape:connector-curvature="0"
                   id="path146"
                   style="fill:#2d5428;fill-opacity:1;fill-rule:nonzero;stroke:none" /></g><g
                 transform="translate(72.502,45.7002)"
                 id="g148"><path
                   d="M 0,0 C 0.599,0.178 1.326,0.231 1.637,0.701 2.33,-1.645 2.61,-7.586 0.702,-8.889 -0.082,-6.477 0.486,-2.711 0,0"
                   inkscape:connector-curvature="0"
                   id="path150"
                   style="fill:#2d5428;fill-opacity:1;fill-rule:nonzero;stroke:none" /></g><g
                 transform="translate(67.6226,12.4883)"
                 id="g152"><path
                   d="m 0,0 0.091,0.557 c 9.901,-1.623 20.63,-2.421 31.916,-2.66 2.465,-0.07 -1.155,-0.432 -1.869,-0.467 -1.553,-0.077 -3.216,-0.096 -4.961,-0.066 l -0.014,0.002 c -0.536,0.057 -1.789,0.097 -2.69,0.087 C 15.386,-2.229 7.307,-1.204 0,0"
                   inkscape:connector-curvature="0"
                   id="path154"
                   style="fill:#2d5428;fill-opacity:1;fill-rule:nonzero;stroke:none" /></g><g
                 transform="translate(39.9941,98.7886)"
                 id="g156"><path
                   d="m 0,0 c -0.002,-0.014 -0.007,-0.028 -0.012,-0.042 -0.002,0 -0.007,-0.003 -0.009,-0.007 C -0.012,-0.033 -0.007,-0.017 0,0"
                   inkscape:connector-curvature="0"
                   id="path158"
                   style="fill:#ffffff;fill-opacity:1;fill-rule:nonzero;stroke:none" /></g><g
                 transform="translate(4.2124,45.4658)"
                 id="g160"><path
                   d="m 0,0 c 4.837,-6.862 11.164,-12.874 18.789,-17.646 l -0.281,-0.446 c -1.539,0.954 -3.127,1.86 -4.242,2.421 0.161,-0.117 0.322,-0.231 0.486,-0.347 l -0.316,-0.416 C 8.589,-11.992 3.616,-6.675 0,0"
                   inkscape:connector-curvature="0"
                   id="path162"
                   style="fill:#2d5428;fill-opacity:1;fill-rule:nonzero;stroke:none" /></g><g
                 transform="translate(49.1143,26.5225)"
                 id="g164"><path
                   d="M 0,0 C 1.661,-0.283 4.079,-2.059 5.613,-0.936 4.079,-0.557 0.912,1.97 0,0 m -41.864,32.741 c 0.76,-9.853 9.012,-16.014 15.672,-20.581 5.496,-3.77 11.683,-6.857 18.007,-9.355 1.907,-0.753 4.237,-2.391 6.313,-1.402 -2.869,1.91 -6.088,3.286 -9.119,4.91 -3.083,1.649 -6.107,3.188 -8.888,5.146 -8.376,5.896 -18.598,16.188 -14.968,30.87 2.917,11.8 13.429,20.41 21.283,26.896 0.933,0.77 0.91,-0.012 1.403,1.403 -1.932,-0.205 -3.758,-1.527 -5.38,-2.572 -5.12,-3.301 -9.697,-7.282 -13.797,-11.693 C -36.341,50.979 -42.612,42.46 -41.864,32.741 M -30.87,8.185 c -7.275,5.505 -16.645,14.215 -15.903,26.427 0.561,9.251 6.004,17.263 11.225,22.921 5.627,6.097 12.555,10.665 19.411,14.499 10.958,6.126 22.822,11.08 35.782,15.201 4.206,1.338 8.598,2.854 13.096,3.275 -0.287,-0.908 -1.08,-0.985 -1.876,-0.95 0.003,0.005 0.005,0.009 0.007,0.014 -0.018,-0.005 -0.039,-0.007 -0.06,-0.011 l -0.003,0 c -0.489,0.021 -0.975,0.081 -1.34,0.011 C 26.204,88.945 22.508,87.299 19.177,86.063 9.131,82.34 -1.172,78.209 -9.132,72.224 c 0.005,0.014 0.009,0.028 0.012,0.042 -0.007,-0.016 -0.012,-0.033 -0.021,-0.049 -0.314,-0.232 -0.622,-0.47 -0.926,-0.714 0.337,0.211 0.762,0.332 0.926,0.714 0.002,0.004 0.007,0.007 0.009,0.007 -0.25,-0.842 -1.798,-1.572 -3.263,-2.765 -0.809,-0.657 -3.237,-2.36 -3.335,-2.451 0.028,0.012 0.187,0.117 0.529,0.346 -0.375,-0.25 -1.776,-2.136 -1.867,-1.703 0.232,0.182 0.465,0.36 0.697,0.534 -0.335,-0.057 -0.395,-0.384 -0.702,-0.468 0,-0.026 0,-0.047 0.005,-0.066 -5.113,-4 -10.102,-9.842 -13.568,-16.071 2.626,3.689 5.447,8.43 8.652,10.757 -5.383,-7.068 -12.344,-12.694 -11.459,-25.023 1.008,-14.083 15.601,-23.156 26.896,-28.299 1.733,-0.788 4.793,-2.337 5.611,-2.106 1.324,0.377 2.552,5.402 3.275,7.486 2.83,8.169 5.232,16.59 7.719,24.323 3.525,10.96 6.97,21.708 9.119,33.443 0.552,-2.133 -0.683,-4.012 -0.234,-6.315 -0.217,0.133 -0.353,0.65 -0.467,0.234 -0.16,-1.495 0.423,-2.443 -0.234,-4.676 -0.337,0.051 -0.082,0.697 -0.468,0.699 -0.103,-0.463 0.093,-2.152 0.234,-0.933 0.285,-2.938 -1.266,-6.063 -1.404,-9.356 -0.507,-0.04 -0.105,0.83 -0.233,1.169 -0.506,-1.209 -0.63,-2.802 -0.936,-4.21 0.044,-0.264 0.236,-0.128 0.234,0 0.072,1.144 0.458,-0.313 0,-0.467 C 13.772,33.623 9.01,20.102 3.976,8.886 3.333,7.452 1.658,4.944 1.871,3.974 2.273,2.154 5.98,2.47 7.017,1.638 c 5.146,6.582 7.634,16.38 9.587,26.425 1.979,10.18 4.613,21.278 5.848,32.742 0.43,3.992 0.472,8.308 0.936,12.864 0.133,1.322 0.058,3.235 1.169,4.21 0.889,-13.912 0.694,-30.151 -0.702,-43.267 -0.54,0.707 -0.082,2.412 -0.233,3.509 -0.546,-1.249 -0.216,-3.37 -0.703,-4.678 0.289,0.103 0.48,0.299 0.469,0.702 0.29,-3.001 -0.424,-6.028 -1.17,-8.655 C 19.565,16.155 14.771,8.247 10.292,0.936 c 0.367,-0.569 0.834,-1.037 1.403,-1.404 0.477,-0.052 -0.166,0.594 -0.213,0.653 0.007,0 0.065,-0.054 0.213,-0.185 11.445,-3.553 26.143,-6.025 40.223,-5.613 10.234,0.299 19.782,4.925 27.832,9.119 3.232,1.686 6.227,3.306 9.083,4.975 l 0.351,-0.603 c -2.552,-1.49 -5.163,-2.987 -7.796,-4.606 10.731,5.013 20.428,10.507 27.829,18.947 7.415,8.453 11.384,19.946 16.604,30.168 -5.293,-8.802 -9.177,-18.186 -14.779,-26.155 l -0.529,0.37 c 6.429,9.147 10.624,20.616 17.18,30.463 1.892,2.839 5.461,6.477 1.169,7.95 0.285,0.234 2.891,-1.125 2.807,-2.807 0.482,3.134 -3.01,4.318 -6.313,4.444 0.056,-0.411 0.4,-0.533 0.933,-0.467 -2.949,-0.492 -5.227,-0.129 -7.95,-0.936 -3.99,-1.179 -7.253,-4.587 -10.291,-4.678 -3.72,-0.11 -6.924,3.642 -9.588,5.847 1.851,2.536 -1.2,4.592 -0.468,7.251 2.26,-0.264 2.524,-2.673 4.445,-2.807 2.979,-0.208 5.418,4.403 7.248,6.316 0.533,5.599 -0.613,9.519 -5.845,9.353 3.137,0.875 5.536,-1.01 6.547,-3.04 -0.672,3.794 -5.568,4.54 -9.822,3.976 0.257,-0.599 1.256,-0.458 2.105,-0.468 -1.821,-0.435 -5.377,-0.692 -5.848,-3.041 -0.287,-1.436 1.154,-2.467 0.702,-3.976 -2.229,0.812 -3.101,2.98 -3.976,5.146 -0.61,0.887 -2,0.919 -2.807,1.637 -1.782,1.586 -4.22,6.847 -3.973,9.122 0.105,0.976 1.356,2.52 2.336,3.507 1.28,1.289 3.253,2.867 5.146,4.21 1.892,1.34 4.341,2.248 5.848,3.508 1.365,1.144 2.095,3.553 3.274,4.445 1.883,1.424 5.071,1.884 7.716,2.572 7.053,1.827 16.728,2.124 24.791,0.702 2.225,-0.393 4.62,-1.422 6.55,-1.403 3.967,0.035 8.303,3.676 10.757,0 0.374,-1.343 0.199,-3.233 0.234,-4.912 7.707,-5.623 15.706,-10.954 18.709,-21.283 -1.806,1.392 -2.926,3.467 -4.678,4.912 1.197,-0.442 2.775,-2.526 3.977,-3.742 -5.523,8.509 -15.372,12.693 -23.388,18.709 2.233,-3.169 6.135,-4.603 9.356,-6.783 3.169,-2.142 6.404,-4.217 8.885,-7.015 -5.442,4.768 -11.776,8.648 -18.475,12.161 -0.356,0.737 -0.779,1.403 -0.936,2.339 -8.443,4.9 -27.522,6.177 -35.782,0.234 -0.103,-1.586 1.594,-1.368 1.17,-3.275 -6.982,1.214 -19.119,-3.415 -21.049,-8.651 -0.84,-2.281 1.504,-6.473 3.742,-6.784 1.266,-0.175 2.344,0.349 3.743,0.468 4.839,0.409 13.042,0.026 14.499,-3.041 0.904,-1.899 0.993,-9.819 0,-12.394 -0.484,-1.258 -4.755,-4.558 -7.014,-5.848 -1.046,-0.594 -3.032,-0.507 -3.275,-2.105 -0.325,-2.124 2.48,-3.213 5.144,-2.807 4.446,0.683 7.861,6.066 11.226,6.55 3.836,0.552 7.373,-0.386 10.524,0.701 3.675,1.266 5.524,3.886 9.122,5.848 -0.718,-3.181 -2.706,-5.092 -3.742,-7.953 1.301,-0.809 2.65,0.632 3.509,1.404 3.507,3.148 6.686,7.176 12.393,8.418 -3.139,-3.245 -6.846,-5.244 -10.055,-8.418 -5.918,-5.855 -10.352,-13.534 -13.8,-21.283 C 123.677,40.897 121.272,32.26 116.936,24.321 112.724,16.611 107.495,10.041 100.331,5.846 93.216,1.68 84.814,-0.627 76.008,-4.678 c 0.393,-1.019 1.916,-0.157 2.806,-0.236 l 3.273,0 c -0.557,-0.533 -2.101,-0.082 -3.038,-0.232 -0.854,-0.159 -1.7,-0.328 -2.807,-0.234 2.066,-0.731 6.093,-0.474 8.888,-0.233 22.219,1.913 42.362,7.517 58.162,17.439 12.773,8.016 22.707,18.855 28.604,32.842 0.91,3.408 2.479,6.853 3.508,10.525 1.025,3.654 1.293,7.71 3.508,10.524 0.615,-4.617 -0.107,-8.488 -1.169,-12.629 -8.545,-33.29 -36.229,-52.478 -70.862,-60.807 -24.979,-6.007 -56.487,-7.541 -85.833,-4.21 -2.961,0.337 -6.371,0.991 -9.353,1.637 -4.356,0.943 -8.615,3.725 -10.759,0.937 5.515,-1.749 11.425,-3.1 17.664,-4.123 l -0.092,-0.556 c -4.098,0.676 -7.955,1.408 -11.258,2.105 9.446,-3.001 21.674,-4.295 32.976,-4.675 0.182,0.011 0.449,0.023 0.755,0.023 0.915,-0.042 1.813,-0.07 2.69,-0.087 l 0.015,-0.002 c 0.439,-0.047 0.359,-0.11 -0.887,-0.169 -10.818,0.298 -21.493,0.679 -31.572,2.337 -5.129,0.847 -10.804,3.06 -13.099,2.807 -2.177,-0.239 -3.59,-2.785 -5.377,-3.04 1.172,1.672 3.38,1.431 3.74,3.507 -2.758,2.193 -3.782,-1.7 -4.909,-3.274 0.072,-0.315 0.585,-0.191 0.935,-0.233 -1.286,-0.352 -1.913,-1.362 -2.807,-2.104 1.303,1.97 2.269,4.276 3.275,6.547 -8.505,3.579 -16.581,7.586 -23.451,12.802 l 0.316,0.416 c 2.447,-1.719 5.153,-3.176 7.698,-4.797 -0.917,0.76 -2.405,1.766 -3.942,2.723 l 0.281,0.446 c 5.986,-3.754 12.774,-6.743 20.268,-8.782 0.566,0.367 0.874,0.994 0.933,1.871 -8.472,4.176 -17.957,7.742 -25.958,13.798 m -0.702,39.29 c 0.171,0.241 1.146,1.52 0.702,1.637 -0.41,-0.819 -1.174,-2.299 -0.702,-1.637 M -10.29,71.33 c 0.071,0.056 0.143,0.112 0.213,0.167 -0.077,-0.05 -0.15,-0.103 -0.213,-0.167 m 7.015,-77.411 c -0.283,-0.731 -1.008,-1.018 -1.169,-1.871 0.297,-0.342 0.94,-1.537 1.403,-0.936 -0.381,-0.171 -1.018,0.465 -0.468,0.468 0.98,-0.112 1.734,-0.449 2.573,-0.702 0.473,0.62 1.472,0.711 1.404,1.871 -1.074,0.562 -2.183,1.093 -3.743,1.17 m 8.187,-5.38 c 0.687,0.049 1.548,-0.924 2.105,-0.234 -0.679,-0.075 -2.423,0.821 -2.105,0.234 m 3.04,9.356 c 1.893,-0.837 4.891,-1.81 7.249,-1.404 -2.117,0.501 -5.305,2.272 -7.249,1.404 m 8.652,53.79 c 0.229,2.19 1.331,4.748 0.936,6.783 -0.014,-0.945 -0.456,-2.405 -0.702,-3.742 -0.192,-1.051 -0.671,-3.45 -0.234,-3.041 m 6.315,-54.959 c -1.155,-0.15 -3.26,1.007 -3.274,0.467 1.013,-0.087 2.302,-1.12 3.274,-0.467 m 16.138,-2.807 c -5.593,0.332 -11.195,1.901 -15.904,2.339 4.653,-0.985 11.303,-2.744 15.904,-2.339 M 23.622,38.823 c 0.011,-0.248 0.299,-0.185 0.233,0.234 -0.063,5.218 1.247,11.69 0.234,15.669 0.037,-5.497 -0.641,-10.273 -0.467,-15.903 m 72.031,43.966 c 1.214,-2.76 1.476,-0.968 0,0 m 4.21,-16.838 c 1.112,-0.66 2.532,-2.393 4.21,-3.275 1.42,-0.744 4.059,-2.203 4.91,-0.234 -5.398,-0.877 -6.372,2.671 -9.12,4.444 l 0,-0.935 z m -0.935,5.847 c 0.374,-1.106 0.545,-2.416 1.403,-3.041 0.131,1.612 -0.765,2.197 -1.403,3.041 m 8.885,33.677 c 0.719,-0.227 2.609,-0.5 3.275,0 -1.067,0.362 -2.346,0.592 -3.275,0 m 20.816,7.017 c 6.562,-1.083 12.822,-1.102 17.306,-3.275 0.107,-0.051 3.413,-2.727 1.871,-0.935 -2.8,3.26 -12.991,4.154 -19.177,4.21"
                   inkscape:connector-curvature="0"
                   id="path166"
                   style="fill:#2d5428;fill-opacity:1;fill-rule:nonzero;stroke:none" /></g></g></g></g></g></g></g></svg>